<?xml version="1.0" encoding="utf-8"?>
<!-- Generator: Adobe Illustrator 19.0.1, SVG Export Plug-In . SVG Version: 6.00 Build 0)  -->
<svg version="1.1" id="_x31__14_" xmlns="http://www.w3.org/2000/svg" xmlns:xlink="http://www.w3.org/1999/xlink" x="0px" y="0px"
	 viewBox="0 0 455.2 689" style="enable-background:new 0 0 455.2 689;" xml:space="preserve">
<style type="text/css">
	.st0{fill:#5D4837;}
	.st1{fill:url(#_x33__9_);}
	.st2{fill:#735846;}
	.st3{fill:#94765A;}
	.st4{clip-path:url(#_x31__15_);fill:url(#_x33__10_);}
	.st5{clip-path:url(#_x31__15_);fill:url(#_x32__13_);}
	.st6{fill:#4A4340;}
	.st7{fill:url(#_x32_4_1_);}
	.st8{fill:#AD6547;}
	.st9{fill:url(#_x32_2_1_);}
	.st10{fill:url(#_x32_0_1_);}
	.st11{fill:url(#_x31_9_1_);}
	.st12{fill:url(#_x31_8_1_);}
	.st13{fill:url(#_x31_7_1_);}
	.st14{fill:#D6CBB7;stroke:#FFFFFF;stroke-miterlimit:10;}
	.st15{fill:#EFEBE3;stroke:#FFFFFF;stroke-linejoin:round;stroke-miterlimit:10;}
	.st16{fill:url(#_x31_5_1_);}
	.st17{fill:#EFEBE3;stroke:#FFFFFF;stroke-miterlimit:10;}
	.st18{clip-path:url(#_x31__16_);fill:#D6CBB7;stroke:#FFFFFF;stroke-miterlimit:10;}
	.st19{clip-path:url(#_x31__16_);fill:#735846;}
	.st20{opacity:0.6;fill:url(#_x31_2_1_);}
	.st21{fill:#FFFFFF;}
	.st22{clip-path:url(#_x31__17_);fill:#D17445;}
	.st23{clip-path:url(#_x31__17_);fill:url(#_x34__4_);}
	.st24{clip-path:url(#_x31__17_);fill:url(#_x33__11_);}
	.st25{clip-path:url(#_x31__17_);fill:#272624;}
	.st26{fill:#46433E;}
	.st27{fill:url(#_x34__5_);stroke:#EFEBE3;stroke-width:3;stroke-miterlimit:10;}
	.st28{fill:#7F7E7C;}
	.st29{fill:none;stroke:#6B6966;stroke-width:2;stroke-linecap:round;stroke-miterlimit:10;}
	.st30{fill:url(#_x31__18_);}
	.st31{fill:#D6CBB7;}
	.st32{fill:#94765A;stroke:#735846;stroke-miterlimit:10;}
</style>
<g id="_x31__13_">
	<g id="_x33__7_">
		<path id="_x34__3_" class="st0" d="M334.1,510.8l8,8.3l10.8-10.3L330.9,486l-10.1-79.6c-0.5-3.8-3.8-6.6-7.5-6.1l-0.6,0.1
			c-3.6,0.4-6.2,3.9-5.7,7.7l8.8,71.8H203l8.8-71.8c0.5-3.8-2.1-7.3-5.7-7.7l-0.6-0.1c-3.6-0.4-7,2.3-7.5,6.1L168.8,637
			c-0.6,4.4,2.2,8.3,6,8.8l0.6,0.1c3.9,0.5,7.5-2.7,8-7l17.3-141.1h117.2l17.3,141.1c0.5,4.4,4.1,7.5,8,7l0.6-0.1
			c3.9-0.5,6.6-4.5,6-8.8L334.1,510.8z"/>
		<linearGradient id="_x33__9_" gradientUnits="userSpaceOnUse" x1="264.5449" y1="688.993" x2="264.5449" y2="417.8749">
			<stop  offset="0.5764" style="stop-color:#735846"/>
			<stop  offset="0.8424" style="stop-color:#5D4837"/>
		</linearGradient>
		<path id="_x33__8_" class="st1" d="M381.7,679.1l-37.9-254.4c-0.6-4.2-4.9-7.2-9.6-6.8l-0.8,0.1c-4.7,0.5-8,4.3-7.4,8.5l11.4,79.2
			H191.6l11.4-79.2c0.6-4.2-2.7-8-7.4-8.5l-0.8-0.1c-4.7-0.5-9,2.5-9.6,6.8l-37.9,254.4c-0.7,4.8,2.8,9.2,7.8,9.7l0.8,0.1
			c5,0.6,9.7-2.9,10.4-7.8l22.4-155.6h151.5l22.4,155.6c0.7,4.8,5.3,8.3,10.4,7.8l0.8-0.1C379,688.3,382.5,683.9,381.7,679.1z"/>
		<path id="_x32__12_" class="st2" d="M369.7,415.6c0-2.5-0.6-5-1.7-7.4h0l0,0c-0.4-0.9-1-1.9-1.6-2.8l-3.9-6.9H360
			c-16.7-14-53.2-23.7-95.5-23.7s-78.8,9.7-95.5,23.7h-2.4c-0.2,0.5-2.1,3.8-3.6,6.4c-0.7,1.1-1.4,2.2-1.9,3.3c0,0,0,0,0,0h0
			c-1.1,2.4-1.7,4.9-1.7,7.4c0,0.4,0,0.8,0.1,1.3c0,0.4-0.1,0.8-0.1,1.2c0,22.5,47.1,40.8,105.2,40.8s105.2-18.3,105.2-40.8
			c0-0.4,0-0.8-0.1-1.2C369.7,416.5,369.7,416.1,369.7,415.6z"/>
		<ellipse id="_x31__12_" class="st3" cx="265" cy="406.2" rx="99.9" ry="35.5"/>
	</g>
	<g id="_x32__1_">
		<g id="_x32_6">
			<defs>
				<path id="_x31__11_" d="M0,612.2c6.9,4.5,58.6,37.2,110.6,16.4c50.4-20.1,66.9-76.8,70.2-88.2c13.2-45.5-4.2-68.7,14.9-109.1
					c11.4-24,28.9-39.8,41.8-49.3c-10.1-8.3-34.6-26-67.2-25.4c-45,0.8-84.3,36-98.6,73.1C48,491,98.9,540.2,71.7,580.8
					C55.7,604.9,22.5,610.7,0,612.2z"/>
			</defs>
			<clipPath id="_x31__15_">
				<use xlink:href="#_x31__11_"  style="overflow:visible;"/>
			</clipPath>
			<linearGradient id="_x33__10_" gradientUnits="userSpaceOnUse" x1="0" y1="496.0661" x2="237.5991" y2="496.0661">
				<stop  offset="0.2906" style="stop-color:#D17445"/>
				<stop  offset="0.8473" style="stop-color:#AD6547"/>
			</linearGradient>
			<path id="_x33__6_" class="st4" d="M0,612.2c6.9,4.5,58.6,37.2,110.6,16.4c50.4-20.1,66.9-76.8,70.2-88.2
				c13.2-45.5-4.2-68.7,14.9-109.1c11.4-24,28.9-39.8,41.8-49.3c-10.1-8.3-34.6-26-67.2-25.4c-45,0.8-84.3,36-98.6,73.1
				C48,491,98.9,540.2,71.7,580.8C55.7,604.9,22.5,610.7,0,612.2z"/>
			<linearGradient id="_x32__13_" gradientUnits="userSpaceOnUse" x1="76.4999" y1="671.2786" x2="21.0337" y2="575.2083">
				<stop  offset="0.1921" style="stop-color:#D6CBB7"/>
				<stop  offset="0.8621" style="stop-color:#FFFFFF"/>
			</linearGradient>
			<path id="_x32__11_" class="st5" d="M71,567.6c-3.2,9.3,2.8,19.5,10.6,25.4s17.5,8.9,26,13.9s16.4,12.9,16.7,22.7
				c0.4,12.2-10.9,21.5-22,26.5c-31.4,14.2-69.1,10.1-100-5.2c-12.5-6.2-25.4-16-26.5-29.9c-0.7-8.7,3.6-17.3,9.9-23.5
				s14.2-10.2,22.2-13.8c18.1-8,37.3-13.6,56.9-16.6"/>
		</g>
		<path id="_x32_5" class="st6" d="M339,413.5c-1.2,5.4-3.7,13-9.3,19.4c-0.8,1-1.6,1.8-2.3,2.4c-1.2,1.1-2.1,1.8-2.2,1.9
			c-3.3,2.6-17.6,79.8,3.8,98.5c2,1.8,7.3,6.4,13.4,4.4c0.9-0.3,4.7-1.5,7-5.8c2.1-4,1.5-8,1.4-8.8c-1.1-2.5-2.5-5.8-4-9.9
			c0,0-2.9-8.5-4.7-18.6c-1.9-10.8-2.9-29.5-0.6-53.4C340.6,433.5,339.8,423.5,339,413.5z"/>
		<linearGradient id="_x32_4_1_" gradientUnits="userSpaceOnUse" x1="320.8603" y1="345.7835" x2="320.8603" y2="452.2686">
			<stop  offset="0.2906" style="stop-color:#AD6547"/>
			<stop  offset="0.8818" style="stop-color:#735846"/>
		</linearGradient>
		<path id="_x32_4" class="st7" d="M304.5,345.8c29.7-0.2,76.6,12.2,82.2,41.2c6.7,34.8-49.9,72.5-68.2,64
			c-10.5-4.8-4.2-22.8-20.1-44.7C288,392,274.1,384,264.3,379.6c-3.3-7-6.5-14-9.8-21.1C264.2,353.4,281.9,345.9,304.5,345.8z"/>
		<path id="_x32_3" class="st8" d="M326.2,203c4.4,4.2,10.5,11,15.4,20.7c7.3,14.3,6,23.2,12.7,38.8c2.7,6.3,7.2,15,15.4,24.7
			c-3.3,9.7-6.5,19.4-9.8,29.1c-5-3.9-10.1-8.3-15.3-13.4c-15.2-14.9-25.6-30.2-32.8-43.3C316.6,240.7,321.4,221.8,326.2,203z"/>
		<linearGradient id="_x32_2_1_" gradientUnits="userSpaceOnUse" x1="283.3249" y1="181.4287" x2="283.3249" y2="425.8488">
			<stop  offset="0" style="stop-color:#AE6646"/>
			<stop  offset="0.7143" style="stop-color:#D17445"/>
			<stop  offset="1" style="stop-color:#D17445"/>
		</linearGradient>
		<path id="_x32_2" class="st9" d="M268.9,181.4c-4.8,2.2-9.6,4.3-14.4,6.5c0.6,29.4-3.1,52.1-6.3,66.7
			c-7.1,32.4-19.4,60.7-26.4,106.5c-1.5,9.7-3.5,25.6,5,40.8c1.6,2.9,7.4,12.9,19.2,19c26,13.6,55-5.2,63-10.4
			c7.2-4.7,18.3-11.8,19.7-23c0.4-3.3-0.5-7.9-2.3-17c-1.5-7.6-2.3-11.4-4.5-19.4c-6.7-24.5,25.8-71.8,24.2-118.5
			c-0.3-9.9-2.4-24.3-10.6-41.6C313.3,187.9,291.1,184.6,268.9,181.4z"/>
		<path id="_x32_1" class="st6" d="M268.3,448.8c0.7,5.1,0.8,12.6-2.6,19.9c-1.3,2.8-2.6,4.5-3,5.1c-9.9,14.5,20.8,90.6,52.5,89.8
			c1.8,0,10.1-0.3,12.6-5.6c2.1-4.4-0.4-11.3-6.1-17.6c-5.1-3.7-11.4-9-17.3-16.7C293,509.2,288.7,494,287,485.4
			C280.8,473.2,274.5,461,268.3,448.8z"/>
		<linearGradient id="_x32_0_1_" gradientUnits="userSpaceOnUse" x1="355.5417" y1="276.3224" x2="431.8137" y2="276.3224">
			<stop  offset="0.3103" style="stop-color:#AD6547"/>
			<stop  offset="0.7833" style="stop-color:#4A4340"/>
		</linearGradient>
		<path id="_x32_0" class="st10" d="M411.7,240.1c-0.9,1-2,2.4-2.8,4.5c-1.5,3.8-1.1,7.2-0.8,8.7c-3.2,6-6.6,10.1-9,12.7
			c-3.5,3.7-8.1,7.5-28.9,18.9c-5.3,2.9-9.6,5.2-12.6,6.7c-0.8,1.5-2.8,6-1.8,11.7c0.8,4.9,3.3,8.1,4.5,9.5
			c6.9-1.5,12.2-3.7,15.9-5.5c13.8-6.7,16.8-14.5,38.4-39.3c13.2-15.3,18.7-19.9,16.9-23.9C429.4,239.4,418.8,239.5,411.7,240.1z"/>
		<linearGradient id="_x31_9_1_" gradientUnits="userSpaceOnUse" x1="285.6056" y1="488.008" x2="285.6056" y2="367.0789">
			<stop  offset="0.1232" style="stop-color:#735846"/>
			<stop  offset="0.7389" style="stop-color:#D17445"/>
		</linearGradient>
		<path id="_x31_9" class="st11" d="M261.2,367.1c32.5-0.9,81.7,14.3,87.7,46.8c7.2,39.5-53.2,82.3-72.7,72.7
			c-11.7-5.7-1.3-28.8-21.4-50.8c-8.4-9.2-17.1-12.3-24.9-25.9c-5.1-8.8-7.1-17.2-8-22.9c3.2-4.8,6.3-9.6,9.5-14.4
			C238.1,370.2,248.5,367.5,261.2,367.1z"/>
		<linearGradient id="_x31_8_1_" gradientUnits="userSpaceOnUse" x1="246.9237" y1="191.1357" x2="246.9237" y2="316.2361">
			<stop  offset="0.1773" style="stop-color:#AE6646"/>
			<stop  offset="0.7143" style="stop-color:#D17445"/>
		</linearGradient>
		<path id="_x31_8" class="st12" d="M261.7,193.3c-4.1-2.3-7.1-2.3-9-2c-9.3,1.7-12.5,15.7-24.9,50.7c-0.8,2.1-2.6,7.4-4.3,14.7
			c-0.6,2.6-1.2,5.4-1.7,8.4c-2.3,14.1-5.9,36.3,4,46.2c1.9,1.9,6.7,5.8,16.4,4.7c4.6-8.1,9.3-16.2,13.9-24.3c-0.4-3-1-7.5-1-13
			c-0.1-12.3,2.4-21.6,9-42.6c3.6-11.5,7.1-22.1,10.5-32C270.3,200.5,266,196.9,261.7,193.3z"/>
		
			<linearGradient id="_x31_7_1_" gradientUnits="userSpaceOnUse" x1="527.8182" y1="482.1957" x2="678.5729" y2="482.1957" gradientTransform="matrix(0.9895 -0.1447 0.1447 0.9895 -365.7299 -80.3096)">
			<stop  offset="2.463054e-002" style="stop-color:#D17445"/>
			<stop  offset="0.3103" style="stop-color:#AD6547"/>
			<stop  offset="0.7882" style="stop-color:#272624"/>
		</linearGradient>
		<path id="_x31_7" class="st13" d="M345.8,336c0.3-0.4,0.6-0.7,1-1.1c1.2-1.3,2.4-2.5,2.7-4.3c0.7-4.2-2-9.3-6.4-9.4
			c-0.1,0.2-0.1,0.4-0.2,0.6c-7-0.5-14.7-1.5-22.8-3.4c-28.1-6.5-48.7-20-61.7-30.5c-0.7-0.4-1.5-0.8-2.2-1.2
			c-0.3-0.4-0.6-0.8-0.9-1.3c-0.4-0.8-0.7-1.5-0.8-2.1c-0.5,0.4-1.2,0.9-2.1,1.5c-5.8,3.3-10.3,0-15.9,1.2
			c-5.9,1.2-11.4,7-12.5,13.4c-0.9,5.5,1.7,10,2.7,11.5c1,1.2,2.6,3,4.8,4.8c8.9,7.5,19,8.9,23.8,9.6c42.7,6.4,55.4,7.9,80.6,10.9
			C340.4,336.7,343.6,336.5,345.8,336z"/>
		<g id="_x31_6">
			<ellipse id="_x32__10_" class="st14" cx="362.4" cy="301.7" rx="36.2" ry="2.8"/>
			<path id="_x31__10_" class="st15" d="M398.6,301.7c-1.8,1.5-4.4,3.5-7.8,5.4c-10,5.5-19.4,5.7-28.4,5.8
				c-8.8,0.1-17.2,0.2-26.6-4.5c-4.3-2.2-7.6-4.7-9.6-6.6c10.1,1.9,22.4,3.3,36.5,3.3C376.9,305,389.1,303.4,398.6,301.7z"/>
		</g>
		<linearGradient id="_x31_5_1_" gradientUnits="userSpaceOnUse" x1="299.0071" y1="264.5134" x2="299.0071" y2="138.8779">
			<stop  offset="0.3103" style="stop-color:#FFFFFF"/>
			<stop  offset="0.7783" style="stop-color:#EFEBE3"/>
		</linearGradient>
		<path id="_x31_5" class="st16" d="M238.7,185.8c1.2-6.5,4.1-16.9,12-26.9c3-3.8,6-6.8,8.9-9.1c-1.4-6.8-0.3-9.3,1.1-10.3
			c4.1-3.1,12.4,6.2,25,5.7c5.5-0.2,9.9-2.1,12.9-3.8c9.4,5,16,10.3,20.3,14.3c4.4,4,6.9,7.1,12.3,11.1c5.9,4.4,11.5,7,15.3,8.5
			c-0.2,3-0.4,6.1-0.6,9.1c1.8-1.8,3.7-3.7,5.5-5.5c0.7,2.3,1.3,4.6,2,7c2.6,4.3,6,11.5,6,20.4c0,7.1-2.1,13-9,25.4
			c-4.8,8.7-11.6,20.1-20.9,32.9c-6.7-8.7-12.6-15.4-16.9-19.9c-4.3-4.6-6.5-6.6-7.5-7.5c-6.9-6-11.9-8-23.9-20.1
			c-10.5-10.6-13.5-15.7-23.5-22.2C250.3,190,243.4,187.3,238.7,185.8z"/>
		<g id="_x31_4">
			<path id="_x32__9_" class="st6" d="M338.6,324.8c2-9.3,15-12,16.9-12.4c7.4-1.5,17.4-0.7,18.8,3.4c0.3,1,0.1,1.9-0.2,2.6
				c-1.5,4.9-7.2,6.3-14.3,9.6c-11.9,5.6-14,10-17.4,8.4C338.9,334.9,337.7,329.1,338.6,324.8z"/>
			<path id="_x31__9_" class="st6" d="M364.8,325.7c-0.9-0.9-2.1-2.4-2.6-4.6c-1.3-6,4-14.1,10.8-14.3c4.6-0.1,7.9,3.4,8.7,4.2
				c1.1-0.3,2.1-0.6,3.2-0.8c-0.2,0.7-0.6,1.6-1.2,2.7c-1.1,2-2.3,3.5-4.6,5.8c-3.6,3.6-5.5,5.4-7.3,6.1
				C370.4,325.4,368.1,326.1,364.8,325.7z"/>
		</g>
		<g id="_x31_3">
			<path id="_x33__4_" class="st17" d="M410,215.2h-57.5c-0.1,0.9-0.2,1.9-0.2,2.8c0,4.9,1.5,9.6,4,13.5c0.9,2.5,2.2,5.4,4.2,8.4
				c3.2,4.9,6.8,8,8.8,9.5c1.4,1.1,2.7,1.9,3.7,2.5c0.6,1.2,4,2.1,8.1,2.1c4,0,7.4-0.9,8.1-2c1-0.6,2.4-1.5,3.9-2.6
				c2-1.5,5.6-4.6,8.8-9.5c2-3,3.3-5.9,4.2-8.4c2.5-4,4-8.6,4-13.5C410.2,217.1,410.1,216.1,410,215.2z"/>
			<g id="_x32__7_">
				<defs>
					<ellipse id="_x31__8_" cx="381.2" cy="215.2" rx="28.9" ry="6.3"/>
				</defs>
				<clipPath id="_x31__16_">
					<use xlink:href="#_x31__8_"  style="overflow:visible;"/>
				</clipPath>
				<ellipse id="_x33__5_" class="st18" cx="381.2" cy="215.2" rx="28.9" ry="6.3"/>
				<ellipse id="_x32__8_" class="st19" cx="381.2" cy="223" rx="25.3" ry="6.3"/>
				<use xlink:href="#_x31__8_"  style="overflow:visible;fill:none;stroke:#FFFFFF;stroke-miterlimit:10;"/>
			</g>
			<path id="_x31__7_" class="st17" d="M407.9,223.3c4.4-1.9,9-1.6,11.3,0.8c3.5,3.7,0.6,11.2-3.3,14.6c-4.5,3.9-11.4,3.5-12,3.5
				c-4-0.3-6.3-1.9-8.3-0.3c-1.2,0.9-1.9,2.7-1.5,4.3c0.4,1.6,1.8,3,3.7,3.2c2.1,0.1,3.4-1.5,3.5-1.7c9.7,0.7,18.4-3.3,22.1-10.3
				c2.1-4,4.3-12.3-0.7-16.8c-3.3-2.9-8.6-3.2-13.6-1C408.7,220.9,408.3,222.1,407.9,223.3z"/>
		</g>
		<linearGradient id="_x31_2_1_" gradientUnits="userSpaceOnUse" x1="384.9025" y1="111.4903" x2="384.9025" y2="220.4046">
			<stop  offset="0.2118" style="stop-color:#FFFFFF;stop-opacity:0"/>
			<stop  offset="0.8621" style="stop-color:#FFFFFF"/>
		</linearGradient>
		<path id="_x31_2" class="st20" d="M373.1,216.1c-5.2-1.8-9.9-5.9-10.9-11.3c-1-5.4,3-11.6,8.5-11.6c-8-2.7-12.1-13.3-8-20.6
			c2.7-4.9,8-7.8,12.5-11.2c4.5-3.4,8.7-8.4,7.9-14c-0.6-3.8-3.4-6.8-5.2-10.3c-4.5-8.8-0.7-20.9,8.1-25.5
			c-4.5,2.3-7.2,7.8-6.3,12.8c2.2,12.1,20.9,15.4,23.3,27.5c1.2,6.1-3.2,12.8-9.3,14.1c4.2-2.3,9.9-0.5,12.8,3.4
			c2.9,3.9,3.1,9.3,1.3,13.7c-1.8,4.5-5.3,8.1-9.2,10.8c2.9-0.9,6.5,0.1,7.8,2.8c1.3,2.7-1.3,6.6-4.2,5.9c2.7,3.5,1.3,8.9-1.9,12
			c-3.2,3-7.7,4.2-12.1,5.1c-3.1,0.6-6.3,1.1-9.4,0.6s-6.1-2.4-7.3-5.4"/>
		<g id="_x31_1">
			<g id="_x33__2_">
				<path id="_x32__6_" class="st21" d="M329.9,82c4.8-10.6,12.5-16.1,17.6-14.5c1,0.3,3,1.2,4.8,4.5c2.9-7.4,6.5-18.7,7.4-32.8
					c1-16.2-1.3-37.4-6.6-38.3c-5.1-0.9-13.3,24.4-14.4,27.7C331.9,49.8,330.1,68.6,329.9,82z"/>
				<path id="_x31__6_" class="st8" d="M352.3,0.1c-1.1-0.9-10.6,8.8-17.5,17c-11.4,13.4-17.1,20.1-20.6,29.9c0,0-7.5,21.3,4.3,46.9
					c1,2.3,2.4,2.8,2.7,2.9c2.5,0.9,5.4-1.7,5.8-2c2.1-1.9,1.9-3.4,3.7-7.4c1.5-3.3,1.8-2.6,5-8.5c2.3-4.1,3.5-6.2,3.9-8.5
					c0.8-4.2-0.2-7.6-0.6-8.9c-2.8-10.3-0.5-22.3,1-29.9c0.8-4.3,2.4-12.3,7-21.5C350.1,4,352.9,0.5,352.3,0.1z"/>
			</g>
			<g id="_x32__3_">
				<defs>
					<path id="_x31__5_" d="M225.7,134c29.2,9.2,50.9,20.5,65.6,29.3c20.2,12.1,42.3,28.8,65.5,26c2.6-0.3,13.7-1.6,15.2-7.1
						c1-3.4-2.2-6.3-5.9-12.5c-2.6-4.3-5.9-10.9-8.1-20.2c3.3-9.4,6.6-18.9,9.8-28.5c2.3-6.7,4.6-13.4,6.8-20.1c-4.1-3-8.1-6-12.2-9
						c-0.7-5.8-2.7-14.7-8.6-23.7c-12.3-18.7-36.2-28.8-56.9-25.8c-27.9,4.1-43.2,31.3-55.9,53.7C232.5,111.2,228.1,124.9,225.7,134
						z"/>
				</defs>
				<clipPath id="_x31__17_">
					<use xlink:href="#_x31__5_"  style="overflow:visible;"/>
				</clipPath>
				<path id="_x35__2_" class="st22" d="M225.7,134c29.2,9.2,50.9,20.5,65.6,29.3c20.2,12.1,42.3,28.8,65.5,26
					c2.6-0.3,13.7-1.6,15.2-7.1c1-3.4-2.2-6.3-5.9-12.5c-2.6-4.3-5.9-10.9-8.1-20.2c3.3-9.4,6.6-18.9,9.8-28.5
					c2.3-6.7,4.6-13.4,6.8-20.1c-4.1-3-8.1-6-12.2-9c-0.5-5.9-2.2-15.2-8-24.6c-11.6-18.8-34.9-30.2-55.6-27.7
					C270.3,43,254.3,71.9,241,96.2C232.8,111.1,228.2,124.6,225.7,134z"/>
				
					<linearGradient id="_x34__4_" gradientUnits="userSpaceOnUse" x1="427.6883" y1="128.2412" x2="455.3898" y2="176.2216" gradientTransform="matrix(0.9994 -3.333693e-002 3.333693e-002 0.9994 -69.4786 -21.9934)">
					<stop  offset="0.2118" style="stop-color:#FFFFFF;stop-opacity:0"/>
					<stop  offset="0.7488" style="stop-color:#EFEBE3"/>
				</linearGradient>
				<path id="_x34__2_" class="st23" d="M362.4,91.8c0.6,3.6,1.1,8.8,0.4,15c-1.3,11.7-5.7,16.5-6.4,27.5c-0.2,3.7-0.1,8.8,1.6,15.2
					c13.7-5.1,27.5-10.2,41.2-15.3l-4.1-54L362.4,91.8z"/>
				
					<linearGradient id="_x33__11_" gradientUnits="userSpaceOnUse" x1="295.6313" y1="135.4068" x2="414.17" y2="253.9455" gradientTransform="matrix(0.9994 -3.333693e-002 3.333693e-002 0.9994 -69.4786 -21.9934)">
					<stop  offset="0.2118" style="stop-color:#FFFFFF;stop-opacity:0"/>
					<stop  offset="0.734" style="stop-color:#EFEBE3"/>
				</linearGradient>
				<path id="_x33__3_" class="st24" d="M363.1,188.1c-4.1-2.4-8.5-5.4-12.9-9.1c-15.2-12.8-23-27.9-27.1-38
					c-1.7-0.4-4.3-0.9-7.3-1.3c-3.2-0.5-9.6-1.3-16.6-0.7c-6.1,0.6-10.3,2.1-12.3,2.7c-13.4,3.9-40.8-2.4-47.8-20.9
					c-5.9-15.7,5.8-32.1,7.4-34.3c-12.8,15-25.6,30.1-38.4,45.1l76.1,60.3l73.5,21.1L363.1,188.1z"/>
				<path id="_x32__5_" class="st25" d="M370.5,176.6c-1.4,0.8-3.2,1.6-5.2,2.2c-6,1.8-11.2,0.8-13.9,0c0.2,2,0.3,4,0.5,6
					c1.6,1.7,3.2,3.5,4.7,5.2c9.3-1,15.5-5.1,15.7-9.2C372.3,180,372.1,178.5,370.5,176.6z"/>
			</g>
			<g id="_x31__3_">
				<path id="_x32__4_" class="st21" d="M255.6,84.2c4.5-6.4,10.8-14,19.6-21.3c3.8-3.1,7.5-5.8,11-8c0-3.2-0.1-7.9-0.8-13.6
					c-2.1-16.4-9.1-39.6-16.6-39.5c-5.2,0-9.9,11.4-11.5,17.9c-1.1,4.8-1,8.5-1,9.5C256.6,39.8,256.3,58.5,255.6,84.2z"/>
				<path id="_x31__4_" class="st8" d="M266.7,2.3c-1.1-0.7-18.4,17.2-25.9,43.3c0,0-7.6,26.5,3.3,50.4c0.3,0.6,1.1,2.3,2.7,2.9
					c2.5,0.9,5.4-1.7,5.8-2c2.1-1.9,1.9-3.4,3.7-7.4c1.5-3.3,1.8-2.6,5-8.5c2.3-4.1,3.5-6.2,3.9-8.5c0.8-4.1-0.2-7.4-0.6-8.9
					c-2-7.3-8.6-31-3-49.8C264,6.3,267.2,2.6,266.7,2.3z"/>
			</g>
		</g>
		<path id="_x31_0" class="st26" d="M407.8,228.3c-0.6-1.1-1-2.3-0.5-3.5c2-5.7,17.3-9.7,23-3.7c1.2,1.3,1.7,2.8,2,3.8
			c0.3,0.2,2.8,2.2,2.8,5.6c0,3.1-2.2,5-2.5,5.2c0.2,0.8,0.4,2.2-0.2,3.5c-1.2,2.5-4.4,3-5.9,3.3c-5,0.9-7.1-1.4-12.8-1.5
			c-3-0.1-5.5,0.5-7,1c-0.3-0.8-0.7-2.1-0.8-3.6c-0.1-1.5,0.1-2.8,0.3-3.7c-0.2-0.6-0.4-1.5-0.3-2.4
			C406.1,230.4,407.2,229,407.8,228.3z"/>
		<path id="_x39_" class="st26" d="M431,248.9c-4.7-2.2-6.2-7.2-4.7-10.2c1.1-2.4,3.9-3.3,4.6-3.5c0.6,1.4,1.9,2,3.1,1.5
			c1.3-0.6,1.9-2.1,2-2.2c3.6-3.3,8-4.5,11.5-2.9c3.6,1.6,4.7,5.5,5,6.4c0.9,0.2,1.8,0.3,2.7,0.5c-0.4,0.4-1.1,1-1.9,1.6
			c-1.5,1.2-3,1.9-5.7,2.8c-3.9,1.4-5.9,1.6-7.8,2.1C437.8,245.6,434.7,246.7,431,248.9z"/>
		<path id="_x38_" class="st8" d="M324.1,134.4c0.7-9.6,1-19.8,0.7-30.5c-0.1-2.4-0.2-4.7-0.3-7c-8.8-6.5-20.7-7-29.6-1.3
			c-7.7,4.9-12.1,13.9-11.6,23.2c8.5,2.6,14.4,6.1,18.3,9c4.1,3,7.3,6.3,12.9,7.3C318.3,135.7,321.7,135.1,324.1,134.4z"/>
		<path id="_x37_" class="st8" d="M352.4,129.9c-0.4-11.7-0.7-23.4-1.1-35.1c2.6-3.1,4.2-3.1,5-3c3.1,0.6,4.9,7.2,5,16.6
			c-0.6,3.5-1.8,8-4,12.9C355.7,124.8,354,127.7,352.4,129.9z"/>
		<path id="_x36_" class="st0" d="M323.7,140.9c0.6-4.7,0.9-9.8-0.3-10.1c-0.7-0.2-1.1,1.2-2.3,2c-4.3,3-13.2-5-25.6-10.1
			c-3.1-1.3-7.6-2.8-13.2-3.7c3.3,1.6,8.3,4.3,14.2,8.9c5.2,4,7,6.3,11,8.7C310.9,138.6,316.2,141,323.7,140.9z"/>
		<path id="_x35__1_" class="st0" d="M351.4,136.9c0.4-8.1,0.8-14.6,1.3-15.3c0.2-0.4,0.3,1.1,0.7,1.7c1.4,2.6,4.2-7.9,7-13.5
			c0.6-1.1,1.4-2.5,2.4-3.6c-0.5,1.1-1.3,3.3-2.2,7.2c-1,4.3-1.4,7-2.5,10.8C356.9,128.2,354.7,133.9,351.4,136.9z"/>
		<linearGradient id="_x34__5_" gradientUnits="userSpaceOnUse" x1="301.4421" y1="121.0185" x2="326.2559" y2="145.8323">
			<stop  offset="0.2118" style="stop-color:#FFFFFF;stop-opacity:0"/>
			<stop  offset="0.4187" style="stop-color:#EFEBE3;stop-opacity:0.7"/>
			<stop  offset="0.5025" style="stop-color:#EFEBE3;stop-opacity:0"/>
			<stop  offset="0.6749" style="stop-color:#EFEBE3;stop-opacity:0.7"/>
			<stop  offset="0.8571" style="stop-color:#EFEBE3;stop-opacity:0.5"/>
		</linearGradient>
		<ellipse id="_x34__1_" class="st27" cx="313.8" cy="133.4" rx="14.7" ry="20"/>
		<rect id="_x33__1_" x="296.1" y="131.6" class="st28" width="3.1" height="6.6"/>
		<path id="_x32__2_" class="st29" d="M298,138.5c-1.4,57.5-5.2,116.3-15.4,117c-1.3,0.1-2.4-0.7-4-2c-11.9-9.2-11.6-26.9-11-34.9
			c0-4.5-0.5-10.4-2.5-16.9c-0.8-2.7-1.8-5.2-2.8-7.3"/>
		<linearGradient id="_x31__18_" gradientUnits="userSpaceOnUse" x1="260.9779" y1="264.5134" x2="260.9779" y2="138.8779">
			<stop  offset="0.3103" style="stop-color:#FFFFFF"/>
			<stop  offset="0.7783" style="stop-color:#EFEBE3"/>
		</linearGradient>
		<path id="_x31__2_" class="st30" d="M282.3,218.1c0.3-1.2,0.5-2.5,0.6-3.5c0.4-3.7,0.3-7.5,0.3-11.3c-0.1-3.6,0.1-7.3-0.1-10.8
			c-0.3-4.8-1.9-9.3-3.5-13.8c-0.6-1.2-1.3-2.5-1.8-3.8c-11.5-2.1-23.5-2.4-34.9-0.3c-0.3,0.1-0.6,0.1-0.9,0
			c-1.6,4.3-2.6,8.2-3.1,11.2c4.7,1.5,11.5,4.2,18.9,9c10,6.4,13,11.6,23.5,22.2C281.5,217.3,281.9,217.7,282.3,218.1z"/>
	</g>
	<g id="_x31_">
		<polygon id="_x35_" class="st2" points="181.3,689 215.2,671.4 340.7,671.4 306.8,689 		"/>
		<path id="_x34_" class="st31" d="M302.3,689c11.4-5.8,22.9-11.7,34.3-17.5c-0.8-2.4-1.7-6.1-1.5-10.7c0.2-4.1,1.1-7.4,1.9-9.7
			c-11.6,5.9-23.2,11.7-34.7,17.6c-0.9,2.4-2,6.3-1.8,11.2C300.7,683.8,301.5,686.9,302.3,689z"/>
		<path id="_x33_" class="st32" d="M306.8,689H181.3c-0.9-1.9-2.2-5.3-2.2-9.7c-0.1-4.9,1.3-8.6,2.2-10.6c41.8,0,83.7,0,125.5,0
			c-0.9,2.3-2,6.1-1.9,10.9C305,683.6,306,686.9,306.8,689z"/>
		<polygon id="_x32_" class="st2" points="181.8,668.7 215.7,651.1 341.2,651.1 307.3,668.7 		"/>
		<path id="_x31__1_" class="st32" d="M181.3,668.7l9.4-4.7c41.8,0,83.5,0,125.3,0c-3,1.5-6,3.1-9,4.6
			C265.2,668.6,223.2,668.7,181.3,668.7z"/>
	</g>
</g>
</svg>
