<?xml version="1.0" encoding="utf-8"?>
<!-- Generator: Adobe Illustrator 19.0.1, SVG Export Plug-In . SVG Version: 6.00 Build 0)  -->
<svg version="1.1" id="Слой_1" xmlns="http://www.w3.org/2000/svg" xmlns:xlink="http://www.w3.org/1999/xlink" x="0px" y="0px"
	 viewBox="-446 56 355.7 429.7" style="enable-background:new -446 56 355.7 429.7;" xml:space="preserve">
<style type="text/css">
	.st0{clip-path:url(#SVGID_2_);}
	.st1{fill:#94765A;}
</style>
<g>
	<defs>
		<rect id="SVGID_1_" x="-446" y="56" width="355.7" height="429.7"/>
	</defs>
	<clipPath id="SVGID_2_">
		<use xlink:href="#SVGID_1_"  style="overflow:visible;"/>
	</clipPath>
	<g class="st0">
		<path class="st1" d="M-267-75.2c-12.4-9.6-3.1-19.6,0-28.7C-263.9-94.8-254.7-84.8-267-75.2L-267-75.2z"/>
		<path class="st1" d="M-236.8-58.1c-3.4-8.8,1-13.7,9-16.7C-229.8-70.2-226.2-59.4-236.8-58.1L-236.8-58.1z"/>
		<path class="st1" d="M-297.7-58.1c-10.6-1.3-7-12-9-16.7C-298.7-71.8-294.3-66.9-297.7-58.1L-297.7-58.1z"/>
		<path class="st1" d="M-250.3-64.4c-2.8-0.5-5.1-0.1-7.3,0.4c-0.4-2-1.2-3.9-2.9-5.6C-257.9-78-244.6-72.7-250.3-64.4L-250.3-64.4z
			"/>
		<path class="st1" d="M-274.1-69.7c-1.6,1.8-2.5,3.7-2.9,5.6c-2.2-0.5-4.5-0.9-7.3-0.4C-289.9-72.7-276.6-78-274.1-69.7
			L-274.1-69.7z"/>
		<path class="st1" d="M-260.6-60.1c-1.9-1-4.3-1.4-6.7-1.3c-2.4-0.1-4.7,0.4-6.7,1.3c-2.2-5.5,2.2-9.2,6.7-9.2
			C-262.8-69.2-258.4-65.6-260.6-60.1L-260.6-60.1z"/>
		<path class="st1" d="M-245.9-32c-8.7,1.7-13.9,8.2-16.2,17.4c1.2-14.6,10.1-23,23.3-27.9c-13.8,3.2-23.4,12.3-25.6,29.1
			c-0.1-16,4.4-30.2,22.2-35.9c10.7-3,16.3-7.7,18.3-14C-219-46.1-229.5-34.6-245.9-32L-245.9-32z"/>
		<path class="st1" d="M-292.3-49.2c17.8,5.7,22.3,19.9,22.2,35.9c-2.3-16.8-11.8-26-25.6-29.1c13.2,4.9,22.1,13.3,23.3,27.9
			c-2.2-9.2-7.5-15.7-16.2-17.4c-16.4-2.5-26.9-14-22-31.2C-308.6-57-303-52.2-292.3-49.2L-292.3-49.2z"/>
		<path class="st1" d="M-254.9-50.8c-0.1-2.9-1.2-5.6-3.6-8.3C-248.5-70-238.2-52.9-254.9-50.8L-254.9-50.8z"/>
		<path class="st1" d="M-276-59.1c-2.4,2.7-3.5,5.4-3.6,8.3C-296.3-52.9-286-70-276-59.1L-276-59.1z"/>
		<path class="st1" d="M-258.6-50.5c0,4.4-3.9,8.1-8.6,8.1h-0.2c-4.8,0-8.6-3.6-8.6-8.1c0-4.4,3.9-8.1,8.6-8.1c0,0,0,0,0.1,0h0.1
			C-262.4-58.5-258.6-54.9-258.6-50.5L-258.6-50.5z"/>
		<path class="st1" d="M-211.7-39.9c0,2.3-2,4.2-4.5,4.2s-4.5-1.9-4.5-4.2s2-4.2,4.5-4.2C-213.7-44.1-211.7-42.2-211.7-39.9
			L-211.7-39.9z"/>
		<path class="st1" d="M-313.8-39.9c0,2.3-2,4.2-4.5,4.2s-4.5-1.9-4.5-4.2s2-4.2,4.5-4.2C-315.8-44.1-313.8-42.2-313.8-39.9
			L-313.8-39.9z"/>
		<path class="st1" d="M-194.1-7.2c0,0.2,0.1,0.4,0.1,0.6c9.1,2.2,11.4,8.5,10.4,15.1c-0.8,3.5-0.7,6.2,1.4,9.9
			c-8.4-1.2-13-4.7-12.7-11.5c-5.9,15.8-28.7,19.9-35.2,5c-1.4-3.5-0.9-9.4,4.7-11.2c9.2-2.6,14.5,8.8,5,11.8
			c10.3,5.4,25.3-4.8,22.2-20.7c-2.2,4.8-6.3,7.6-10.4,7.7c3.9-9.3-2.6-17.5-16.7-20.1c7.7,4.7,1,15-10.4,12.2
			c-18-2.2-27.1,16-29.8,33.1C-273-27.8-205.3-47-194.1-7.2L-194.1-7.2z"/>
		<path class="st1" d="M-269.1,24.9c-2.7-17.1-11.8-35.3-29.8-33.1c-11.4,2.8-18.1-7.5-10.4-12.2c-14.1,2.6-20.5,10.7-16.7,20.1
			c-4.1-0.1-8.2-2.9-10.4-7.7c-3.1,15.9,11.9,26.1,22.2,20.7c-9.5-3-4.2-14.4,5-11.8c5.6,1.8,6.1,7.7,4.7,11.2
			c-6.7,15.3-30.7,10.6-35.7-6.5c1.3,7.8-3.4,11.7-12.2,13c2-3.7,2.2-6.4,1.4-9.9c-1-6.7,1.4-12.9,10.4-15.1c0-0.2,0.1-0.4,0.1-0.6
			C-329.3-47-261.5-27.8-269.1,24.9L-269.1,24.9z"/>
		<path class="st1" d="M-260.3,24.7c1.9-11.8,10.1-20.3,21.2-25.5C-244.9,8.9-248.7,20-260.3,24.7L-260.3,24.7z"/>
		<path class="st1" d="M-274.2,24.7c-11.6-4.7-15.5-15.8-21.2-25.5C-284.3,4.4-276.1,12.9-274.2,24.7L-274.2,24.7z"/>
		<path class="st1" d="M-345.3,9.4c1.9-1.8,3.5-3.8,4.6-5.9c-0.2-1.2-0.4-2.4-0.4-3.7C-342,2.6-343.4,5.7-345.3,9.4L-345.3,9.4z"/>
		<path class="st1" d="M-193.8,3.4c1.1,2.2,2.7,4.1,4.6,5.9c-1.9-3.6-3.3-6.8-4.2-9.6C-193.4,1.1-193.6,2.3-193.8,3.4L-193.8,3.4z"
			/>
		<path class="st1" d="M-166.8,18.7c-12.9,5.5-10.1-6.2-12.7-9.8C-167.1,8.9-169.9,15.8-166.8,18.7L-166.8,18.7z"/>
		<path class="st1" d="M-355,8.9c-2.6,3.6,0.2,15.3-12.7,9.8C-364.6,15.8-367.4,8.9-355,8.9L-355,8.9z"/>
		<path class="st1" d="M-251.2,59.7c-7.1,4.7-10.7,9.7-12.4,14.8c-0.5-15.7,15.6-25.7,16.9-40.1c-4,13.9-14.3,19.4-17.1,29.5
			c-4.2-15.9-0.9-28,7.3-37.5c-1.4,4.6-1.2,9.3,0.1,14.1c0.7-8.7,6.2-16.5,16.7-23.2C-233.5,37.5-238.5,51.7-251.2,59.7L-251.2,59.7
			z"/>
		<path class="st1" d="M-278.2,40.5c1.2-4.8,1.5-9.5,0.1-14.1c8.3,9.5,11.5,21.6,7.3,37.5c-2.8-10.1-13.1-15.6-17.1-29.5
			c1.3,14.3,17.4,24.3,16.9,40.1c-1.7-5.1-5.3-10.1-12.4-14.8c-12.7-8.1-17.7-22.2-11.6-42.5C-284.4,24-278.9,31.8-278.2,40.5
			L-278.2,40.5z"/>
		<path class="st1" d="M-221.5,27.4c0,2-1.8,3.7-4,3.7s-4-1.7-4-3.7s1.8-3.7,4-3.7C-223.2,23.7-221.5,25.3-221.5,27.4L-221.5,27.4z"
			/>
		<path class="st1" d="M-305.1,27.4c0,2-1.8,3.7-4,3.7c-2.2,0-4-1.7-4-3.7s1.8-3.7,4-3.7C-306.9,23.7-305.1,25.3-305.1,27.4
			L-305.1,27.4z"/>
		<path class="st1" d="M-167.6,31.3c-10.5,0.7-18.8,6-22.9,16.3c-4.1,8.7-11.7,14.9-25.9,16.6c3.1,1.5,7,2.5,13.5,1.6
			c-7.3,6.4-16.7,10.7-32.5,10.3c-7.3-0.3-14.1,1.8-20,6h-0.1c-3.3,2.3-6.2,5.3-8.8,8.9c1.2-3.2,2.9-6.1,5-8.9l0,0
			c7.6-10.1,20.3-17.5,34.1-21.6c20-5.6,25-19.1,32.4-26c-9.1,5.9-16.2,19.2-32.7,24.2C-241,63-253.3,71.8-261,82.1l0,0
			c-1.4,1.9-2.6,3.7-3.7,5.7c0.3-1.7,0.8-3.6,1.6-5.7l0,0c2.7-6.7,8.4-14.7,19.1-20.8C-231.5,55-221.4,42-216.3,28
			c1.1,3.2,1.8,6.6,1.6,10.6C-203.3,24.2-185.4,19-167.6,31.3L-167.6,31.3z"/>
		<path class="st1" d="M-319.9,38.5c-0.2-4,0.5-7.4,1.6-10.6c5.1,14,15.3,26.9,27.8,33.3c10.6,6.1,16.4,14.2,19.1,20.8l0,0
			c0.8,2.1,1.3,4,1.6,5.7c-1.1-1.9-2.3-3.8-3.6-5.7l0,0c-7.7-10.3-20-19.1-35.5-23.4c-16.5-5-23.6-18.4-32.7-24.2
			c7.4,6.9,12.4,20.4,32.4,26c13.7,4.1,26.5,11.5,34.1,21.6h0.1c2.1,2.8,3.8,5.8,5,8.9c-2.6-3.6-5.6-6.6-8.8-8.9h-0.1
			c-5.9-4.2-12.8-6.3-20-6c-15.8,0.4-25.2-3.9-32.5-10.3c6.5,0.9,10.4-0.1,13.5-1.6c-14.1-1.7-21.7-7.9-25.9-16.6
			c-4-10.2-12.4-15.6-22.9-16.3C-349.1,19-331.2,24.2-319.9,38.5L-319.9,38.5z"/>
		<path class="st1" d="M-137.4,59.7c1.9-1.4,3.3-3.1,4.3-5.1c1.2,10-1.4,17.4-6.6,23c10.7-4.4,15.9,4.3,23.6,4.3l-0.1,0.1h-0.1
			c-7.4,7.4-15.7,10.6-25.5,6.3c2.6,2.7,3.9,5.8,3.8,9.5c-5.7,0.1-9.7-1.3-13.3-3.3c4.1,4.2,4.8,9,3.6,14.2c-3.7-1.7-7.7-3-14.8-2.1
			c-5.4,0.9-9.8-0.1-13.3-2.3c1.8,3.4,3.1,7.1,3.8,11.1c3.9,35.7-52.9,31-43.9,2.6c2.9-7.6,13.2-8.3,15.8-1.2
			c1.9,5.7-5.4,9.9-8.9,5.8c-2.1,20.1,22.8,21.2,29.5,6.2c-4.5,4.3-10.5,5.5-17.9,3.6c1.2-7.5,15.6-6.7,12.5-22.6
			c-1.1,2.1-3.2,3.3-5.6,4.1c2.2-8,0.8-19.1-11-24.9c12.2,9.3-5.4,24.5-15.8,7.8c-8.6-10.8-24.4-9.8-37-2.4
			c10.2-10.1,29.3-11.2,43.6-1.9c-16.6-12.9-38.2-8.3-52.5,5.1c4.6-7.4,11.2-12.5,18.7-15.6h0.1c12.5-5.1,27.6-4.7,40.8,0h0.2
			c1.9,0.7,3.8,1.5,5.7,2.4c0-0.8,0-1.6,0.1-2.4l0,0c0.5-8.4,3.4-15.1,17.5-14c-2.2,2.8-0.9,9.5-3.3,14l0,0
			c-1.5,2.7-4.5,4.6-10.8,4.2c2.1,1.2,4.2,2.5,6.1,4c5.9,1.5,11.8,0.4,16.3-7.7c0.1-0.1,0.2-0.3,0.2-0.4l0,0c4.3-7,12.4-5.1,11.7,0
			l0,0c-0.1,0.8-0.4,1.7-1,2.7c1.2-0.8,2.3-1.7,3.3-2.7h0.1c3.2-3.1,5.4-6.9,6.3-11.8c2.2,3.7,1.9,8.8,0.7,11.8l0,0
			c-0.1,0.4-0.3,0.7-0.5,1c0.4-0.3,0.7-0.6,1.1-1h0.1c6.5-6.8,10.6-23,2.5-31.9c-7.6-7.4-20.6-5.4-20,4.1c3-4.4,12.9-1.3,8.6,6.4
			c-4.8,7.4-16.9,4.6-17.7-5.8C-177.3,33.6-139.9,36.1-137.4,59.7L-137.4,59.7z"/>
		<path class="st1" d="M-358.2,54.9c-0.8,10.4-12.9,13.2-17.7,5.8c-4.3-7.7,5.6-10.9,8.6-6.4c0.6-9.6-12.3-11.6-20-4.1
			c-8.1,8.9-4,25.1,2.5,31.9l0,0c0.3,0.4,0.7,0.7,1.1,1c-0.2-0.3-0.4-0.6-0.5-1l0,0c-1.2-3-1.5-8.1,0.7-11.8
			c0.9,4.8,3.1,8.7,6.3,11.8h0.1c1,1,2.1,1.9,3.3,2.7c-0.6-1-0.9-1.9-1-2.7l0,0c-0.6-5.1,7.5-7,11.7,0l0,0c0.1,0.1,0.2,0.3,0.2,0.4
			c4.5,8.2,10.5,9.2,16.4,7.7c1.9-1.4,4-2.8,6.1-4c-6.2,0.4-9.2-1.4-10.8-4.2l0,0c-2.4-4.5-1.1-11.2-3.3-14c14.2-1.1,17,5.6,17.5,14
			c0,0.8,0.1,1.6,0.1,2.4c1.8-0.9,3.7-1.7,5.7-2.4h0.2c13.2-4.7,28.3-5.1,40.8,0h0.1c7.5,3.1,14.1,8.2,18.7,15.6
			c-14.4-13.4-36-18-52.5-5.1c14.4-9.4,33.5-8.2,43.6,1.9c-12.7-7.3-28.4-8.3-37,2.4c-10.5,16.7-28,1.5-15.9-7.8
			c-11.8,5.8-13.2,16.9-11,24.9c-2.5-0.8-4.5-2-5.6-4.1c-3.1,15.9,11.3,15.1,12.5,22.6c-7.4,1.9-13.4,0.7-17.9-3.6
			c6.7,15,31.5,13.9,29.5-6.2c-3.5,4.1-10.8-0.1-8.9-5.8c2.6-7.1,12.9-6.4,15.8,1.2c9,28.4-47.8,33.1-43.9-2.6c0.7-4,2-7.7,3.8-11.1
			c-3.4,2.2-7.8,3.2-13.3,2.3c-7-1-11.1,0.4-14.8,2.1c-1.2-5.2-0.5-10,3.6-14.2c-3.5,2-7.6,3.4-13.2,3.3c0-3.6,1.2-6.8,3.8-9.5
			c-9.8,4.3-18.1,1.1-25.5-6.3h-0.1l-0.1-0.1c7.7,0,13-8.7,23.6-4.3c-5.2-5.6-7.8-13-6.6-23c1.1,2,2.5,3.7,4.3,5.1
			C-394.6,36.1-357.2,33.6-358.2,54.9L-358.2,54.9z"/>
		<path class="st1" d="M-143.3,82.1L-143.3,82.1c-12.1,10.7-25.6,13.6-39.8,12.4c0.6,0.6,1.2,1.2,1.7,1.8c7.4,0.1,15.6,1.8,22.2,4.7
			c-1.9-1.9-4.1-3.6-7-4.7c8.6-2.5,16.8-6,23.1-14.2h0.1c0.2-0.2,0.3-0.5,0.5-0.7C-142.7,81.6-143,81.8-143.3,82.1L-143.3,82.1z"/>
		<path class="st1" d="M-391.5,82.1L-391.5,82.1c6.4,8.2,14.5,11.7,23.2,14.2c-2.9,1.1-5.2,2.8-7,4.7c6.6-2.9,14.8-4.6,22.2-4.7
			c0.6-0.6,1.1-1.2,1.7-1.8c-14.2,1.3-27.7-1.7-39.7-12.4h-0.1c-0.2-0.2-0.5-0.5-0.8-0.7C-391.8,81.6-391.7,81.8-391.5,82.1
			L-391.5,82.1z"/>
		<path class="st1" d="M-219.8,109c-20,16.4-29.9-1.3-46.5-6.7c6.2-3.7,13.6-2.1,21.5,1.7c-2.2-1.9-5-3.8-9.6-5.3
			C-238.9,90.8-228.4,106.5-219.8,109L-219.8,109z"/>
		<path class="st1" d="M-280.1,98.8c-4.6,1.5-7.4,3.3-9.6,5.3c7.9-3.8,15.2-5.4,21.5-1.7c-16.5,5.4-26.4,23.1-46.5,6.7
			C-306.1,106.5-295.6,90.8-280.1,98.8L-280.1,98.8z"/>
		<path class="st1" d="M-247.7,116.5c10.1-0.7,14.5,2.8,16.3,8.2c-2.7-1.1-5.9-1.6-9.3-1.7c9.1,2.8,15.1,8.4,18.4,16.6
			c3.8,8.4,10.1,12.3,17.5,14.6c-18.2,5.9-39,1.3-47.3-16.5c0.2,3.6,1.2,7.3,2.8,10.9c-9-3.2-12.3-8.2-12.9-14.2
			c-1.3-7.3-1.1-14.2-3.2-17.8c5,5.4,11.6,10.3,18.8,15c11.1,6.6,13.6,15.8,20.5,15.8c-7.5-3.5-11-13.1-19.3-17.8
			c5.6,1.8,9.2,4.1,12.3,6.4c-1.8-3.8-7-7.1-13.5-9.1c-12-4.9-18.4-10.9-17.8-14.4C-262.4,115.3-257.5,117-247.7,116.5L-247.7,116.5
			z"/>
		<path class="st1" d="M-287.7,126.9c-6.5,2-11.7,5.2-13.5,9.1c3.2-2.3,6.8-4.6,12.3-6.4c-8.3,4.7-11.7,14.3-19.3,17.8
			c6.9,0,9.4-9.1,20.5-15.8c7.2-4.6,13.7-9.5,18.7-15c-2.1,3.6-2,10.4-3.2,17.8c-0.6,6-4,11-12.9,14.2c1.5-3.6,2.6-7.3,2.8-10.9
			c-8.4,17.9-29.1,22.4-47.4,16.5c7.3-2.3,13.7-6.3,17.5-14.6c3.3-8.2,9.3-13.8,18.4-16.6c-3.5,0.1-6.7,0.6-9.3,1.7
			c1.8-5.3,6.2-8.9,16.3-8.2c9.7,0.4,14.7-1.2,17-4C-269.3,116-275.7,122-287.7,126.9L-287.7,126.9z"/>
		<path class="st1" d="M-150.2,119.8c0,2.7-2.3,4.9-5.2,4.9c-2.9,0-5.2-2.2-5.2-4.9s2.3-4.9,5.2-4.9S-150.2,117.1-150.2,119.8
			L-150.2,119.8z"/>
		<path class="st1" d="M-373.9,119.8c0,2.7-2.3,4.9-5.2,4.9s-5.2-2.2-5.2-4.9s2.3-4.9,5.2-4.9C-376.3,114.9-373.9,117.1-373.9,119.8
			L-373.9,119.8z"/>
		<path class="st1" d="M-250.2,153.2c13.9,4.3,18.9,14.8,20.3,27.9c-17.3-0.7-28-10-29.7-27c2.4,2.3,5.3,4.5,9.2,6.3
			c4.7,2.1,7.8,5.1,9.4,8.8c-0.6-4-2.5-7.6-7.7-10.4c-9.9-5.4-13.2-10.8-14.8-16.1C-260.5,146.5-257.6,150.4-250.2,153.2
			L-250.2,153.2z"/>
		<path class="st1" d="M-285.8,158.8c-5.2,2.8-7.1,6.4-7.7,10.4c1.7-3.7,4.7-6.7,9.4-8.8c3.9-1.8,6.8-3.9,9.2-6.3
			c-1.8,17-12.4,26.3-29.7,27c1.5-13.1,6.4-23.7,20.3-27.9c7.5-2.8,10.3-6.7,13.3-10.6C-272.6,148-275.9,153.4-285.8,158.8
			L-285.8,158.8z"/>
		<path class="st1" d="M-258.7,170.4c4.8,11.1,0.1,21-8.5,30.5l0,0l0,0l0,0l0,0c-8.6-9.5-13.3-19.4-8.5-30.5
			c3.4-7.2,6.4-14.6,8.5-21.8l0,0C-265.1,155.8-262.1,163.1-258.7,170.4L-258.7,170.4z"/>
		<path class="st1" d="M-209.9,168.3c-4.6-0.2-13.9,8.1-15.6-5C-221.2,164.3-216.3,158.4-209.9,168.3L-209.9,168.3z"/>
		<path class="st1" d="M-309.1,163.3c-1.7,13.1-11,4.8-15.6,5c3.2-4.9,6.1-5.9,8.6-5.8C-313.4,162.6-311.2,163.8-309.1,163.3
			L-309.1,163.3z"/>
		<path class="st1" d="M-263,212.1c0,2.1-1.9,3.8-4.1,3.8h-0.3c-2.3,0-4.1-1.7-4.1-3.8c0-2.1,1.8-3.9,4.1-3.9h0.1h0.1
			C-264.9,208.3-263,210-263,212.1L-263,212.1z"/>
		<path class="st1" d="M-267-75.2c-12.4-9.6-3.1-19.6,0-28.7C-263.9-94.8-254.7-84.8-267-75.2L-267-75.2z"/>
		<path class="st1" d="M-236.8-58.1c-3.4-8.8,1-13.7,9-16.7C-229.8-70.2-226.2-59.4-236.8-58.1L-236.8-58.1z"/>
		<path class="st1" d="M-297.7-58.1c-10.6-1.3-7-12-9-16.7C-298.7-71.8-294.3-66.9-297.7-58.1L-297.7-58.1z"/>
		<path class="st1" d="M-250.3-64.4c-2.8-0.5-5.1-0.1-7.3,0.4c-0.4-2-1.2-3.9-2.9-5.6C-257.9-78-244.6-72.7-250.3-64.4L-250.3-64.4z
			"/>
		<path class="st1" d="M-274.1-69.7c-1.6,1.8-2.5,3.7-2.9,5.6c-2.2-0.5-4.5-0.9-7.3-0.4C-289.9-72.7-276.6-78-274.1-69.7
			L-274.1-69.7z"/>
		<path class="st1" d="M-260.6-60.1c-1.9-1-4.3-1.4-6.7-1.3c-2.4-0.1-4.7,0.4-6.7,1.3c-2.2-5.5,2.2-9.2,6.7-9.2
			C-262.8-69.2-258.4-65.6-260.6-60.1L-260.6-60.1z"/>
		<path class="st1" d="M-245.9-32c-8.7,1.7-13.9,8.2-16.2,17.4c1.2-14.6,10.1-23,23.3-27.9c-13.8,3.2-23.4,12.3-25.6,29.1
			c-0.1-16,4.4-30.2,22.2-35.9c10.7-3,16.3-7.7,18.3-14C-219-46.1-229.5-34.6-245.9-32L-245.9-32z"/>
		<path class="st1" d="M-292.3-49.2c17.8,5.7,22.3,19.9,22.2,35.9c-2.3-16.8-11.8-26-25.6-29.1c13.2,4.9,22.1,13.3,23.3,27.9
			c-2.2-9.2-7.5-15.7-16.2-17.4c-16.4-2.5-26.9-14-22-31.2C-308.6-57-303-52.2-292.3-49.2L-292.3-49.2z"/>
		<path class="st1" d="M-254.9-50.8c-0.1-2.9-1.2-5.6-3.6-8.3C-248.5-70-238.2-52.9-254.9-50.8L-254.9-50.8z"/>
		<path class="st1" d="M-276-59.1c-2.4,2.7-3.5,5.4-3.6,8.3C-296.3-52.9-286-70-276-59.1L-276-59.1z"/>
		<path class="st1" d="M-258.6-50.5c0,4.4-3.9,8.1-8.6,8.1h-0.2c-4.8,0-8.6-3.6-8.6-8.1c0-4.4,3.9-8.1,8.6-8.1c0,0,0,0,0.1,0h0.1
			C-262.4-58.5-258.6-54.9-258.6-50.5L-258.6-50.5z"/>
		<path class="st1" d="M-211.7-39.9c0,2.3-2,4.2-4.5,4.2s-4.5-1.9-4.5-4.2s2-4.2,4.5-4.2C-213.7-44.1-211.7-42.2-211.7-39.9
			L-211.7-39.9z"/>
		<path class="st1" d="M-313.8-39.9c0,2.3-2,4.2-4.5,4.2s-4.5-1.9-4.5-4.2s2-4.2,4.5-4.2C-315.8-44.1-313.8-42.2-313.8-39.9
			L-313.8-39.9z"/>
		<path class="st1" d="M-194.1-7.2c0,0.2,0.1,0.4,0.1,0.6c9.1,2.2,11.4,8.5,10.4,15.1c-0.8,3.5-0.7,6.2,1.4,9.9
			c-8.4-1.2-13-4.7-12.7-11.5c-5.9,15.8-28.7,19.9-35.2,5c-1.4-3.5-0.9-9.4,4.7-11.2c9.2-2.6,14.5,8.8,5,11.8
			c10.3,5.4,25.3-4.8,22.2-20.7c-2.2,4.8-6.3,7.6-10.4,7.7c3.9-9.3-2.6-17.5-16.7-20.1c7.7,4.7,1,15-10.4,12.2
			c-18-2.2-27.1,16-29.8,33.1C-273-27.8-205.3-47-194.1-7.2L-194.1-7.2z"/>
		<path class="st1" d="M-269.1,24.9c-2.7-17.1-11.8-35.3-29.8-33.1c-11.4,2.8-18.1-7.5-10.4-12.2c-14.1,2.6-20.5,10.7-16.7,20.1
			c-4.1-0.1-8.2-2.9-10.4-7.7c-3.1,15.9,11.9,26.1,22.2,20.7c-9.5-3-4.2-14.4,5-11.8c5.6,1.8,6.1,7.7,4.7,11.2
			c-6.7,15.3-30.7,10.6-35.7-6.5c1.3,7.8-3.4,11.7-12.2,13c2-3.7,2.2-6.4,1.4-9.9c-1-6.7,1.4-12.9,10.4-15.1c0-0.2,0.1-0.4,0.1-0.6
			C-329.3-47-261.5-27.8-269.1,24.9L-269.1,24.9z"/>
		<path class="st1" d="M-260.3,24.7c1.9-11.8,10.1-20.3,21.2-25.5C-244.9,8.9-248.7,20-260.3,24.7L-260.3,24.7z"/>
		<path class="st1" d="M-274.2,24.7c-11.6-4.7-15.5-15.8-21.2-25.5C-284.3,4.4-276.1,12.9-274.2,24.7L-274.2,24.7z"/>
		<path class="st1" d="M-345.3,9.4c1.9-1.8,3.5-3.8,4.6-5.9c-0.2-1.2-0.4-2.4-0.4-3.7C-342,2.6-343.4,5.7-345.3,9.4L-345.3,9.4z"/>
		<path class="st1" d="M-193.8,3.4c1.1,2.2,2.7,4.1,4.6,5.9c-1.9-3.6-3.3-6.8-4.2-9.6C-193.4,1.1-193.6,2.3-193.8,3.4L-193.8,3.4z"
			/>
		<path class="st1" d="M-166.8,18.7c-12.9,5.5-10.1-6.2-12.7-9.8C-167.1,8.9-169.9,15.8-166.8,18.7L-166.8,18.7z"/>
		<path class="st1" d="M-355,8.9c-2.6,3.6,0.2,15.3-12.7,9.8C-364.6,15.8-367.4,8.9-355,8.9L-355,8.9z"/>
		<path class="st1" d="M-251.2,59.7c-7.1,4.7-10.7,9.7-12.4,14.8c-0.5-15.7,15.6-25.7,16.9-40.1c-4,13.9-14.3,19.4-17.1,29.5
			c-4.2-15.9-0.9-28,7.3-37.5c-1.4,4.6-1.2,9.3,0.1,14.1c0.7-8.7,6.2-16.5,16.7-23.2C-233.5,37.5-238.5,51.7-251.2,59.7L-251.2,59.7
			z"/>
		<path class="st1" d="M-278.2,40.5c1.2-4.8,1.5-9.5,0.1-14.1c8.3,9.5,11.5,21.6,7.3,37.5c-2.8-10.1-13.1-15.6-17.1-29.5
			c1.3,14.3,17.4,24.3,16.9,40.1c-1.7-5.1-5.3-10.1-12.4-14.8c-12.7-8.1-17.7-22.2-11.6-42.5C-284.4,24-278.9,31.8-278.2,40.5
			L-278.2,40.5z"/>
		<path class="st1" d="M-221.5,27.4c0,2-1.8,3.7-4,3.7s-4-1.7-4-3.7s1.8-3.7,4-3.7C-223.2,23.7-221.5,25.3-221.5,27.4L-221.5,27.4z"
			/>
		<path class="st1" d="M-305.1,27.4c0,2-1.8,3.7-4,3.7c-2.2,0-4-1.7-4-3.7s1.8-3.7,4-3.7C-306.9,23.7-305.1,25.3-305.1,27.4
			L-305.1,27.4z"/>
		<path class="st1" d="M-167.6,31.3c-10.5,0.7-18.8,6-22.9,16.3c-4.1,8.7-11.7,14.9-25.9,16.6c3.1,1.5,7,2.5,13.5,1.6
			c-7.3,6.4-16.7,10.7-32.5,10.3c-7.3-0.3-14.1,1.8-20,6h-0.1c-3.3,2.3-6.2,5.3-8.8,8.9c1.2-3.2,2.9-6.1,5-8.9l0,0
			c7.6-10.1,20.3-17.5,34.1-21.6c20-5.6,25-19.1,32.4-26c-9.1,5.9-16.2,19.2-32.7,24.2C-241,63-253.3,71.8-261,82.1l0,0
			c-1.4,1.9-2.6,3.7-3.7,5.7c0.3-1.7,0.8-3.6,1.6-5.7l0,0c2.7-6.7,8.4-14.7,19.1-20.8C-231.5,55-221.4,42-216.3,28
			c1.1,3.2,1.8,6.6,1.6,10.6C-203.3,24.2-185.4,19-167.6,31.3L-167.6,31.3z"/>
		<path class="st1" d="M-319.9,38.5c-0.2-4,0.5-7.4,1.6-10.6c5.1,14,15.3,26.9,27.8,33.3c10.6,6.1,16.4,14.2,19.1,20.8l0,0
			c0.8,2.1,1.3,4,1.6,5.7c-1.1-1.9-2.3-3.8-3.6-5.7l0,0c-7.7-10.3-20-19.1-35.5-23.4c-16.5-5-23.6-18.4-32.7-24.2
			c7.4,6.9,12.4,20.4,32.4,26c13.7,4.1,26.5,11.5,34.1,21.6h0.1c2.1,2.8,3.8,5.8,5,8.9c-2.6-3.6-5.6-6.6-8.8-8.9h-0.1
			c-5.9-4.2-12.8-6.3-20-6c-15.8,0.4-25.2-3.9-32.5-10.3c6.5,0.9,10.4-0.1,13.5-1.6c-14.1-1.7-21.7-7.9-25.9-16.6
			c-4-10.2-12.4-15.6-22.9-16.3C-349.1,19-331.2,24.2-319.9,38.5L-319.9,38.5z"/>
		<path class="st1" d="M-137.4,59.7c1.9-1.4,3.3-3.1,4.3-5.1c1.2,10-1.4,17.4-6.6,23c10.7-4.4,15.9,4.3,23.6,4.3l-0.1,0.1h-0.1
			c-7.4,7.4-15.7,10.6-25.5,6.3c2.6,2.7,3.9,5.8,3.8,9.5c-5.7,0.1-9.7-1.3-13.3-3.3c4.1,4.2,4.8,9,3.6,14.2c-3.7-1.7-7.7-3-14.8-2.1
			c-5.4,0.9-9.8-0.1-13.3-2.3c1.8,3.4,3.1,7.1,3.8,11.1c3.9,35.7-52.9,31-43.9,2.6c2.9-7.6,13.2-8.3,15.8-1.2
			c1.9,5.7-5.4,9.9-8.9,5.8c-2.1,20.1,22.8,21.2,29.5,6.2c-4.5,4.3-10.5,5.5-17.9,3.6c1.2-7.5,15.6-6.7,12.5-22.6
			c-1.1,2.1-3.2,3.3-5.6,4.1c2.2-8,0.8-19.1-11-24.9c12.2,9.3-5.4,24.5-15.8,7.8c-8.6-10.8-24.4-9.8-37-2.4
			c10.2-10.1,29.3-11.2,43.6-1.9c-16.6-12.9-38.2-8.3-52.5,5.1c4.6-7.4,11.2-12.5,18.7-15.6h0.1c12.5-5.1,27.6-4.7,40.8,0h0.2
			c1.9,0.7,3.8,1.5,5.7,2.4c0-0.8,0-1.6,0.1-2.4l0,0c0.5-8.4,3.4-15.1,17.5-14c-2.2,2.8-0.9,9.5-3.3,14l0,0
			c-1.5,2.7-4.5,4.6-10.8,4.2c2.1,1.2,4.2,2.5,6.1,4c5.9,1.5,11.8,0.4,16.3-7.7c0.1-0.1,0.2-0.3,0.2-0.4l0,0c4.3-7,12.4-5.1,11.7,0
			l0,0c-0.1,0.8-0.4,1.7-1,2.7c1.2-0.8,2.3-1.7,3.3-2.7h0.1c3.2-3.1,5.4-6.9,6.3-11.8c2.2,3.7,1.9,8.8,0.7,11.8l0,0
			c-0.1,0.4-0.3,0.7-0.5,1c0.4-0.3,0.7-0.6,1.1-1h0.1c6.5-6.8,10.6-23,2.5-31.9c-7.6-7.4-20.6-5.4-20,4.1c3-4.4,12.9-1.3,8.6,6.4
			c-4.8,7.4-16.9,4.6-17.7-5.8C-177.3,33.6-139.9,36.1-137.4,59.7L-137.4,59.7z"/>
		<path class="st1" d="M-358.2,54.9c-0.8,10.4-12.9,13.2-17.7,5.8c-4.3-7.7,5.6-10.9,8.6-6.4c0.6-9.6-12.3-11.6-20-4.1
			c-8.1,8.9-4,25.1,2.5,31.9l0,0c0.3,0.4,0.7,0.7,1.1,1c-0.2-0.3-0.4-0.6-0.5-1l0,0c-1.2-3-1.5-8.1,0.7-11.8
			c0.9,4.8,3.1,8.7,6.3,11.8h0.1c1,1,2.1,1.9,3.3,2.7c-0.6-1-0.9-1.9-1-2.7l0,0c-0.6-5.1,7.5-7,11.7,0l0,0c0.1,0.1,0.2,0.3,0.2,0.4
			c4.5,8.2,10.5,9.2,16.4,7.7c1.9-1.4,4-2.8,6.1-4c-6.2,0.4-9.2-1.4-10.8-4.2l0,0c-2.4-4.5-1.1-11.2-3.3-14c14.2-1.1,17,5.6,17.5,14
			c0,0.8,0.1,1.6,0.1,2.4c1.8-0.9,3.7-1.7,5.7-2.4h0.2c13.2-4.7,28.3-5.1,40.8,0h0.1c7.5,3.1,14.1,8.2,18.7,15.6
			c-14.4-13.4-36-18-52.5-5.1c14.4-9.4,33.5-8.2,43.6,1.9c-12.7-7.3-28.4-8.3-37,2.4c-10.5,16.7-28,1.5-15.9-7.8
			c-11.8,5.8-13.2,16.9-11,24.9c-2.5-0.8-4.5-2-5.6-4.1c-3.1,15.9,11.3,15.1,12.5,22.6c-7.4,1.9-13.4,0.7-17.9-3.6
			c6.7,15,31.5,13.9,29.5-6.2c-3.5,4.1-10.8-0.1-8.9-5.8c2.6-7.1,12.9-6.4,15.8,1.2c9,28.4-47.8,33.1-43.9-2.6c0.7-4,2-7.7,3.8-11.1
			c-3.4,2.2-7.8,3.2-13.3,2.3c-7-1-11.1,0.4-14.8,2.1c-1.2-5.2-0.5-10,3.6-14.2c-3.5,2-7.6,3.4-13.2,3.3c0-3.6,1.2-6.8,3.8-9.5
			c-9.8,4.3-18.1,1.1-25.5-6.3h-0.1l-0.1-0.1c7.7,0,13-8.7,23.6-4.3c-5.2-5.6-7.8-13-6.6-23c1.1,2,2.5,3.7,4.3,5.1
			C-394.6,36.1-357.2,33.6-358.2,54.9L-358.2,54.9z"/>
		<path class="st1" d="M-143.3,82.1L-143.3,82.1c-12.1,10.7-25.6,13.6-39.8,12.4c0.6,0.6,1.2,1.2,1.7,1.8c7.4,0.1,15.6,1.8,22.2,4.7
			c-1.9-1.9-4.1-3.6-7-4.7c8.6-2.5,16.8-6,23.1-14.2h0.1c0.2-0.2,0.3-0.5,0.5-0.7C-142.7,81.6-143,81.8-143.3,82.1L-143.3,82.1z"/>
		<path class="st1" d="M-391.5,82.1L-391.5,82.1c6.4,8.2,14.5,11.7,23.2,14.2c-2.9,1.1-5.2,2.8-7,4.7c6.6-2.9,14.8-4.6,22.2-4.7
			c0.6-0.6,1.1-1.2,1.7-1.8c-14.2,1.3-27.7-1.7-39.7-12.4h-0.1c-0.2-0.2-0.5-0.5-0.8-0.7C-391.8,81.6-391.7,81.8-391.5,82.1
			L-391.5,82.1z"/>
		<path class="st1" d="M-219.8,109c-20,16.4-29.9-1.3-46.5-6.7c6.2-3.7,13.6-2.1,21.5,1.7c-2.2-1.9-5-3.8-9.6-5.3
			C-238.9,90.8-228.4,106.5-219.8,109L-219.8,109z"/>
		<path class="st1" d="M-280.1,98.8c-4.6,1.5-7.4,3.3-9.6,5.3c7.9-3.8,15.2-5.4,21.5-1.7c-16.5,5.4-26.4,23.1-46.5,6.7
			C-306.1,106.5-295.6,90.8-280.1,98.8L-280.1,98.8z"/>
		<path class="st1" d="M-247.7,116.5c10.1-0.7,14.5,2.8,16.3,8.2c-2.7-1.1-5.9-1.6-9.3-1.7c9.1,2.8,15.1,8.4,18.4,16.6
			c3.8,8.4,10.1,12.3,17.5,14.6c-18.2,5.9-39,1.3-47.3-16.5c0.2,3.6,1.2,7.3,2.8,10.9c-9-3.2-12.3-8.2-12.9-14.2
			c-1.3-7.3-1.1-14.2-3.2-17.8c5,5.4,11.6,10.3,18.8,15c11.1,6.6,13.6,15.8,20.5,15.8c-7.5-3.5-11-13.1-19.3-17.8
			c5.6,1.8,9.2,4.1,12.3,6.4c-1.8-3.8-7-7.1-13.5-9.1c-12-4.9-18.4-10.9-17.8-14.4C-262.4,115.3-257.5,117-247.7,116.5L-247.7,116.5
			z"/>
		<path class="st1" d="M-287.7,126.9c-6.5,2-11.7,5.2-13.5,9.1c3.2-2.3,6.8-4.6,12.3-6.4c-8.3,4.7-11.7,14.3-19.3,17.8
			c6.9,0,9.4-9.1,20.5-15.8c7.2-4.6,13.7-9.5,18.7-15c-2.1,3.6-2,10.4-3.2,17.8c-0.6,6-4,11-12.9,14.2c1.5-3.6,2.6-7.3,2.8-10.9
			c-8.4,17.9-29.1,22.4-47.4,16.5c7.3-2.3,13.7-6.3,17.5-14.6c3.3-8.2,9.3-13.8,18.4-16.6c-3.5,0.1-6.7,0.6-9.3,1.7
			c1.8-5.3,6.2-8.9,16.3-8.2c9.7,0.4,14.7-1.2,17-4C-269.3,116-275.7,122-287.7,126.9L-287.7,126.9z"/>
		<path class="st1" d="M-150.2,119.8c0,2.7-2.3,4.9-5.2,4.9c-2.9,0-5.2-2.2-5.2-4.9s2.3-4.9,5.2-4.9S-150.2,117.1-150.2,119.8
			L-150.2,119.8z"/>
		<path class="st1" d="M-373.9,119.8c0,2.7-2.3,4.9-5.2,4.9s-5.2-2.2-5.2-4.9s2.3-4.9,5.2-4.9C-376.3,114.9-373.9,117.1-373.9,119.8
			L-373.9,119.8z"/>
		<path class="st1" d="M-250.2,153.2c13.9,4.3,18.9,14.8,20.3,27.9c-17.3-0.7-28-10-29.7-27c2.4,2.3,5.3,4.5,9.2,6.3
			c4.7,2.1,7.8,5.1,9.4,8.8c-0.6-4-2.5-7.6-7.7-10.4c-9.9-5.4-13.2-10.8-14.8-16.1C-260.5,146.5-257.6,150.4-250.2,153.2
			L-250.2,153.2z"/>
		<path class="st1" d="M-285.8,158.8c-5.2,2.8-7.1,6.4-7.7,10.4c1.7-3.7,4.7-6.7,9.4-8.8c3.9-1.8,6.8-3.9,9.2-6.3
			c-1.8,17-12.4,26.3-29.7,27c1.5-13.1,6.4-23.7,20.3-27.9c7.5-2.8,10.3-6.7,13.3-10.6C-272.6,148-275.9,153.4-285.8,158.8
			L-285.8,158.8z"/>
		<path class="st1" d="M-258.7,170.4c4.8,11.1,0.1,21-8.5,30.5l0,0l0,0l0,0l0,0c-8.6-9.5-13.3-19.4-8.5-30.5
			c3.4-7.2,6.4-14.6,8.5-21.8l0,0C-265.1,155.8-262.1,163.1-258.7,170.4L-258.7,170.4z"/>
		<path class="st1" d="M-209.9,168.3c-4.6-0.2-13.9,8.1-15.6-5C-221.2,164.3-216.3,158.4-209.9,168.3L-209.9,168.3z"/>
		<path class="st1" d="M-309.1,163.3c-1.7,13.1-11,4.8-15.6,5c3.2-4.9,6.1-5.9,8.6-5.8C-313.4,162.6-311.2,163.8-309.1,163.3
			L-309.1,163.3z"/>
		<path class="st1" d="M-263,212.1c0,2.1-1.9,3.8-4.1,3.8h-0.3c-2.3,0-4.1-1.7-4.1-3.8c0-2.1,1.8-3.9,4.1-3.9h0.1h0.1
			C-264.9,208.3-263,210-263,212.1L-263,212.1z"/>
	</g>
	<g class="st0">
		<path class="st1" d="M-268.7,354.5c-12.4-9.6-3.1-19.6,0-28.7C-265.6,334.9-256.4,344.9-268.7,354.5L-268.7,354.5z"/>
		<path class="st1" d="M-238.5,371.6c-3.4-8.8,1-13.7,9-16.7C-231.5,359.5-227.9,370.3-238.5,371.6L-238.5,371.6z"/>
		<path class="st1" d="M-299.4,371.6c-10.6-1.3-7-12-9-16.7C-300.4,357.9-296,362.8-299.4,371.6L-299.4,371.6z"/>
		<path class="st1" d="M-252,365.3c-2.8-0.5-5.1-0.1-7.3,0.4c-0.4-2-1.2-3.9-2.9-5.6C-259.6,351.7-246.3,357-252,365.3L-252,365.3z"
			/>
		<path class="st1" d="M-275.8,360c-1.6,1.8-2.5,3.7-2.9,5.6c-2.2-0.5-4.5-0.9-7.3-0.4C-291.6,357-278.3,351.7-275.8,360L-275.8,360
			z"/>
		<path class="st1" d="M-262.3,369.6c-1.9-1-4.3-1.4-6.7-1.3c-2.4-0.1-4.7,0.4-6.7,1.3c-2.2-5.5,2.2-9.2,6.7-9.2
			C-264.5,360.5-260.1,364.1-262.3,369.6L-262.3,369.6z"/>
		<path class="st1" d="M-247.6,397.7c-8.7,1.7-13.9,8.2-16.2,17.4c1.2-14.6,10.1-23,23.3-27.9c-13.8,3.2-23.4,12.3-25.6,29.1
			c-0.1-16,4.4-30.2,22.2-35.9c10.7-3,16.3-7.7,18.3-14C-220.7,383.6-231.2,395.1-247.6,397.7L-247.6,397.7z"/>
		<path class="st1" d="M-294,380.5c17.8,5.7,22.3,19.9,22.2,35.9c-2.3-16.8-11.8-26-25.6-29.1c13.2,4.9,22.1,13.3,23.3,27.9
			c-2.2-9.2-7.5-15.7-16.2-17.4c-16.4-2.5-26.9-14-22-31.2C-310.3,372.7-304.7,377.5-294,380.5L-294,380.5z"/>
		<path class="st1" d="M-256.6,378.9c-0.1-2.9-1.2-5.6-3.6-8.3C-250.2,359.7-239.9,376.8-256.6,378.9L-256.6,378.9z"/>
		<path class="st1" d="M-277.7,370.6c-2.4,2.7-3.5,5.4-3.6,8.3C-298,376.8-287.7,359.7-277.7,370.6L-277.7,370.6z"/>
		<path class="st1" d="M-260.3,379.2c0,4.4-3.9,8.1-8.6,8.1h-0.2c-4.8,0-8.6-3.6-8.6-8.1c0-4.4,3.9-8.1,8.6-8.1c0,0,0,0,0.1,0h0.1
			C-264.1,371.2-260.3,374.8-260.3,379.2L-260.3,379.2z"/>
		<path class="st1" d="M-213.4,389.8c0,2.3-2,4.2-4.5,4.2s-4.5-1.9-4.5-4.2s2-4.2,4.5-4.2C-215.4,385.6-213.4,387.5-213.4,389.8
			L-213.4,389.8z"/>
		<path class="st1" d="M-315.5,389.8c0,2.3-2,4.2-4.5,4.2s-4.5-1.9-4.5-4.2s2-4.2,4.5-4.2C-317.5,385.6-315.5,387.5-315.5,389.8
			L-315.5,389.8z"/>
		<path class="st1" d="M-195.8,422.5c0,0.2,0.1,0.4,0.1,0.6c9.1,2.2,11.4,8.5,10.4,15.1c-0.8,3.5-0.7,6.2,1.4,9.9
			c-8.4-1.2-13-4.7-12.7-11.5c-5.9,15.8-28.7,19.9-35.2,5c-1.4-3.5-0.9-9.4,4.7-11.2c9.2-2.6,14.5,8.8,5,11.8
			c10.3,5.4,25.3-4.8,22.2-20.7c-2.2,4.8-6.3,7.6-10.4,7.7c3.9-9.3-2.6-17.5-16.7-20.1c7.7,4.7,1,15-10.4,12.2
			c-18-2.2-27.1,16-29.8,33.1C-274.7,401.9-207,382.7-195.8,422.5L-195.8,422.5z"/>
		<path class="st1" d="M-270.8,454.6c-2.7-17.1-11.8-35.3-29.8-33.1c-11.4,2.8-18.1-7.5-10.4-12.2c-14.1,2.6-20.5,10.7-16.7,20.1
			c-4.1-0.1-8.2-2.9-10.4-7.7c-3.1,15.9,11.9,26.1,22.2,20.7c-9.5-3-4.2-14.4,5-11.8c5.6,1.8,6.1,7.7,4.7,11.2
			c-6.7,15.3-30.7,10.6-35.7-6.5c1.3,7.8-3.4,11.7-12.2,13c2-3.7,2.2-6.4,1.4-9.9c-1-6.7,1.4-12.9,10.4-15.1c0-0.2,0.1-0.4,0.1-0.6
			C-331,382.7-263.2,401.9-270.8,454.6L-270.8,454.6z"/>
		<path class="st1" d="M-262,454.4c1.9-11.8,10.1-20.3,21.2-25.5C-246.6,438.6-250.4,449.7-262,454.4L-262,454.4z"/>
		<path class="st1" d="M-275.9,454.4c-11.6-4.7-15.5-15.8-21.2-25.5C-286,434.1-277.8,442.6-275.9,454.4L-275.9,454.4z"/>
		<path class="st1" d="M-347,439.1c1.9-1.8,3.5-3.8,4.6-5.9c-0.2-1.2-0.4-2.4-0.4-3.7C-343.7,432.3-345.1,435.4-347,439.1
			L-347,439.1z"/>
		<path class="st1" d="M-195.5,433.1c1.1,2.2,2.7,4.1,4.6,5.9c-1.9-3.6-3.3-6.8-4.2-9.6C-195.1,430.8-195.3,432-195.5,433.1
			L-195.5,433.1z"/>
		<path class="st1" d="M-168.5,448.4c-12.9,5.5-10.1-6.2-12.7-9.8C-168.8,438.6-171.6,445.5-168.5,448.4L-168.5,448.4z"/>
		<path class="st1" d="M-356.7,438.6c-2.6,3.6,0.2,15.3-12.7,9.8C-366.3,445.5-369.1,438.6-356.7,438.6L-356.7,438.6z"/>
		<path class="st1" d="M-252.9,489.4c-7.1,4.7-10.7,9.7-12.4,14.8c-0.5-15.7,15.6-25.7,16.9-40.1c-4,13.9-14.3,19.4-17.1,29.5
			c-4.2-15.9-0.9-28,7.3-37.5c-1.4,4.6-1.2,9.3,0.1,14.1c0.7-8.7,6.2-16.5,16.7-23.2C-235.2,467.2-240.2,481.4-252.9,489.4
			L-252.9,489.4z"/>
		<path class="st1" d="M-279.9,470.2c1.2-4.8,1.5-9.5,0.1-14.1c8.3,9.5,11.5,21.6,7.3,37.5c-2.8-10.1-13.1-15.6-17.1-29.5
			c1.3,14.3,17.4,24.3,16.9,40.1c-1.7-5.1-5.3-10.1-12.4-14.8c-12.7-8.1-17.7-22.2-11.6-42.5C-286.1,453.7-280.6,461.5-279.9,470.2
			L-279.9,470.2z"/>
		<path class="st1" d="M-223.2,457.1c0,2-1.8,3.7-4,3.7s-4-1.7-4-3.7s1.8-3.7,4-3.7C-224.9,453.4-223.2,455-223.2,457.1
			L-223.2,457.1z"/>
		<path class="st1" d="M-306.8,457.1c0,2-1.8,3.7-4,3.7c-2.2,0-4-1.7-4-3.7s1.8-3.7,4-3.7C-308.6,453.4-306.8,455-306.8,457.1
			L-306.8,457.1z"/>
		<path class="st1" d="M-169.3,461c-10.5,0.7-18.8,6-22.9,16.3c-4.1,8.7-11.7,14.9-25.9,16.6c3.1,1.5,7,2.5,13.5,1.6
			c-7.3,6.4-16.7,10.7-32.5,10.3c-7.3-0.3-14.1,1.8-20,6h-0.1c-3.3,2.3-6.2,5.3-8.8,8.9c1.2-3.2,2.9-6.1,5-8.9l0,0
			c7.6-10.1,20.3-17.5,34.1-21.6c20-5.6,25-19.1,32.4-26c-9.1,5.9-16.2,19.2-32.7,24.2c-15.5,4.3-27.8,13.1-35.5,23.4l0,0
			c-1.4,1.9-2.6,3.7-3.7,5.7c0.3-1.7,0.8-3.6,1.6-5.7l0,0c2.7-6.7,8.4-14.7,19.1-20.8c12.5-6.3,22.6-19.3,27.7-33.3
			c1.1,3.2,1.8,6.6,1.6,10.6C-205,453.9-187.1,448.7-169.3,461L-169.3,461z"/>
		<path class="st1" d="M-321.6,468.2c-0.2-4,0.5-7.4,1.6-10.6c5.1,14,15.3,26.9,27.8,33.3c10.6,6.1,16.4,14.2,19.1,20.8l0,0
			c0.8,2.1,1.3,4,1.6,5.7c-1.1-1.9-2.3-3.8-3.6-5.7l0,0c-7.7-10.3-20-19.1-35.5-23.4c-16.5-5-23.6-18.4-32.7-24.2
			c7.4,6.9,12.4,20.4,32.4,26c13.7,4.1,26.5,11.5,34.1,21.6h0.1c2.1,2.8,3.8,5.8,5,8.9c-2.6-3.6-5.6-6.6-8.8-8.9h-0.1
			c-5.9-4.2-12.8-6.3-20-6c-15.8,0.4-25.2-3.9-32.5-10.3c6.5,0.9,10.4-0.1,13.5-1.6c-14.1-1.7-21.7-7.9-25.9-16.6
			c-4-10.2-12.4-15.6-22.9-16.3C-350.8,448.7-332.9,453.9-321.6,468.2L-321.6,468.2z"/>
		<path class="st1" d="M-139.1,489.4c1.9-1.4,3.3-3.1,4.3-5.1c1.2,10-1.4,17.4-6.6,23c10.7-4.4,15.9,4.3,23.6,4.3l-0.1,0.1h-0.1
			c-7.4,7.4-15.7,10.6-25.5,6.3c2.6,2.7,3.9,5.8,3.8,9.5c-5.7,0.1-9.7-1.3-13.3-3.3c4.1,4.2,4.8,9,3.6,14.2c-3.7-1.7-7.7-3-14.8-2.1
			c-5.4,0.9-9.8-0.1-13.3-2.3c1.8,3.4,3.1,7.1,3.8,11.1c3.9,35.7-52.9,31-43.9,2.6c2.9-7.6,13.2-8.3,15.8-1.2
			c1.9,5.7-5.4,9.9-8.9,5.8c-2.1,20.1,22.8,21.2,29.5,6.2c-4.5,4.3-10.5,5.5-17.9,3.6c1.2-7.5,15.6-6.7,12.5-22.6
			c-1.1,2.1-3.2,3.3-5.6,4.1c2.2-8,0.8-19.1-11-24.9c12.2,9.3-5.4,24.5-15.8,7.8c-8.6-10.8-24.4-9.8-37-2.4
			c10.2-10.1,29.3-11.2,43.6-1.9c-16.6-12.9-38.2-8.3-52.5,5.1c4.6-7.4,11.2-12.5,18.7-15.6h0.1c12.5-5.1,27.6-4.7,40.8,0h0.2
			c1.9,0.7,3.8,1.5,5.7,2.4c0-0.8,0-1.6,0.1-2.4l0,0c0.5-8.4,3.4-15.1,17.5-14c-2.2,2.8-0.9,9.5-3.3,14l0,0
			c-1.5,2.7-4.5,4.6-10.8,4.2c2.1,1.2,4.2,2.5,6.1,4c5.9,1.5,11.8,0.4,16.3-7.7c0.1-0.1,0.2-0.3,0.2-0.4l0,0c4.3-7,12.4-5.1,11.7,0
			l0,0c-0.1,0.8-0.4,1.7-1,2.7c1.2-0.8,2.3-1.7,3.3-2.7h0.1c3.2-3.1,5.4-6.9,6.3-11.8c2.2,3.7,1.9,8.8,0.7,11.8l0,0
			c-0.1,0.4-0.3,0.7-0.5,1c0.4-0.3,0.7-0.6,1.1-1h0.1c6.5-6.8,10.6-23,2.5-31.9c-7.6-7.4-20.6-5.4-20,4.1c3-4.4,12.9-1.3,8.6,6.4
			c-4.8,7.4-16.9,4.6-17.7-5.8C-179,463.3-141.6,465.8-139.1,489.4L-139.1,489.4z"/>
		<path class="st1" d="M-359.9,484.6c-0.8,10.4-12.9,13.2-17.7,5.8c-4.3-7.7,5.6-10.9,8.6-6.4c0.6-9.6-12.3-11.6-20-4.1
			c-8.1,8.9-4,25.1,2.5,31.9l0,0c0.3,0.4,0.7,0.7,1.1,1c-0.2-0.3-0.4-0.6-0.5-1l0,0c-1.2-3-1.5-8.1,0.7-11.8
			c0.9,4.8,3.1,8.7,6.3,11.8h0.1c1,1,2.1,1.9,3.3,2.7c-0.6-1-0.9-1.9-1-2.7l0,0c-0.6-5.1,7.5-7,11.7,0l0,0c0.1,0.1,0.2,0.3,0.2,0.4
			c4.5,8.2,10.5,9.2,16.4,7.7c1.9-1.4,4-2.8,6.1-4c-6.2,0.4-9.2-1.4-10.8-4.2l0,0c-2.4-4.5-1.1-11.2-3.3-14c14.2-1.1,17,5.6,17.5,14
			c0,0.8,0.1,1.6,0.1,2.4c1.8-0.9,3.7-1.7,5.7-2.4h0.2c13.2-4.7,28.3-5.1,40.8,0h0.1c7.5,3.1,14.1,8.2,18.7,15.6
			c-14.4-13.4-36-18-52.5-5.1c14.4-9.4,33.5-8.2,43.6,1.9c-12.7-7.3-28.4-8.3-37,2.4c-10.5,16.7-28,1.5-15.9-7.8
			c-11.8,5.8-13.2,16.9-11,24.9c-2.5-0.8-4.5-2-5.6-4.1c-3.1,15.9,11.3,15.1,12.5,22.6c-7.4,1.9-13.4,0.7-17.9-3.6
			c6.7,15,31.5,13.9,29.5-6.2c-3.5,4.1-10.8-0.1-8.9-5.8c2.6-7.1,12.9-6.4,15.8,1.2c9,28.4-47.8,33.1-43.9-2.6c0.7-4,2-7.7,3.8-11.1
			c-3.4,2.2-7.8,3.2-13.3,2.3c-7-1-11.1,0.4-14.8,2.1c-1.2-5.2-0.5-10,3.6-14.2c-3.5,2-7.6,3.4-13.2,3.3c0-3.6,1.2-6.8,3.8-9.5
			c-9.8,4.3-18.1,1.1-25.5-6.3h-0.1l-0.1-0.1c7.7,0,13-8.7,23.6-4.3c-5.2-5.6-7.8-13-6.6-23c1.1,2,2.5,3.7,4.3,5.1
			C-396.3,465.8-358.9,463.3-359.9,484.6L-359.9,484.6z"/>
		<path class="st1" d="M-145,511.8L-145,511.8c-12.1,10.7-25.6,13.6-39.8,12.4c0.6,0.6,1.2,1.2,1.7,1.8c7.4,0.1,15.6,1.8,22.2,4.7
			c-1.9-1.9-4.1-3.6-7-4.7c8.6-2.5,16.8-6,23.1-14.2h0.1c0.2-0.2,0.3-0.5,0.5-0.7C-144.4,511.3-144.7,511.5-145,511.8L-145,511.8z"
			/>
		<path class="st1" d="M-393.2,511.8L-393.2,511.8c6.4,8.2,14.5,11.7,23.2,14.2c-2.9,1.1-5.2,2.8-7,4.7c6.6-2.9,14.8-4.6,22.2-4.7
			c0.6-0.6,1.1-1.2,1.7-1.8c-14.2,1.3-27.7-1.7-39.7-12.4h-0.1c-0.2-0.2-0.5-0.5-0.8-0.7C-393.5,511.3-393.4,511.5-393.2,511.8
			L-393.2,511.8z"/>
		<path class="st1" d="M-221.5,538.7c-20,16.4-29.9-1.3-46.5-6.7c6.2-3.7,13.6-2.1,21.5,1.7c-2.2-1.9-5-3.8-9.6-5.3
			C-240.6,520.5-230.1,536.2-221.5,538.7L-221.5,538.7z"/>
		<path class="st1" d="M-281.8,528.5c-4.6,1.5-7.4,3.3-9.6,5.3c7.9-3.8,15.2-5.4,21.5-1.7c-16.5,5.4-26.4,23.1-46.5,6.7
			C-307.8,536.2-297.3,520.5-281.8,528.5L-281.8,528.5z"/>
		<path class="st1" d="M-249.4,546.2c10.1-0.7,14.5,2.8,16.3,8.2c-2.7-1.1-5.9-1.6-9.3-1.7c9.1,2.8,15.1,8.4,18.4,16.6
			c3.8,8.4,10.1,12.3,17.5,14.6c-18.2,5.9-39,1.3-47.3-16.5c0.2,3.6,1.2,7.3,2.8,10.9c-9-3.2-12.3-8.2-12.9-14.2
			c-1.3-7.3-1.1-14.2-3.2-17.8c5,5.4,11.6,10.3,18.8,15c11.1,6.6,13.6,15.8,20.5,15.8c-7.5-3.5-11-13.1-19.3-17.8
			c5.6,1.8,9.2,4.1,12.3,6.4c-1.8-3.8-7-7.1-13.5-9.1c-12-4.9-18.4-10.9-17.8-14.4C-264.1,545-259.2,546.7-249.4,546.2L-249.4,546.2
			z"/>
		<path class="st1" d="M-289.4,556.6c-6.5,2-11.7,5.2-13.5,9.1c3.2-2.3,6.8-4.6,12.3-6.4c-8.3,4.7-11.7,14.3-19.3,17.8
			c6.9,0,9.4-9.1,20.5-15.8c7.2-4.6,13.7-9.5,18.7-15c-2.1,3.6-2,10.4-3.2,17.8c-0.6,6-4,11-12.9,14.2c1.5-3.6,2.6-7.3,2.8-10.9
			c-8.4,17.9-29.1,22.4-47.4,16.5c7.3-2.3,13.7-6.3,17.5-14.6c3.3-8.2,9.3-13.8,18.4-16.6c-3.5,0.1-6.7,0.6-9.3,1.7
			c1.8-5.3,6.2-8.9,16.3-8.2c9.7,0.4,14.7-1.2,17-4C-271,545.7-277.4,551.7-289.4,556.6L-289.4,556.6z"/>
		<path class="st1" d="M-151.9,549.5c0,2.7-2.3,4.9-5.2,4.9c-2.9,0-5.2-2.2-5.2-4.9c0-2.7,2.3-4.9,5.2-4.9S-151.9,546.8-151.9,549.5
			L-151.9,549.5z"/>
		<path class="st1" d="M-375.6,549.5c0,2.7-2.3,4.9-5.2,4.9c-2.9,0-5.2-2.2-5.2-4.9c0-2.7,2.3-4.9,5.2-4.9
			C-378,544.6-375.6,546.8-375.6,549.5L-375.6,549.5z"/>
		<path class="st1" d="M-251.9,582.9c13.9,4.3,18.9,14.8,20.3,27.9c-17.3-0.7-28-10-29.7-27c2.4,2.3,5.3,4.5,9.2,6.3
			c4.7,2.1,7.8,5.1,9.4,8.8c-0.6-4-2.5-7.6-7.7-10.4c-9.9-5.4-13.2-10.8-14.8-16.1C-262.2,576.2-259.3,580.1-251.9,582.9
			L-251.9,582.9z"/>
		<path class="st1" d="M-287.5,588.5c-5.2,2.8-7.1,6.4-7.7,10.4c1.7-3.7,4.7-6.7,9.4-8.8c3.9-1.8,6.8-3.9,9.2-6.3
			c-1.8,17-12.4,26.3-29.7,27c1.5-13.1,6.4-23.7,20.3-27.9c7.5-2.8,10.3-6.7,13.3-10.6C-274.3,577.7-277.6,583.1-287.5,588.5
			L-287.5,588.5z"/>
		<path class="st1" d="M-260.4,600.1c4.8,11.1,0.1,21-8.5,30.5l0,0l0,0l0,0l0,0c-8.6-9.5-13.3-19.4-8.5-30.5
			c3.4-7.2,6.4-14.6,8.5-21.8l0,0C-266.8,585.5-263.8,592.8-260.4,600.1L-260.4,600.1z"/>
		<path class="st1" d="M-211.6,598c-4.6-0.2-13.9,8.1-15.6-5C-222.9,594-218,588.1-211.6,598L-211.6,598z"/>
		<path class="st1" d="M-310.8,593c-1.7,13.1-11,4.8-15.6,5c3.2-4.9,6.1-5.9,8.6-5.8C-315.1,592.3-312.9,593.5-310.8,593L-310.8,593
			z"/>
		<path class="st1" d="M-264.7,641.8c0,2.1-1.9,3.8-4.1,3.8h-0.3c-2.3,0-4.1-1.7-4.1-3.8c0-2.1,1.8-3.9,4.1-3.9h0.1h0.1
			C-266.6,638-264.7,639.7-264.7,641.8L-264.7,641.8z"/>
		<path class="st1" d="M-268.7,354.5c-12.4-9.6-3.1-19.6,0-28.7C-265.6,334.9-256.4,344.9-268.7,354.5L-268.7,354.5z"/>
		<path class="st1" d="M-238.5,371.6c-3.4-8.8,1-13.7,9-16.7C-231.5,359.5-227.9,370.3-238.5,371.6L-238.5,371.6z"/>
		<path class="st1" d="M-299.4,371.6c-10.6-1.3-7-12-9-16.7C-300.4,357.9-296,362.8-299.4,371.6L-299.4,371.6z"/>
		<path class="st1" d="M-252,365.3c-2.8-0.5-5.1-0.1-7.3,0.4c-0.4-2-1.2-3.9-2.9-5.6C-259.6,351.7-246.3,357-252,365.3L-252,365.3z"
			/>
		<path class="st1" d="M-275.8,360c-1.6,1.8-2.5,3.7-2.9,5.6c-2.2-0.5-4.5-0.9-7.3-0.4C-291.6,357-278.3,351.7-275.8,360L-275.8,360
			z"/>
		<path class="st1" d="M-262.3,369.6c-1.9-1-4.3-1.4-6.7-1.3c-2.4-0.1-4.7,0.4-6.7,1.3c-2.2-5.5,2.2-9.2,6.7-9.2
			C-264.5,360.5-260.1,364.1-262.3,369.6L-262.3,369.6z"/>
		<path class="st1" d="M-247.6,397.7c-8.7,1.7-13.9,8.2-16.2,17.4c1.2-14.6,10.1-23,23.3-27.9c-13.8,3.2-23.4,12.3-25.6,29.1
			c-0.1-16,4.4-30.2,22.2-35.9c10.7-3,16.3-7.7,18.3-14C-220.7,383.6-231.2,395.1-247.6,397.7L-247.6,397.7z"/>
		<path class="st1" d="M-294,380.5c17.8,5.7,22.3,19.9,22.2,35.9c-2.3-16.8-11.8-26-25.6-29.1c13.2,4.9,22.1,13.3,23.3,27.9
			c-2.2-9.2-7.5-15.7-16.2-17.4c-16.4-2.5-26.9-14-22-31.2C-310.3,372.7-304.7,377.5-294,380.5L-294,380.5z"/>
		<path class="st1" d="M-256.6,378.9c-0.1-2.9-1.2-5.6-3.6-8.3C-250.2,359.7-239.9,376.8-256.6,378.9L-256.6,378.9z"/>
		<path class="st1" d="M-277.7,370.6c-2.4,2.7-3.5,5.4-3.6,8.3C-298,376.8-287.7,359.7-277.7,370.6L-277.7,370.6z"/>
		<path class="st1" d="M-260.3,379.2c0,4.4-3.9,8.1-8.6,8.1h-0.2c-4.8,0-8.6-3.6-8.6-8.1c0-4.4,3.9-8.1,8.6-8.1c0,0,0,0,0.1,0h0.1
			C-264.1,371.2-260.3,374.8-260.3,379.2L-260.3,379.2z"/>
		<path class="st1" d="M-213.4,389.8c0,2.3-2,4.2-4.5,4.2s-4.5-1.9-4.5-4.2s2-4.2,4.5-4.2C-215.4,385.6-213.4,387.5-213.4,389.8
			L-213.4,389.8z"/>
		<path class="st1" d="M-315.5,389.8c0,2.3-2,4.2-4.5,4.2s-4.5-1.9-4.5-4.2s2-4.2,4.5-4.2C-317.5,385.6-315.5,387.5-315.5,389.8
			L-315.5,389.8z"/>
		<path class="st1" d="M-195.8,422.5c0,0.2,0.1,0.4,0.1,0.6c9.1,2.2,11.4,8.5,10.4,15.1c-0.8,3.5-0.7,6.2,1.4,9.9
			c-8.4-1.2-13-4.7-12.7-11.5c-5.9,15.8-28.7,19.9-35.2,5c-1.4-3.5-0.9-9.4,4.7-11.2c9.2-2.6,14.5,8.8,5,11.8
			c10.3,5.4,25.3-4.8,22.2-20.7c-2.2,4.8-6.3,7.6-10.4,7.7c3.9-9.3-2.6-17.5-16.7-20.1c7.7,4.7,1,15-10.4,12.2
			c-18-2.2-27.1,16-29.8,33.1C-274.7,401.9-207,382.7-195.8,422.5L-195.8,422.5z"/>
		<path class="st1" d="M-270.8,454.6c-2.7-17.1-11.8-35.3-29.8-33.1c-11.4,2.8-18.1-7.5-10.4-12.2c-14.1,2.6-20.5,10.7-16.7,20.1
			c-4.1-0.1-8.2-2.9-10.4-7.7c-3.1,15.9,11.9,26.1,22.2,20.7c-9.5-3-4.2-14.4,5-11.8c5.6,1.8,6.1,7.7,4.7,11.2
			c-6.7,15.3-30.7,10.6-35.7-6.5c1.3,7.8-3.4,11.7-12.2,13c2-3.7,2.2-6.4,1.4-9.9c-1-6.7,1.4-12.9,10.4-15.1c0-0.2,0.1-0.4,0.1-0.6
			C-331,382.7-263.2,401.9-270.8,454.6L-270.8,454.6z"/>
		<path class="st1" d="M-262,454.4c1.9-11.8,10.1-20.3,21.2-25.5C-246.6,438.6-250.4,449.7-262,454.4L-262,454.4z"/>
		<path class="st1" d="M-275.9,454.4c-11.6-4.7-15.5-15.8-21.2-25.5C-286,434.1-277.8,442.6-275.9,454.4L-275.9,454.4z"/>
		<path class="st1" d="M-347,439.1c1.9-1.8,3.5-3.8,4.6-5.9c-0.2-1.2-0.4-2.4-0.4-3.7C-343.7,432.3-345.1,435.4-347,439.1
			L-347,439.1z"/>
		<path class="st1" d="M-195.5,433.1c1.1,2.2,2.7,4.1,4.6,5.9c-1.9-3.6-3.3-6.8-4.2-9.6C-195.1,430.8-195.3,432-195.5,433.1
			L-195.5,433.1z"/>
		<path class="st1" d="M-168.5,448.4c-12.9,5.5-10.1-6.2-12.7-9.8C-168.8,438.6-171.6,445.5-168.5,448.4L-168.5,448.4z"/>
		<path class="st1" d="M-356.7,438.6c-2.6,3.6,0.2,15.3-12.7,9.8C-366.3,445.5-369.1,438.6-356.7,438.6L-356.7,438.6z"/>
		<path class="st1" d="M-252.9,489.4c-7.1,4.7-10.7,9.7-12.4,14.8c-0.5-15.7,15.6-25.7,16.9-40.1c-4,13.9-14.3,19.4-17.1,29.5
			c-4.2-15.9-0.9-28,7.3-37.5c-1.4,4.6-1.2,9.3,0.1,14.1c0.7-8.7,6.2-16.5,16.7-23.2C-235.2,467.2-240.2,481.4-252.9,489.4
			L-252.9,489.4z"/>
		<path class="st1" d="M-279.9,470.2c1.2-4.8,1.5-9.5,0.1-14.1c8.3,9.5,11.5,21.6,7.3,37.5c-2.8-10.1-13.1-15.6-17.1-29.5
			c1.3,14.3,17.4,24.3,16.9,40.1c-1.7-5.1-5.3-10.1-12.4-14.8c-12.7-8.1-17.7-22.2-11.6-42.5C-286.1,453.7-280.6,461.5-279.9,470.2
			L-279.9,470.2z"/>
		<path class="st1" d="M-223.2,457.1c0,2-1.8,3.7-4,3.7s-4-1.7-4-3.7s1.8-3.7,4-3.7C-224.9,453.4-223.2,455-223.2,457.1
			L-223.2,457.1z"/>
		<path class="st1" d="M-306.8,457.1c0,2-1.8,3.7-4,3.7c-2.2,0-4-1.7-4-3.7s1.8-3.7,4-3.7C-308.6,453.4-306.8,455-306.8,457.1
			L-306.8,457.1z"/>
		<path class="st1" d="M-169.3,461c-10.5,0.7-18.8,6-22.9,16.3c-4.1,8.7-11.7,14.9-25.9,16.6c3.1,1.5,7,2.5,13.5,1.6
			c-7.3,6.4-16.7,10.7-32.5,10.3c-7.3-0.3-14.1,1.8-20,6h-0.1c-3.3,2.3-6.2,5.3-8.8,8.9c1.2-3.2,2.9-6.1,5-8.9l0,0
			c7.6-10.1,20.3-17.5,34.1-21.6c20-5.6,25-19.1,32.4-26c-9.1,5.9-16.2,19.2-32.7,24.2c-15.5,4.3-27.8,13.1-35.5,23.4l0,0
			c-1.4,1.9-2.6,3.7-3.7,5.7c0.3-1.7,0.8-3.6,1.6-5.7l0,0c2.7-6.7,8.4-14.7,19.1-20.8c12.5-6.3,22.6-19.3,27.7-33.3
			c1.1,3.2,1.8,6.6,1.6,10.6C-205,453.9-187.1,448.7-169.3,461L-169.3,461z"/>
		<path class="st1" d="M-321.6,468.2c-0.2-4,0.5-7.4,1.6-10.6c5.1,14,15.3,26.9,27.8,33.3c10.6,6.1,16.4,14.2,19.1,20.8l0,0
			c0.8,2.1,1.3,4,1.6,5.7c-1.1-1.9-2.3-3.8-3.6-5.7l0,0c-7.7-10.3-20-19.1-35.5-23.4c-16.5-5-23.6-18.4-32.7-24.2
			c7.4,6.9,12.4,20.4,32.4,26c13.7,4.1,26.5,11.5,34.1,21.6h0.1c2.1,2.8,3.8,5.8,5,8.9c-2.6-3.6-5.6-6.6-8.8-8.9h-0.1
			c-5.9-4.2-12.8-6.3-20-6c-15.8,0.4-25.2-3.9-32.5-10.3c6.5,0.9,10.4-0.1,13.5-1.6c-14.1-1.7-21.7-7.9-25.9-16.6
			c-4-10.2-12.4-15.6-22.9-16.3C-350.8,448.7-332.9,453.9-321.6,468.2L-321.6,468.2z"/>
		<path class="st1" d="M-139.1,489.4c1.9-1.4,3.3-3.1,4.3-5.1c1.2,10-1.4,17.4-6.6,23c10.7-4.4,15.9,4.3,23.6,4.3l-0.1,0.1h-0.1
			c-7.4,7.4-15.7,10.6-25.5,6.3c2.6,2.7,3.9,5.8,3.8,9.5c-5.7,0.1-9.7-1.3-13.3-3.3c4.1,4.2,4.8,9,3.6,14.2c-3.7-1.7-7.7-3-14.8-2.1
			c-5.4,0.9-9.8-0.1-13.3-2.3c1.8,3.4,3.1,7.1,3.8,11.1c3.9,35.7-52.9,31-43.9,2.6c2.9-7.6,13.2-8.3,15.8-1.2
			c1.9,5.7-5.4,9.9-8.9,5.8c-2.1,20.1,22.8,21.2,29.5,6.2c-4.5,4.3-10.5,5.5-17.9,3.6c1.2-7.5,15.6-6.7,12.5-22.6
			c-1.1,2.1-3.2,3.3-5.6,4.1c2.2-8,0.8-19.1-11-24.9c12.2,9.3-5.4,24.5-15.8,7.8c-8.6-10.8-24.4-9.8-37-2.4
			c10.2-10.1,29.3-11.2,43.6-1.9c-16.6-12.9-38.2-8.3-52.5,5.1c4.6-7.4,11.2-12.5,18.7-15.6h0.1c12.5-5.1,27.6-4.7,40.8,0h0.2
			c1.9,0.7,3.8,1.5,5.7,2.4c0-0.8,0-1.6,0.1-2.4l0,0c0.5-8.4,3.4-15.1,17.5-14c-2.2,2.8-0.9,9.5-3.3,14l0,0
			c-1.5,2.7-4.5,4.6-10.8,4.2c2.1,1.2,4.2,2.5,6.1,4c5.9,1.5,11.8,0.4,16.3-7.7c0.1-0.1,0.2-0.3,0.2-0.4l0,0c4.3-7,12.4-5.1,11.7,0
			l0,0c-0.1,0.8-0.4,1.7-1,2.7c1.2-0.8,2.3-1.7,3.3-2.7h0.1c3.2-3.1,5.4-6.9,6.3-11.8c2.2,3.7,1.9,8.8,0.7,11.8l0,0
			c-0.1,0.4-0.3,0.7-0.5,1c0.4-0.3,0.7-0.6,1.1-1h0.1c6.5-6.8,10.6-23,2.5-31.9c-7.6-7.4-20.6-5.4-20,4.1c3-4.4,12.9-1.3,8.6,6.4
			c-4.8,7.4-16.9,4.6-17.7-5.8C-179,463.3-141.6,465.8-139.1,489.4L-139.1,489.4z"/>
		<path class="st1" d="M-359.9,484.6c-0.8,10.4-12.9,13.2-17.7,5.8c-4.3-7.7,5.6-10.9,8.6-6.4c0.6-9.6-12.3-11.6-20-4.1
			c-8.1,8.9-4,25.1,2.5,31.9l0,0c0.3,0.4,0.7,0.7,1.1,1c-0.2-0.3-0.4-0.6-0.5-1l0,0c-1.2-3-1.5-8.1,0.7-11.8
			c0.9,4.8,3.1,8.7,6.3,11.8h0.1c1,1,2.1,1.9,3.3,2.7c-0.6-1-0.9-1.9-1-2.7l0,0c-0.6-5.1,7.5-7,11.7,0l0,0c0.1,0.1,0.2,0.3,0.2,0.4
			c4.5,8.2,10.5,9.2,16.4,7.7c1.9-1.4,4-2.8,6.1-4c-6.2,0.4-9.2-1.4-10.8-4.2l0,0c-2.4-4.5-1.1-11.2-3.3-14c14.2-1.1,17,5.6,17.5,14
			c0,0.8,0.1,1.6,0.1,2.4c1.8-0.9,3.7-1.7,5.7-2.4h0.2c13.2-4.7,28.3-5.1,40.8,0h0.1c7.5,3.1,14.1,8.2,18.7,15.6
			c-14.4-13.4-36-18-52.5-5.1c14.4-9.4,33.5-8.2,43.6,1.9c-12.7-7.3-28.4-8.3-37,2.4c-10.5,16.7-28,1.5-15.9-7.8
			c-11.8,5.8-13.2,16.9-11,24.9c-2.5-0.8-4.5-2-5.6-4.1c-3.1,15.9,11.3,15.1,12.5,22.6c-7.4,1.9-13.4,0.7-17.9-3.6
			c6.7,15,31.5,13.9,29.5-6.2c-3.5,4.1-10.8-0.1-8.9-5.8c2.6-7.1,12.9-6.4,15.8,1.2c9,28.4-47.8,33.1-43.9-2.6c0.7-4,2-7.7,3.8-11.1
			c-3.4,2.2-7.8,3.2-13.3,2.3c-7-1-11.1,0.4-14.8,2.1c-1.2-5.2-0.5-10,3.6-14.2c-3.5,2-7.6,3.4-13.2,3.3c0-3.6,1.2-6.8,3.8-9.5
			c-9.8,4.3-18.1,1.1-25.5-6.3h-0.1l-0.1-0.1c7.7,0,13-8.7,23.6-4.3c-5.2-5.6-7.8-13-6.6-23c1.1,2,2.5,3.7,4.3,5.1
			C-396.3,465.8-358.9,463.3-359.9,484.6L-359.9,484.6z"/>
		<path class="st1" d="M-145,511.8L-145,511.8c-12.1,10.7-25.6,13.6-39.8,12.4c0.6,0.6,1.2,1.2,1.7,1.8c7.4,0.1,15.6,1.8,22.2,4.7
			c-1.9-1.9-4.1-3.6-7-4.7c8.6-2.5,16.8-6,23.1-14.2h0.1c0.2-0.2,0.3-0.5,0.5-0.7C-144.4,511.3-144.7,511.5-145,511.8L-145,511.8z"
			/>
		<path class="st1" d="M-393.2,511.8L-393.2,511.8c6.4,8.2,14.5,11.7,23.2,14.2c-2.9,1.1-5.2,2.8-7,4.7c6.6-2.9,14.8-4.6,22.2-4.7
			c0.6-0.6,1.1-1.2,1.7-1.8c-14.2,1.3-27.7-1.7-39.7-12.4h-0.1c-0.2-0.2-0.5-0.5-0.8-0.7C-393.5,511.3-393.4,511.5-393.2,511.8
			L-393.2,511.8z"/>
		<path class="st1" d="M-221.5,538.7c-20,16.4-29.9-1.3-46.5-6.7c6.2-3.7,13.6-2.1,21.5,1.7c-2.2-1.9-5-3.8-9.6-5.3
			C-240.6,520.5-230.1,536.2-221.5,538.7L-221.5,538.7z"/>
		<path class="st1" d="M-281.8,528.5c-4.6,1.5-7.4,3.3-9.6,5.3c7.9-3.8,15.2-5.4,21.5-1.7c-16.5,5.4-26.4,23.1-46.5,6.7
			C-307.8,536.2-297.3,520.5-281.8,528.5L-281.8,528.5z"/>
		<path class="st1" d="M-249.4,546.2c10.1-0.7,14.5,2.8,16.3,8.2c-2.7-1.1-5.9-1.6-9.3-1.7c9.1,2.8,15.1,8.4,18.4,16.6
			c3.8,8.4,10.1,12.3,17.5,14.6c-18.2,5.9-39,1.3-47.3-16.5c0.2,3.6,1.2,7.3,2.8,10.9c-9-3.2-12.3-8.2-12.9-14.2
			c-1.3-7.3-1.1-14.2-3.2-17.8c5,5.4,11.6,10.3,18.8,15c11.1,6.6,13.6,15.8,20.5,15.8c-7.5-3.5-11-13.1-19.3-17.8
			c5.6,1.8,9.2,4.1,12.3,6.4c-1.8-3.8-7-7.1-13.5-9.1c-12-4.9-18.4-10.9-17.8-14.4C-264.1,545-259.2,546.7-249.4,546.2L-249.4,546.2
			z"/>
		<path class="st1" d="M-289.4,556.6c-6.5,2-11.7,5.2-13.5,9.1c3.2-2.3,6.8-4.6,12.3-6.4c-8.3,4.7-11.7,14.3-19.3,17.8
			c6.9,0,9.4-9.1,20.5-15.8c7.2-4.6,13.7-9.5,18.7-15c-2.1,3.6-2,10.4-3.2,17.8c-0.6,6-4,11-12.9,14.2c1.5-3.6,2.6-7.3,2.8-10.9
			c-8.4,17.9-29.1,22.4-47.4,16.5c7.3-2.3,13.7-6.3,17.5-14.6c3.3-8.2,9.3-13.8,18.4-16.6c-3.5,0.1-6.7,0.6-9.3,1.7
			c1.8-5.3,6.2-8.9,16.3-8.2c9.7,0.4,14.7-1.2,17-4C-271,545.7-277.4,551.7-289.4,556.6L-289.4,556.6z"/>
		<path class="st1" d="M-151.9,549.5c0,2.7-2.3,4.9-5.2,4.9c-2.9,0-5.2-2.2-5.2-4.9c0-2.7,2.3-4.9,5.2-4.9S-151.9,546.8-151.9,549.5
			L-151.9,549.5z"/>
		<path class="st1" d="M-375.6,549.5c0,2.7-2.3,4.9-5.2,4.9c-2.9,0-5.2-2.2-5.2-4.9c0-2.7,2.3-4.9,5.2-4.9
			C-378,544.6-375.6,546.8-375.6,549.5L-375.6,549.5z"/>
		<path class="st1" d="M-251.9,582.9c13.9,4.3,18.9,14.8,20.3,27.9c-17.3-0.7-28-10-29.7-27c2.4,2.3,5.3,4.5,9.2,6.3
			c4.7,2.1,7.8,5.1,9.4,8.8c-0.6-4-2.5-7.6-7.7-10.4c-9.9-5.4-13.2-10.8-14.8-16.1C-262.2,576.2-259.3,580.1-251.9,582.9
			L-251.9,582.9z"/>
		<path class="st1" d="M-287.5,588.5c-5.2,2.8-7.1,6.4-7.7,10.4c1.7-3.7,4.7-6.7,9.4-8.8c3.9-1.8,6.8-3.9,9.2-6.3
			c-1.8,17-12.4,26.3-29.7,27c1.5-13.1,6.4-23.7,20.3-27.9c7.5-2.8,10.3-6.7,13.3-10.6C-274.3,577.7-277.6,583.1-287.5,588.5
			L-287.5,588.5z"/>
		<path class="st1" d="M-260.4,600.1c4.8,11.1,0.1,21-8.5,30.5l0,0l0,0l0,0l0,0c-8.6-9.5-13.3-19.4-8.5-30.5
			c3.4-7.2,6.4-14.6,8.5-21.8l0,0C-266.8,585.5-263.8,592.8-260.4,600.1L-260.4,600.1z"/>
		<path class="st1" d="M-211.6,598c-4.6-0.2-13.9,8.1-15.6-5C-222.9,594-218,588.1-211.6,598L-211.6,598z"/>
		<path class="st1" d="M-310.8,593c-1.7,13.1-11,4.8-15.6,5c3.2-4.9,6.1-5.9,8.6-5.8C-315.1,592.3-312.9,593.5-310.8,593L-310.8,593
			z"/>
		<path class="st1" d="M-264.7,641.8c0,2.1-1.9,3.8-4.1,3.8h-0.3c-2.3,0-4.1-1.7-4.1-3.8c0-2.1,1.8-3.9,4.1-3.9h0.1h0.1
			C-266.6,638-264.7,639.7-264.7,641.8L-264.7,641.8z"/>
	</g>
	<g class="st0">
		<path class="st1" d="M-445.7,133.6c-12.4-9.6-3.1-19.6,0-28.7C-442.6,114-433.4,124-445.7,133.6L-445.7,133.6z"/>
		<path class="st1" d="M-415.5,150.7c-3.4-8.8,1-13.7,9-16.7C-408.5,138.6-404.9,149.4-415.5,150.7L-415.5,150.7z"/>
		<path class="st1" d="M-476.4,150.7c-10.6-1.3-7-12-9-16.7C-477.4,137-473,141.9-476.4,150.7L-476.4,150.7z"/>
		<path class="st1" d="M-429,144.4c-2.8-0.5-5.1-0.1-7.3,0.4c-0.4-2-1.2-3.9-2.9-5.6C-436.6,130.8-423.3,136.1-429,144.4L-429,144.4
			z"/>
		<path class="st1" d="M-452.8,139.1c-1.6,1.8-2.5,3.7-2.9,5.6c-2.2-0.5-4.5-0.9-7.3-0.4C-468.6,136.1-455.3,130.8-452.8,139.1
			L-452.8,139.1z"/>
		<path class="st1" d="M-439.3,148.7c-1.9-1-4.3-1.4-6.7-1.3c-2.4-0.1-4.7,0.4-6.7,1.3c-2.2-5.5,2.2-9.2,6.7-9.2
			C-441.5,139.6-437.1,143.2-439.3,148.7L-439.3,148.7z"/>
		<path class="st1" d="M-424.6,176.8c-8.7,1.7-13.9,8.2-16.2,17.4c1.2-14.6,10.1-23,23.3-27.9c-13.8,3.2-23.4,12.3-25.6,29.1
			c-0.1-16,4.4-30.2,22.2-35.9c10.7-3,16.3-7.7,18.3-14C-397.7,162.7-408.2,174.2-424.6,176.8L-424.6,176.8z"/>
		<path class="st1" d="M-471,159.6c17.8,5.7,22.3,19.9,22.2,35.9c-2.3-16.8-11.8-26-25.6-29.1c13.2,4.9,22.1,13.3,23.3,27.9
			c-2.2-9.2-7.5-15.7-16.2-17.4c-16.4-2.5-26.9-14-22-31.2C-487.3,151.8-481.7,156.6-471,159.6L-471,159.6z"/>
		<path class="st1" d="M-433.6,158c-0.1-2.9-1.2-5.6-3.6-8.3C-427.2,138.8-416.9,155.9-433.6,158L-433.6,158z"/>
		<path class="st1" d="M-454.7,149.7c-2.4,2.7-3.5,5.4-3.6,8.3C-475,155.9-464.7,138.8-454.7,149.7L-454.7,149.7z"/>
		<path class="st1" d="M-437.3,158.3c0,4.4-3.9,8.1-8.6,8.1h-0.2c-4.8,0-8.6-3.6-8.6-8.1c0-4.4,3.9-8.1,8.6-8.1c0,0,0,0,0.1,0h0.1
			C-441.1,150.3-437.3,153.9-437.3,158.3L-437.3,158.3z"/>
		<path class="st1" d="M-390.4,168.9c0,2.3-2,4.2-4.5,4.2s-4.5-1.9-4.5-4.2c0-2.3,2-4.2,4.5-4.2
			C-392.4,164.7-390.4,166.6-390.4,168.9L-390.4,168.9z"/>
		<path class="st1" d="M-492.5,168.9c0,2.3-2,4.2-4.5,4.2s-4.5-1.9-4.5-4.2c0-2.3,2-4.2,4.5-4.2
			C-494.5,164.7-492.5,166.6-492.5,168.9L-492.5,168.9z"/>
		<path class="st1" d="M-372.8,201.6c0,0.2,0.1,0.4,0.1,0.6c9.1,2.2,11.4,8.5,10.4,15.1c-0.8,3.5-0.7,6.2,1.4,9.9
			c-8.4-1.2-13-4.7-12.7-11.5c-5.9,15.8-28.7,19.9-35.2,5c-1.4-3.5-0.9-9.4,4.7-11.2c9.2-2.6,14.5,8.8,5,11.8
			c10.3,5.4,25.3-4.8,22.2-20.7c-2.2,4.8-6.3,7.6-10.4,7.7c3.9-9.3-2.6-17.5-16.7-20.1c7.7,4.7,1,15-10.4,12.2
			c-18-2.2-27.1,16-29.8,33.1C-451.7,181-384,161.8-372.8,201.6L-372.8,201.6z"/>
		<path class="st1" d="M-447.8,233.7c-2.7-17.1-11.8-35.3-29.8-33.1c-11.4,2.8-18.1-7.5-10.4-12.2c-14.1,2.6-20.5,10.7-16.7,20.1
			c-4.1-0.1-8.2-2.9-10.4-7.7c-3.1,15.9,11.9,26.1,22.2,20.7c-9.5-3-4.2-14.4,5-11.8c5.6,1.8,6.1,7.7,4.7,11.2
			c-6.7,15.3-30.7,10.6-35.7-6.5c1.3,7.8-3.4,11.7-12.2,13c2-3.7,2.2-6.4,1.4-9.9c-1-6.7,1.4-12.9,10.4-15.1c0-0.2,0.1-0.4,0.1-0.6
			C-508,161.8-440.2,181-447.8,233.7L-447.8,233.7z"/>
		<path class="st1" d="M-439,233.5c1.9-11.8,10.1-20.3,21.2-25.5C-423.6,217.7-427.4,228.8-439,233.5L-439,233.5z"/>
		<path class="st1" d="M-452.9,233.5c-11.6-4.7-15.5-15.8-21.2-25.5C-463,213.2-454.8,221.7-452.9,233.5L-452.9,233.5z"/>
		<path class="st1" d="M-524,218.2c1.9-1.8,3.5-3.8,4.6-5.9c-0.2-1.2-0.4-2.4-0.4-3.7C-520.7,211.4-522.1,214.5-524,218.2
			L-524,218.2z"/>
		<path class="st1" d="M-372.5,212.2c1.1,2.2,2.7,4.1,4.6,5.9c-1.9-3.6-3.3-6.8-4.2-9.6C-372.1,209.9-372.3,211.1-372.5,212.2
			L-372.5,212.2z"/>
		<path class="st1" d="M-345.5,227.5c-12.9,5.5-10.1-6.2-12.7-9.8C-345.8,217.7-348.6,224.6-345.5,227.5L-345.5,227.5z"/>
		<path class="st1" d="M-533.7,217.7c-2.6,3.6,0.2,15.3-12.7,9.8C-543.3,224.6-546.1,217.7-533.7,217.7L-533.7,217.7z"/>
		<path class="st1" d="M-429.9,268.5c-7.1,4.7-10.7,9.7-12.4,14.8c-0.5-15.7,15.6-25.7,16.9-40.1c-4,13.9-14.3,19.4-17.1,29.5
			c-4.2-15.9-0.9-28,7.3-37.5c-1.4,4.6-1.2,9.3,0.1,14.1c0.7-8.7,6.2-16.5,16.7-23.2C-412.2,246.3-417.2,260.5-429.9,268.5
			L-429.9,268.5z"/>
		<path class="st1" d="M-456.9,249.3c1.2-4.8,1.5-9.5,0.1-14.1c8.3,9.5,11.5,21.6,7.3,37.5c-2.8-10.1-13.1-15.6-17.1-29.5
			c1.3,14.3,17.4,24.3,16.9,40.1c-1.7-5.1-5.3-10.1-12.4-14.8c-12.7-8.1-17.7-22.2-11.6-42.5C-463.1,232.8-457.6,240.6-456.9,249.3
			L-456.9,249.3z"/>
		<path class="st1" d="M-400.2,236.2c0,2-1.8,3.7-4,3.7c-2.2,0-4-1.7-4-3.7s1.8-3.7,4-3.7C-401.9,232.5-400.2,234.1-400.2,236.2
			L-400.2,236.2z"/>
		<path class="st1" d="M-483.8,236.2c0,2-1.8,3.7-4,3.7s-4-1.7-4-3.7s1.8-3.7,4-3.7C-485.6,232.5-483.8,234.1-483.8,236.2
			L-483.8,236.2z"/>
		<path class="st1" d="M-346.3,240.1c-10.5,0.7-18.8,6-22.9,16.3c-4.1,8.7-11.7,14.9-25.9,16.6c3.1,1.5,7,2.5,13.5,1.6
			c-7.3,6.4-16.7,10.7-32.5,10.3c-7.3-0.3-14.1,1.8-20,6h-0.1c-3.3,2.3-6.2,5.3-8.8,8.9c1.2-3.2,2.9-6.1,5-8.9l0,0
			c7.6-10.1,20.3-17.5,34.1-21.6c20-5.6,25-19.1,32.4-26c-9.1,5.9-16.2,19.2-32.7,24.2c-15.5,4.3-27.8,13.1-35.5,23.4l0,0
			c-1.4,1.9-2.6,3.7-3.7,5.7c0.3-1.7,0.8-3.6,1.6-5.7l0,0c2.7-6.7,8.4-14.7,19.1-20.8c12.5-6.3,22.6-19.3,27.7-33.3
			c1.1,3.2,1.8,6.6,1.6,10.6C-382,233-364.1,227.8-346.3,240.1L-346.3,240.1z"/>
		<path class="st1" d="M-498.6,247.3c-0.2-4,0.5-7.4,1.6-10.6c5.1,14,15.3,26.9,27.8,33.3c10.6,6.1,16.4,14.2,19.1,20.8l0,0
			c0.8,2.1,1.3,4,1.6,5.7c-1.1-1.9-2.3-3.8-3.6-5.7l0,0c-7.7-10.3-20-19.1-35.5-23.4c-16.5-5-23.6-18.4-32.7-24.2
			c7.4,6.9,12.4,20.4,32.4,26c13.7,4.1,26.5,11.5,34.1,21.6h0.1c2.1,2.8,3.8,5.8,5,8.9c-2.6-3.6-5.6-6.6-8.8-8.9h-0.1
			c-5.9-4.2-12.8-6.3-20-6c-15.8,0.4-25.2-3.9-32.5-10.3c6.5,0.9,10.4-0.1,13.5-1.6c-14.1-1.7-21.7-7.9-25.9-16.6
			c-4-10.2-12.4-15.6-22.9-16.3C-527.8,227.8-509.9,233-498.6,247.3L-498.6,247.3z"/>
		<path class="st1" d="M-316.1,268.5c1.9-1.4,3.3-3.1,4.3-5.1c1.2,10-1.4,17.4-6.6,23c10.7-4.4,15.9,4.3,23.6,4.3l-0.1,0.1h-0.1
			c-7.4,7.4-15.7,10.6-25.5,6.3c2.6,2.7,3.9,5.8,3.8,9.5c-5.7,0.1-9.7-1.3-13.3-3.3c4.1,4.2,4.8,9,3.6,14.2c-3.7-1.7-7.7-3-14.8-2.1
			c-5.4,0.9-9.8-0.1-13.3-2.3c1.8,3.4,3.1,7.1,3.8,11.1c3.9,35.7-52.9,31-43.9,2.6c2.9-7.6,13.2-8.3,15.8-1.2
			c1.9,5.7-5.4,9.9-8.9,5.8c-2.1,20.1,22.8,21.2,29.5,6.2c-4.5,4.3-10.5,5.5-17.9,3.6c1.2-7.5,15.6-6.7,12.5-22.6
			c-1.1,2.1-3.2,3.3-5.6,4.1c2.2-8,0.8-19.1-11-24.9c12.2,9.3-5.4,24.5-15.8,7.8c-8.6-10.8-24.4-9.8-37-2.4
			c10.2-10.1,29.3-11.2,43.6-1.9c-16.6-12.9-38.2-8.3-52.5,5.1c4.6-7.4,11.2-12.5,18.7-15.6h0.1c12.5-5.1,27.6-4.7,40.8,0h0.2
			c1.9,0.7,3.8,1.5,5.7,2.4c0-0.8,0-1.6,0.1-2.4l0,0c0.5-8.4,3.4-15.1,17.5-14c-2.2,2.8-0.9,9.5-3.3,14l0,0
			c-1.5,2.7-4.5,4.6-10.8,4.2c2.1,1.2,4.2,2.5,6.1,4c5.9,1.5,11.8,0.4,16.3-7.7c0.1-0.1,0.2-0.3,0.2-0.4l0,0c4.3-7,12.4-5.1,11.7,0
			l0,0c-0.1,0.8-0.4,1.7-1,2.7c1.2-0.8,2.3-1.7,3.3-2.7h0.1c3.2-3.1,5.4-6.9,6.3-11.8c2.2,3.7,1.9,8.8,0.7,11.8l0,0
			c-0.1,0.4-0.3,0.7-0.5,1c0.4-0.3,0.7-0.6,1.1-1h0.1c6.5-6.8,10.6-23,2.5-31.9c-7.6-7.4-20.6-5.4-20,4.1c3-4.4,12.9-1.3,8.6,6.4
			c-4.8,7.4-16.9,4.6-17.7-5.8C-356,242.4-318.6,244.9-316.1,268.5L-316.1,268.5z"/>
		<path class="st1" d="M-536.9,263.7c-0.8,10.4-12.9,13.2-17.7,5.8c-4.3-7.7,5.6-10.9,8.6-6.4c0.6-9.6-12.3-11.6-20-4.1
			c-8.1,8.9-4,25.1,2.5,31.9l0,0c0.3,0.4,0.7,0.7,1.1,1c-0.2-0.3-0.4-0.6-0.5-1l0,0c-1.2-3-1.5-8.1,0.7-11.8
			c0.9,4.8,3.1,8.7,6.3,11.8h0.1c1,1,2.1,1.9,3.3,2.7c-0.6-1-0.9-1.9-1-2.7l0,0c-0.6-5.1,7.5-7,11.7,0l0,0c0.1,0.1,0.2,0.3,0.2,0.4
			c4.5,8.2,10.5,9.2,16.4,7.7c1.9-1.4,4-2.8,6.1-4c-6.2,0.4-9.2-1.4-10.8-4.2l0,0c-2.4-4.5-1.1-11.2-3.3-14c14.2-1.1,17,5.6,17.5,14
			c0,0.8,0.1,1.6,0.1,2.4c1.8-0.9,3.7-1.7,5.7-2.4h0.2c13.2-4.7,28.3-5.1,40.8,0h0.1c7.5,3.1,14.1,8.2,18.7,15.6
			c-14.4-13.4-36-18-52.5-5.1c14.4-9.4,33.5-8.2,43.6,1.9c-12.7-7.3-28.4-8.3-37,2.4c-10.5,16.7-28,1.5-15.9-7.8
			c-11.8,5.8-13.2,16.9-11,24.9c-2.5-0.8-4.5-2-5.6-4.1c-3.1,15.9,11.3,15.1,12.5,22.6c-7.4,1.9-13.4,0.7-17.9-3.6
			c6.7,15,31.5,13.9,29.5-6.2c-3.5,4.1-10.8-0.1-8.9-5.8c2.6-7.1,12.9-6.4,15.8,1.2c9,28.4-47.8,33.1-43.9-2.6c0.7-4,2-7.7,3.8-11.1
			c-3.4,2.2-7.8,3.2-13.3,2.3c-7-1-11.1,0.4-14.8,2.1c-1.2-5.2-0.5-10,3.6-14.2c-3.5,2-7.6,3.4-13.2,3.3c0-3.6,1.2-6.8,3.8-9.5
			c-9.8,4.3-18.1,1.1-25.5-6.3h-0.1l-0.1-0.1c7.7,0,13-8.7,23.6-4.3c-5.2-5.6-7.8-13-6.6-23c1.1,2,2.5,3.7,4.3,5.1
			C-573.3,244.9-535.9,242.4-536.9,263.7L-536.9,263.7z"/>
		<path class="st1" d="M-322,290.9L-322,290.9c-12.1,10.7-25.6,13.6-39.8,12.4c0.6,0.6,1.2,1.2,1.7,1.8c7.4,0.1,15.6,1.8,22.2,4.7
			c-1.9-1.9-4.1-3.6-7-4.7c8.6-2.5,16.8-6,23.1-14.2h0.1c0.2-0.2,0.3-0.5,0.5-0.7C-321.4,290.4-321.7,290.6-322,290.9L-322,290.9z"
			/>
		<path class="st1" d="M-570.2,290.9L-570.2,290.9c6.4,8.2,14.5,11.7,23.2,14.2c-2.9,1.1-5.2,2.8-7,4.7c6.6-2.9,14.8-4.6,22.2-4.7
			c0.6-0.6,1.1-1.2,1.7-1.8c-14.2,1.3-27.7-1.7-39.7-12.4h-0.1c-0.2-0.2-0.5-0.5-0.8-0.7C-570.5,290.4-570.4,290.6-570.2,290.9
			L-570.2,290.9z"/>
		<path class="st1" d="M-398.5,317.8c-20,16.4-29.9-1.3-46.5-6.7c6.2-3.7,13.6-2.1,21.5,1.7c-2.2-1.9-5-3.8-9.6-5.3
			C-417.6,299.6-407.1,315.3-398.5,317.8L-398.5,317.8z"/>
		<path class="st1" d="M-458.8,307.6c-4.6,1.5-7.4,3.3-9.6,5.3c7.9-3.8,15.2-5.4,21.5-1.7c-16.5,5.4-26.4,23.1-46.5,6.7
			C-484.8,315.3-474.3,299.6-458.8,307.6L-458.8,307.6z"/>
		<path class="st1" d="M-426.4,325.3c10.1-0.7,14.5,2.8,16.3,8.2c-2.7-1.1-5.9-1.6-9.3-1.7c9.1,2.8,15.1,8.4,18.4,16.6
			c3.8,8.4,10.1,12.3,17.5,14.6c-18.2,5.9-39,1.3-47.3-16.5c0.2,3.6,1.2,7.3,2.8,10.9c-9-3.2-12.3-8.2-12.9-14.2
			c-1.3-7.3-1.1-14.2-3.2-17.8c5,5.4,11.6,10.3,18.8,15c11.1,6.6,13.6,15.8,20.5,15.8c-7.5-3.5-11-13.1-19.3-17.8
			c5.6,1.8,9.2,4.1,12.3,6.4c-1.8-3.8-7-7.1-13.5-9.1c-12-4.9-18.4-10.9-17.8-14.4C-441.1,324.1-436.2,325.8-426.4,325.3
			L-426.4,325.3z"/>
		<path class="st1" d="M-466.4,335.7c-6.5,2-11.7,5.2-13.5,9.1c3.2-2.3,6.8-4.6,12.3-6.4c-8.3,4.7-11.7,14.3-19.3,17.8
			c6.9,0,9.4-9.1,20.5-15.8c7.2-4.6,13.7-9.5,18.7-15c-2.1,3.6-2,10.4-3.2,17.8c-0.6,6-4,11-12.9,14.2c1.5-3.6,2.6-7.3,2.8-10.9
			c-8.4,17.9-29.1,22.4-47.4,16.5c7.3-2.3,13.7-6.3,17.5-14.6c3.3-8.2,9.3-13.8,18.4-16.6c-3.5,0.1-6.7,0.6-9.3,1.7
			c1.8-5.3,6.2-8.9,16.3-8.2c9.7,0.4,14.7-1.2,17-4C-448,324.8-454.4,330.8-466.4,335.7L-466.4,335.7z"/>
		<path class="st1" d="M-328.9,328.6c0,2.7-2.3,4.9-5.2,4.9c-2.9,0-5.2-2.2-5.2-4.9c0-2.7,2.3-4.9,5.2-4.9S-328.9,325.9-328.9,328.6
			L-328.9,328.6z"/>
		<path class="st1" d="M-552.6,328.6c0,2.7-2.3,4.9-5.2,4.9s-5.2-2.2-5.2-4.9c0-2.7,2.3-4.9,5.2-4.9
			C-555,323.7-552.6,325.9-552.6,328.6L-552.6,328.6z"/>
		<path class="st1" d="M-428.9,362c13.9,4.3,18.9,14.8,20.3,27.9c-17.3-0.7-28-10-29.7-27c2.4,2.3,5.3,4.5,9.2,6.3
			c4.7,2.1,7.8,5.1,9.4,8.8c-0.6-4-2.5-7.6-7.7-10.4c-9.9-5.4-13.2-10.8-14.8-16.1C-439.2,355.3-436.3,359.2-428.9,362L-428.9,362z"
			/>
		<path class="st1" d="M-464.5,367.6c-5.2,2.8-7.1,6.4-7.7,10.4c1.7-3.7,4.7-6.7,9.4-8.8c3.9-1.8,6.8-3.9,9.2-6.3
			c-1.8,17-12.4,26.3-29.7,27c1.5-13.1,6.4-23.7,20.3-27.9c7.5-2.8,10.3-6.7,13.3-10.6C-451.3,356.8-454.6,362.2-464.5,367.6
			L-464.5,367.6z"/>
		<path class="st1" d="M-437.4,379.2c4.8,11.1,0.1,21-8.5,30.5l0,0l0,0l0,0l0,0c-8.6-9.5-13.3-19.4-8.5-30.5
			c3.4-7.2,6.4-14.6,8.5-21.8l0,0C-443.8,364.6-440.8,371.9-437.4,379.2L-437.4,379.2z"/>
		<path class="st1" d="M-388.6,377.1c-4.6-0.2-13.9,8.1-15.6-5C-399.9,373.1-395,367.2-388.6,377.1L-388.6,377.1z"/>
		<path class="st1" d="M-487.8,372.1c-1.7,13.1-11,4.8-15.6,5c3.2-4.9,6.1-5.9,8.6-5.8C-492.1,371.4-489.9,372.6-487.8,372.1
			L-487.8,372.1z"/>
		<path class="st1" d="M-441.7,420.9c0,2.1-1.9,3.8-4.1,3.8h-0.3c-2.3,0-4.1-1.7-4.1-3.8c0-2.1,1.8-3.9,4.1-3.9h0.1h0.1
			C-443.6,417.1-441.7,418.8-441.7,420.9L-441.7,420.9z"/>
		<path class="st1" d="M-445.7,133.6c-12.4-9.6-3.1-19.6,0-28.7C-442.6,114-433.4,124-445.7,133.6L-445.7,133.6z"/>
		<path class="st1" d="M-415.5,150.7c-3.4-8.8,1-13.7,9-16.7C-408.5,138.6-404.9,149.4-415.5,150.7L-415.5,150.7z"/>
		<path class="st1" d="M-476.4,150.7c-10.6-1.3-7-12-9-16.7C-477.4,137-473,141.9-476.4,150.7L-476.4,150.7z"/>
		<path class="st1" d="M-429,144.4c-2.8-0.5-5.1-0.1-7.3,0.4c-0.4-2-1.2-3.9-2.9-5.6C-436.6,130.8-423.3,136.1-429,144.4L-429,144.4
			z"/>
		<path class="st1" d="M-452.8,139.1c-1.6,1.8-2.5,3.7-2.9,5.6c-2.2-0.5-4.5-0.9-7.3-0.4C-468.6,136.1-455.3,130.8-452.8,139.1
			L-452.8,139.1z"/>
		<path class="st1" d="M-439.3,148.7c-1.9-1-4.3-1.4-6.7-1.3c-2.4-0.1-4.7,0.4-6.7,1.3c-2.2-5.5,2.2-9.2,6.7-9.2
			C-441.5,139.6-437.1,143.2-439.3,148.7L-439.3,148.7z"/>
		<path class="st1" d="M-424.6,176.8c-8.7,1.7-13.9,8.2-16.2,17.4c1.2-14.6,10.1-23,23.3-27.9c-13.8,3.2-23.4,12.3-25.6,29.1
			c-0.1-16,4.4-30.2,22.2-35.9c10.7-3,16.3-7.7,18.3-14C-397.7,162.7-408.2,174.2-424.6,176.8L-424.6,176.8z"/>
		<path class="st1" d="M-471,159.6c17.8,5.7,22.3,19.9,22.2,35.9c-2.3-16.8-11.8-26-25.6-29.1c13.2,4.9,22.1,13.3,23.3,27.9
			c-2.2-9.2-7.5-15.7-16.2-17.4c-16.4-2.5-26.9-14-22-31.2C-487.3,151.8-481.7,156.6-471,159.6L-471,159.6z"/>
		<path class="st1" d="M-433.6,158c-0.1-2.9-1.2-5.6-3.6-8.3C-427.2,138.8-416.9,155.9-433.6,158L-433.6,158z"/>
		<path class="st1" d="M-454.7,149.7c-2.4,2.7-3.5,5.4-3.6,8.3C-475,155.9-464.7,138.8-454.7,149.7L-454.7,149.7z"/>
		<path class="st1" d="M-437.3,158.3c0,4.4-3.9,8.1-8.6,8.1h-0.2c-4.8,0-8.6-3.6-8.6-8.1c0-4.4,3.9-8.1,8.6-8.1c0,0,0,0,0.1,0h0.1
			C-441.1,150.3-437.3,153.9-437.3,158.3L-437.3,158.3z"/>
		<path class="st1" d="M-390.4,168.9c0,2.3-2,4.2-4.5,4.2s-4.5-1.9-4.5-4.2c0-2.3,2-4.2,4.5-4.2
			C-392.4,164.7-390.4,166.6-390.4,168.9L-390.4,168.9z"/>
		<path class="st1" d="M-492.5,168.9c0,2.3-2,4.2-4.5,4.2s-4.5-1.9-4.5-4.2c0-2.3,2-4.2,4.5-4.2
			C-494.5,164.7-492.5,166.6-492.5,168.9L-492.5,168.9z"/>
		<path class="st1" d="M-372.8,201.6c0,0.2,0.1,0.4,0.1,0.6c9.1,2.2,11.4,8.5,10.4,15.1c-0.8,3.5-0.7,6.2,1.4,9.9
			c-8.4-1.2-13-4.7-12.7-11.5c-5.9,15.8-28.7,19.9-35.2,5c-1.4-3.5-0.9-9.4,4.7-11.2c9.2-2.6,14.5,8.8,5,11.8
			c10.3,5.4,25.3-4.8,22.2-20.7c-2.2,4.8-6.3,7.6-10.4,7.7c3.9-9.3-2.6-17.5-16.7-20.1c7.7,4.7,1,15-10.4,12.2
			c-18-2.2-27.1,16-29.8,33.1C-451.7,181-384,161.8-372.8,201.6L-372.8,201.6z"/>
		<path class="st1" d="M-447.8,233.7c-2.7-17.1-11.8-35.3-29.8-33.1c-11.4,2.8-18.1-7.5-10.4-12.2c-14.1,2.6-20.5,10.7-16.7,20.1
			c-4.1-0.1-8.2-2.9-10.4-7.7c-3.1,15.9,11.9,26.1,22.2,20.7c-9.5-3-4.2-14.4,5-11.8c5.6,1.8,6.1,7.7,4.7,11.2
			c-6.7,15.3-30.7,10.6-35.7-6.5c1.3,7.8-3.4,11.7-12.2,13c2-3.7,2.2-6.4,1.4-9.9c-1-6.7,1.4-12.9,10.4-15.1c0-0.2,0.1-0.4,0.1-0.6
			C-508,161.8-440.2,181-447.8,233.7L-447.8,233.7z"/>
		<path class="st1" d="M-439,233.5c1.9-11.8,10.1-20.3,21.2-25.5C-423.6,217.7-427.4,228.8-439,233.5L-439,233.5z"/>
		<path class="st1" d="M-452.9,233.5c-11.6-4.7-15.5-15.8-21.2-25.5C-463,213.2-454.8,221.7-452.9,233.5L-452.9,233.5z"/>
		<path class="st1" d="M-524,218.2c1.9-1.8,3.5-3.8,4.6-5.9c-0.2-1.2-0.4-2.4-0.4-3.7C-520.7,211.4-522.1,214.5-524,218.2
			L-524,218.2z"/>
		<path class="st1" d="M-372.5,212.2c1.1,2.2,2.7,4.1,4.6,5.9c-1.9-3.6-3.3-6.8-4.2-9.6C-372.1,209.9-372.3,211.1-372.5,212.2
			L-372.5,212.2z"/>
		<path class="st1" d="M-345.5,227.5c-12.9,5.5-10.1-6.2-12.7-9.8C-345.8,217.7-348.6,224.6-345.5,227.5L-345.5,227.5z"/>
		<path class="st1" d="M-533.7,217.7c-2.6,3.6,0.2,15.3-12.7,9.8C-543.3,224.6-546.1,217.7-533.7,217.7L-533.7,217.7z"/>
		<path class="st1" d="M-429.9,268.5c-7.1,4.7-10.7,9.7-12.4,14.8c-0.5-15.7,15.6-25.7,16.9-40.1c-4,13.9-14.3,19.4-17.1,29.5
			c-4.2-15.9-0.9-28,7.3-37.5c-1.4,4.6-1.2,9.3,0.1,14.1c0.7-8.7,6.2-16.5,16.7-23.2C-412.2,246.3-417.2,260.5-429.9,268.5
			L-429.9,268.5z"/>
		<path class="st1" d="M-456.9,249.3c1.2-4.8,1.5-9.5,0.1-14.1c8.3,9.5,11.5,21.6,7.3,37.5c-2.8-10.1-13.1-15.6-17.1-29.5
			c1.3,14.3,17.4,24.3,16.9,40.1c-1.7-5.1-5.3-10.1-12.4-14.8c-12.7-8.1-17.7-22.2-11.6-42.5C-463.1,232.8-457.6,240.6-456.9,249.3
			L-456.9,249.3z"/>
		<path class="st1" d="M-400.2,236.2c0,2-1.8,3.7-4,3.7c-2.2,0-4-1.7-4-3.7s1.8-3.7,4-3.7C-401.9,232.5-400.2,234.1-400.2,236.2
			L-400.2,236.2z"/>
		<path class="st1" d="M-483.8,236.2c0,2-1.8,3.7-4,3.7s-4-1.7-4-3.7s1.8-3.7,4-3.7C-485.6,232.5-483.8,234.1-483.8,236.2
			L-483.8,236.2z"/>
		<path class="st1" d="M-346.3,240.1c-10.5,0.7-18.8,6-22.9,16.3c-4.1,8.7-11.7,14.9-25.9,16.6c3.1,1.5,7,2.5,13.5,1.6
			c-7.3,6.4-16.7,10.7-32.5,10.3c-7.3-0.3-14.1,1.8-20,6h-0.1c-3.3,2.3-6.2,5.3-8.8,8.9c1.2-3.2,2.9-6.1,5-8.9l0,0
			c7.6-10.1,20.3-17.5,34.1-21.6c20-5.6,25-19.1,32.4-26c-9.1,5.9-16.2,19.2-32.7,24.2c-15.5,4.3-27.8,13.1-35.5,23.4l0,0
			c-1.4,1.9-2.6,3.7-3.7,5.7c0.3-1.7,0.8-3.6,1.6-5.7l0,0c2.7-6.7,8.4-14.7,19.1-20.8c12.5-6.3,22.6-19.3,27.7-33.3
			c1.1,3.2,1.8,6.6,1.6,10.6C-382,233-364.1,227.8-346.3,240.1L-346.3,240.1z"/>
		<path class="st1" d="M-498.6,247.3c-0.2-4,0.5-7.4,1.6-10.6c5.1,14,15.3,26.9,27.8,33.3c10.6,6.1,16.4,14.2,19.1,20.8l0,0
			c0.8,2.1,1.3,4,1.6,5.7c-1.1-1.9-2.3-3.8-3.6-5.7l0,0c-7.7-10.3-20-19.1-35.5-23.4c-16.5-5-23.6-18.4-32.7-24.2
			c7.4,6.9,12.4,20.4,32.4,26c13.7,4.1,26.5,11.5,34.1,21.6h0.1c2.1,2.8,3.8,5.8,5,8.9c-2.6-3.6-5.6-6.6-8.8-8.9h-0.1
			c-5.9-4.2-12.8-6.3-20-6c-15.8,0.4-25.2-3.9-32.5-10.3c6.5,0.9,10.4-0.1,13.5-1.6c-14.1-1.7-21.7-7.9-25.9-16.6
			c-4-10.2-12.4-15.6-22.9-16.3C-527.8,227.8-509.9,233-498.6,247.3L-498.6,247.3z"/>
		<path class="st1" d="M-316.1,268.5c1.9-1.4,3.3-3.1,4.3-5.1c1.2,10-1.4,17.4-6.6,23c10.7-4.4,15.9,4.3,23.6,4.3l-0.1,0.1h-0.1
			c-7.4,7.4-15.7,10.6-25.5,6.3c2.6,2.7,3.9,5.8,3.8,9.5c-5.7,0.1-9.7-1.3-13.3-3.3c4.1,4.2,4.8,9,3.6,14.2c-3.7-1.7-7.7-3-14.8-2.1
			c-5.4,0.9-9.8-0.1-13.3-2.3c1.8,3.4,3.1,7.1,3.8,11.1c3.9,35.7-52.9,31-43.9,2.6c2.9-7.6,13.2-8.3,15.8-1.2
			c1.9,5.7-5.4,9.9-8.9,5.8c-2.1,20.1,22.8,21.2,29.5,6.2c-4.5,4.3-10.5,5.5-17.9,3.6c1.2-7.5,15.6-6.7,12.5-22.6
			c-1.1,2.1-3.2,3.3-5.6,4.1c2.2-8,0.8-19.1-11-24.9c12.2,9.3-5.4,24.5-15.8,7.8c-8.6-10.8-24.4-9.8-37-2.4
			c10.2-10.1,29.3-11.2,43.6-1.9c-16.6-12.9-38.2-8.3-52.5,5.1c4.6-7.4,11.2-12.5,18.7-15.6h0.1c12.5-5.1,27.6-4.7,40.8,0h0.2
			c1.9,0.7,3.8,1.5,5.7,2.4c0-0.8,0-1.6,0.1-2.4l0,0c0.5-8.4,3.4-15.1,17.5-14c-2.2,2.8-0.9,9.5-3.3,14l0,0
			c-1.5,2.7-4.5,4.6-10.8,4.2c2.1,1.2,4.2,2.5,6.1,4c5.9,1.5,11.8,0.4,16.3-7.7c0.1-0.1,0.2-0.3,0.2-0.4l0,0c4.3-7,12.4-5.1,11.7,0
			l0,0c-0.1,0.8-0.4,1.7-1,2.7c1.2-0.8,2.3-1.7,3.3-2.7h0.1c3.2-3.1,5.4-6.9,6.3-11.8c2.2,3.7,1.9,8.8,0.7,11.8l0,0
			c-0.1,0.4-0.3,0.7-0.5,1c0.4-0.3,0.7-0.6,1.1-1h0.1c6.5-6.8,10.6-23,2.5-31.9c-7.6-7.4-20.6-5.4-20,4.1c3-4.4,12.9-1.3,8.6,6.4
			c-4.8,7.4-16.9,4.6-17.7-5.8C-356,242.4-318.6,244.9-316.1,268.5L-316.1,268.5z"/>
		<path class="st1" d="M-536.9,263.7c-0.8,10.4-12.9,13.2-17.7,5.8c-4.3-7.7,5.6-10.9,8.6-6.4c0.6-9.6-12.3-11.6-20-4.1
			c-8.1,8.9-4,25.1,2.5,31.9l0,0c0.3,0.4,0.7,0.7,1.1,1c-0.2-0.3-0.4-0.6-0.5-1l0,0c-1.2-3-1.5-8.1,0.7-11.8
			c0.9,4.8,3.1,8.7,6.3,11.8h0.1c1,1,2.1,1.9,3.3,2.7c-0.6-1-0.9-1.9-1-2.7l0,0c-0.6-5.1,7.5-7,11.7,0l0,0c0.1,0.1,0.2,0.3,0.2,0.4
			c4.5,8.2,10.5,9.2,16.4,7.7c1.9-1.4,4-2.8,6.1-4c-6.2,0.4-9.2-1.4-10.8-4.2l0,0c-2.4-4.5-1.1-11.2-3.3-14c14.2-1.1,17,5.6,17.5,14
			c0,0.8,0.1,1.6,0.1,2.4c1.8-0.9,3.7-1.7,5.7-2.4h0.2c13.2-4.7,28.3-5.1,40.8,0h0.1c7.5,3.1,14.1,8.2,18.7,15.6
			c-14.4-13.4-36-18-52.5-5.1c14.4-9.4,33.5-8.2,43.6,1.9c-12.7-7.3-28.4-8.3-37,2.4c-10.5,16.7-28,1.5-15.9-7.8
			c-11.8,5.8-13.2,16.9-11,24.9c-2.5-0.8-4.5-2-5.6-4.1c-3.1,15.9,11.3,15.1,12.5,22.6c-7.4,1.9-13.4,0.7-17.9-3.6
			c6.7,15,31.5,13.9,29.5-6.2c-3.5,4.1-10.8-0.1-8.9-5.8c2.6-7.1,12.9-6.4,15.8,1.2c9,28.4-47.8,33.1-43.9-2.6c0.7-4,2-7.7,3.8-11.1
			c-3.4,2.2-7.8,3.2-13.3,2.3c-7-1-11.1,0.4-14.8,2.1c-1.2-5.2-0.5-10,3.6-14.2c-3.5,2-7.6,3.4-13.2,3.3c0-3.6,1.2-6.8,3.8-9.5
			c-9.8,4.3-18.1,1.1-25.5-6.3h-0.1l-0.1-0.1c7.7,0,13-8.7,23.6-4.3c-5.2-5.6-7.8-13-6.6-23c1.1,2,2.5,3.7,4.3,5.1
			C-573.3,244.9-535.9,242.4-536.9,263.7L-536.9,263.7z"/>
		<path class="st1" d="M-322,290.9L-322,290.9c-12.1,10.7-25.6,13.6-39.8,12.4c0.6,0.6,1.2,1.2,1.7,1.8c7.4,0.1,15.6,1.8,22.2,4.7
			c-1.9-1.9-4.1-3.6-7-4.7c8.6-2.5,16.8-6,23.1-14.2h0.1c0.2-0.2,0.3-0.5,0.5-0.7C-321.4,290.4-321.7,290.6-322,290.9L-322,290.9z"
			/>
		<path class="st1" d="M-570.2,290.9L-570.2,290.9c6.4,8.2,14.5,11.7,23.2,14.2c-2.9,1.1-5.2,2.8-7,4.7c6.6-2.9,14.8-4.6,22.2-4.7
			c0.6-0.6,1.1-1.2,1.7-1.8c-14.2,1.3-27.7-1.7-39.7-12.4h-0.1c-0.2-0.2-0.5-0.5-0.8-0.7C-570.5,290.4-570.4,290.6-570.2,290.9
			L-570.2,290.9z"/>
		<path class="st1" d="M-398.5,317.8c-20,16.4-29.9-1.3-46.5-6.7c6.2-3.7,13.6-2.1,21.5,1.7c-2.2-1.9-5-3.8-9.6-5.3
			C-417.6,299.6-407.1,315.3-398.5,317.8L-398.5,317.8z"/>
		<path class="st1" d="M-458.8,307.6c-4.6,1.5-7.4,3.3-9.6,5.3c7.9-3.8,15.2-5.4,21.5-1.7c-16.5,5.4-26.4,23.1-46.5,6.7
			C-484.8,315.3-474.3,299.6-458.8,307.6L-458.8,307.6z"/>
		<path class="st1" d="M-426.4,325.3c10.1-0.7,14.5,2.8,16.3,8.2c-2.7-1.1-5.9-1.6-9.3-1.7c9.1,2.8,15.1,8.4,18.4,16.6
			c3.8,8.4,10.1,12.3,17.5,14.6c-18.2,5.9-39,1.3-47.3-16.5c0.2,3.6,1.2,7.3,2.8,10.9c-9-3.2-12.3-8.2-12.9-14.2
			c-1.3-7.3-1.1-14.2-3.2-17.8c5,5.4,11.6,10.3,18.8,15c11.1,6.6,13.6,15.8,20.5,15.8c-7.5-3.5-11-13.1-19.3-17.8
			c5.6,1.8,9.2,4.1,12.3,6.4c-1.8-3.8-7-7.1-13.5-9.1c-12-4.9-18.4-10.9-17.8-14.4C-441.1,324.1-436.2,325.8-426.4,325.3
			L-426.4,325.3z"/>
		<path class="st1" d="M-466.4,335.7c-6.5,2-11.7,5.2-13.5,9.1c3.2-2.3,6.8-4.6,12.3-6.4c-8.3,4.7-11.7,14.3-19.3,17.8
			c6.9,0,9.4-9.1,20.5-15.8c7.2-4.6,13.7-9.5,18.7-15c-2.1,3.6-2,10.4-3.2,17.8c-0.6,6-4,11-12.9,14.2c1.5-3.6,2.6-7.3,2.8-10.9
			c-8.4,17.9-29.1,22.4-47.4,16.5c7.3-2.3,13.7-6.3,17.5-14.6c3.3-8.2,9.3-13.8,18.4-16.6c-3.5,0.1-6.7,0.6-9.3,1.7
			c1.8-5.3,6.2-8.9,16.3-8.2c9.7,0.4,14.7-1.2,17-4C-448,324.8-454.4,330.8-466.4,335.7L-466.4,335.7z"/>
		<path class="st1" d="M-328.9,328.6c0,2.7-2.3,4.9-5.2,4.9c-2.9,0-5.2-2.2-5.2-4.9c0-2.7,2.3-4.9,5.2-4.9S-328.9,325.9-328.9,328.6
			L-328.9,328.6z"/>
		<path class="st1" d="M-552.6,328.6c0,2.7-2.3,4.9-5.2,4.9s-5.2-2.2-5.2-4.9c0-2.7,2.3-4.9,5.2-4.9
			C-555,323.7-552.6,325.9-552.6,328.6L-552.6,328.6z"/>
		<path class="st1" d="M-428.9,362c13.9,4.3,18.9,14.8,20.3,27.9c-17.3-0.7-28-10-29.7-27c2.4,2.3,5.3,4.5,9.2,6.3
			c4.7,2.1,7.8,5.1,9.4,8.8c-0.6-4-2.5-7.6-7.7-10.4c-9.9-5.4-13.2-10.8-14.8-16.1C-439.2,355.3-436.3,359.2-428.9,362L-428.9,362z"
			/>
		<path class="st1" d="M-464.5,367.6c-5.2,2.8-7.1,6.4-7.7,10.4c1.7-3.7,4.7-6.7,9.4-8.8c3.9-1.8,6.8-3.9,9.2-6.3
			c-1.8,17-12.4,26.3-29.7,27c1.5-13.1,6.4-23.7,20.3-27.9c7.5-2.8,10.3-6.7,13.3-10.6C-451.3,356.8-454.6,362.2-464.5,367.6
			L-464.5,367.6z"/>
		<path class="st1" d="M-437.4,379.2c4.8,11.1,0.1,21-8.5,30.5l0,0l0,0l0,0l0,0c-8.6-9.5-13.3-19.4-8.5-30.5
			c3.4-7.2,6.4-14.6,8.5-21.8l0,0C-443.8,364.6-440.8,371.9-437.4,379.2L-437.4,379.2z"/>
		<path class="st1" d="M-388.6,377.1c-4.6-0.2-13.9,8.1-15.6-5C-399.9,373.1-395,367.2-388.6,377.1L-388.6,377.1z"/>
		<path class="st1" d="M-487.8,372.1c-1.7,13.1-11,4.8-15.6,5c3.2-4.9,6.1-5.9,8.6-5.8C-492.1,371.4-489.9,372.6-487.8,372.1
			L-487.8,372.1z"/>
		<path class="st1" d="M-441.7,420.9c0,2.1-1.9,3.8-4.1,3.8h-0.3c-2.3,0-4.1-1.7-4.1-3.8c0-2.1,1.8-3.9,4.1-3.9h0.1h0.1
			C-443.6,417.1-441.7,418.8-441.7,420.9L-441.7,420.9z"/>
	</g>
	<g class="st0">
		<path class="st1" d="M-90,133.6c-12.4-9.6-3.1-19.6,0-28.7C-86.9,114-77.7,124-90,133.6L-90,133.6z"/>
		<path class="st1" d="M-59.8,150.7c-3.4-8.8,1-13.7,9-16.7C-52.8,138.6-49.2,149.4-59.8,150.7L-59.8,150.7z"/>
		<path class="st1" d="M-120.7,150.7c-10.6-1.3-7-12-9-16.7C-121.7,137-117.3,141.9-120.7,150.7L-120.7,150.7z"/>
		<path class="st1" d="M-73.3,144.4c-2.8-0.5-5.1-0.1-7.3,0.4c-0.4-2-1.2-3.9-2.9-5.6C-80.9,130.8-67.6,136.1-73.3,144.4
			L-73.3,144.4z"/>
		<path class="st1" d="M-97.1,139.1c-1.6,1.8-2.5,3.7-2.9,5.6c-2.2-0.5-4.5-0.9-7.3-0.4C-112.9,136.1-99.6,130.8-97.1,139.1
			L-97.1,139.1z"/>
		<path class="st1" d="M-83.6,148.7c-1.9-1-4.3-1.4-6.7-1.3c-2.4-0.1-4.7,0.4-6.7,1.3c-2.2-5.5,2.2-9.2,6.7-9.2
			C-85.8,139.6-81.4,143.2-83.6,148.7L-83.6,148.7z"/>
		<path class="st1" d="M-68.9,176.8c-8.7,1.7-13.9,8.2-16.2,17.4c1.2-14.6,10.1-23,23.3-27.9c-13.8,3.2-23.4,12.3-25.6,29.1
			c-0.1-16,4.4-30.2,22.2-35.9c10.7-3,16.3-7.7,18.3-14C-42,162.7-52.5,174.2-68.9,176.8L-68.9,176.8z"/>
		<path class="st1" d="M-115.3,159.6c17.8,5.7,22.3,19.9,22.2,35.9c-2.3-16.8-11.8-26-25.6-29.1c13.2,4.9,22.1,13.3,23.3,27.9
			c-2.2-9.2-7.5-15.7-16.2-17.4c-16.4-2.5-26.9-14-22-31.2C-131.6,151.8-126,156.6-115.3,159.6L-115.3,159.6z"/>
		<path class="st1" d="M-77.9,158c-0.1-2.9-1.2-5.6-3.6-8.3C-71.5,138.8-61.2,155.9-77.9,158L-77.9,158z"/>
		<path class="st1" d="M-99,149.7c-2.4,2.7-3.5,5.4-3.6,8.3C-119.3,155.9-109,138.8-99,149.7L-99,149.7z"/>
		<path class="st1" d="M-81.6,158.3c0,4.4-3.9,8.1-8.6,8.1h-0.2c-4.8,0-8.6-3.6-8.6-8.1c0-4.4,3.9-8.1,8.6-8.1c0,0,0,0,0.1,0h0.1
			C-85.4,150.3-81.6,153.9-81.6,158.3L-81.6,158.3z"/>
		<path class="st1" d="M-34.7,168.9c0,2.3-2,4.2-4.5,4.2s-4.5-1.9-4.5-4.2c0-2.3,2-4.2,4.5-4.2S-34.7,166.6-34.7,168.9L-34.7,168.9z
			"/>
		<path class="st1" d="M-136.8,168.9c0,2.3-2,4.2-4.5,4.2s-4.5-1.9-4.5-4.2c0-2.3,2-4.2,4.5-4.2S-136.8,166.6-136.8,168.9
			L-136.8,168.9z"/>
		<path class="st1" d="M-17.1,201.6c0,0.2,0.1,0.4,0.1,0.6c9.1,2.2,11.4,8.5,10.4,15.1c-0.8,3.5-0.7,6.2,1.4,9.9
			c-8.4-1.2-13-4.7-12.7-11.5c-5.9,15.8-28.7,19.9-35.2,5c-1.4-3.5-0.9-9.4,4.7-11.2c9.2-2.6,14.5,8.8,5,11.8
			c10.3,5.4,25.3-4.8,22.2-20.7c-2.2,4.8-6.3,7.6-10.4,7.7c3.9-9.3-2.6-17.5-16.7-20.1c7.7,4.7,1,15-10.4,12.2
			c-18-2.2-27.1,16-29.8,33.1C-96,181-28.3,161.8-17.1,201.6L-17.1,201.6z"/>
		<path class="st1" d="M-92.1,233.7c-2.7-17.1-11.8-35.3-29.8-33.1c-11.4,2.8-18.1-7.5-10.4-12.2c-14.1,2.6-20.5,10.7-16.7,20.1
			c-4.1-0.1-8.2-2.9-10.4-7.7c-3.1,15.9,11.9,26.1,22.2,20.7c-9.5-3-4.2-14.4,5-11.8c5.6,1.8,6.1,7.7,4.7,11.2
			c-6.7,15.3-30.7,10.6-35.7-6.5c1.3,7.8-3.4,11.7-12.2,13c2-3.7,2.2-6.4,1.4-9.9c-1-6.7,1.4-12.9,10.4-15.1c0-0.2,0.1-0.4,0.1-0.6
			C-152.3,161.8-84.5,181-92.1,233.7L-92.1,233.7z"/>
		<path class="st1" d="M-83.3,233.5c1.9-11.8,10.1-20.3,21.2-25.5C-67.9,217.7-71.7,228.8-83.3,233.5L-83.3,233.5z"/>
		<path class="st1" d="M-97.2,233.5c-11.6-4.7-15.5-15.8-21.2-25.5C-107.3,213.2-99.1,221.7-97.2,233.5L-97.2,233.5z"/>
		<path class="st1" d="M-168.3,218.2c1.9-1.8,3.5-3.8,4.6-5.9c-0.2-1.2-0.4-2.4-0.4-3.7C-165,211.4-166.4,214.5-168.3,218.2
			L-168.3,218.2z"/>
		<path class="st1" d="M-16.8,212.2c1.1,2.2,2.7,4.1,4.6,5.9c-1.9-3.6-3.3-6.8-4.2-9.6C-16.4,209.9-16.6,211.1-16.8,212.2
			L-16.8,212.2z"/>
		<path class="st1" d="M10.2,227.5c-12.9,5.5-10.1-6.2-12.7-9.8C9.9,217.7,7.1,224.6,10.2,227.5L10.2,227.5z"/>
		<path class="st1" d="M-178,217.7c-2.6,3.6,0.2,15.3-12.7,9.8C-187.6,224.6-190.4,217.7-178,217.7L-178,217.7z"/>
		<path class="st1" d="M-74.2,268.5c-7.1,4.7-10.7,9.7-12.4,14.8c-0.5-15.7,15.6-25.7,16.9-40.1c-4,13.9-14.3,19.4-17.1,29.5
			c-4.2-15.9-0.9-28,7.3-37.5c-1.4,4.6-1.2,9.3,0.1,14.1c0.7-8.7,6.2-16.5,16.7-23.2C-56.5,246.3-61.5,260.5-74.2,268.5L-74.2,268.5
			z"/>
		<path class="st1" d="M-101.2,249.3c1.2-4.8,1.5-9.5,0.1-14.1c8.3,9.5,11.5,21.6,7.3,37.5c-2.8-10.1-13.1-15.6-17.1-29.5
			c1.3,14.3,17.4,24.3,16.9,40.1c-1.7-5.1-5.3-10.1-12.4-14.8c-12.7-8.1-17.7-22.2-11.6-42.5C-107.4,232.8-101.9,240.6-101.2,249.3
			L-101.2,249.3z"/>
		<path class="st1" d="M-44.5,236.2c0,2-1.8,3.7-4,3.7s-4-1.7-4-3.7s1.8-3.7,4-3.7C-46.2,232.5-44.5,234.1-44.5,236.2L-44.5,236.2z"
			/>
		<path class="st1" d="M-128.1,236.2c0,2-1.8,3.7-4,3.7s-4-1.7-4-3.7s1.8-3.7,4-3.7C-129.9,232.5-128.1,234.1-128.1,236.2
			L-128.1,236.2z"/>
		<path class="st1" d="M9.4,240.1c-10.5,0.7-18.8,6-22.9,16.3c-4.1,8.7-11.7,14.9-25.9,16.6c3.1,1.5,7,2.5,13.5,1.6
			c-7.3,6.4-16.7,10.7-32.5,10.3c-7.3-0.3-14.1,1.8-20,6h-0.1c-3.3,2.3-6.2,5.3-8.8,8.9c1.2-3.2,2.9-6.1,5-8.9l0,0
			c7.6-10.1,20.3-17.5,34.1-21.6c20-5.6,25-19.1,32.4-26c-9.1,5.9-16.2,19.2-32.7,24.2c-15.5,4.3-27.8,13.1-35.5,23.4l0,0
			c-1.4,1.9-2.6,3.7-3.7,5.7c0.3-1.7,0.8-3.6,1.6-5.7l0,0c2.7-6.7,8.4-14.7,19.1-20.8c12.5-6.3,22.6-19.3,27.7-33.3
			c1.1,3.2,1.8,6.6,1.6,10.6C-26.3,233-8.4,227.8,9.4,240.1L9.4,240.1z"/>
		<path class="st1" d="M-142.9,247.3c-0.2-4,0.5-7.4,1.6-10.6c5.1,14,15.3,26.9,27.8,33.3c10.6,6.1,16.4,14.2,19.1,20.8l0,0
			c0.8,2.1,1.3,4,1.6,5.7c-1.1-1.9-2.3-3.8-3.6-5.7l0,0c-7.7-10.3-20-19.1-35.5-23.4c-16.5-5-23.6-18.4-32.7-24.2
			c7.4,6.9,12.4,20.4,32.4,26c13.7,4.1,26.5,11.5,34.1,21.6h0.1c2.1,2.8,3.8,5.8,5,8.9c-2.6-3.6-5.6-6.6-8.8-8.9h-0.1
			c-5.9-4.2-12.8-6.3-20-6c-15.8,0.4-25.2-3.9-32.5-10.3c6.5,0.9,10.4-0.1,13.5-1.6c-14.1-1.7-21.7-7.9-25.9-16.6
			c-4-10.2-12.4-15.6-22.9-16.3C-172.1,227.8-154.2,233-142.9,247.3L-142.9,247.3z"/>
		<path class="st1" d="M39.6,268.5c1.9-1.4,3.3-3.1,4.3-5.1c1.2,10-1.4,17.4-6.6,23c10.7-4.4,15.9,4.3,23.6,4.3l-0.1,0.1h-0.1
			c-7.4,7.4-15.7,10.6-25.5,6.3c2.6,2.7,3.9,5.8,3.8,9.5c-5.7,0.1-9.7-1.3-13.3-3.3c4.1,4.2,4.8,9,3.6,14.2c-3.7-1.7-7.7-3-14.8-2.1
			c-5.4,0.9-9.8-0.1-13.3-2.3c1.8,3.4,3.1,7.1,3.8,11.1c3.9,35.7-52.9,31-43.9,2.6c2.9-7.6,13.2-8.3,15.8-1.2
			c1.9,5.7-5.4,9.9-8.9,5.8c-2.1,20.1,22.8,21.2,29.5,6.2c-4.5,4.3-10.5,5.5-17.9,3.6c1.2-7.5,15.6-6.7,12.5-22.6
			c-1.1,2.1-3.2,3.3-5.6,4.1c2.2-8,0.8-19.1-11-24.9c12.2,9.3-5.4,24.5-15.8,7.8c-8.6-10.8-24.4-9.8-37-2.4
			c10.2-10.1,29.3-11.2,43.6-1.9c-16.6-12.9-38.2-8.3-52.5,5.1c4.6-7.4,11.2-12.5,18.7-15.6h0.1c12.5-5.1,27.6-4.7,40.8,0h0.2
			c1.9,0.7,3.8,1.5,5.7,2.4c0-0.8,0-1.6,0.1-2.4l0,0c0.5-8.4,3.4-15.1,17.5-14c-2.2,2.8-0.9,9.5-3.3,14l0,0
			c-1.5,2.7-4.5,4.6-10.8,4.2c2.1,1.2,4.2,2.5,6.1,4c5.9,1.5,11.8,0.4,16.3-7.7c0.1-0.1,0.2-0.3,0.2-0.4l0,0c4.3-7,12.4-5.1,11.7,0
			l0,0c-0.1,0.8-0.4,1.7-1,2.7c1.2-0.8,2.3-1.7,3.3-2.7h0.1c3.2-3.1,5.4-6.9,6.3-11.8c2.2,3.7,1.9,8.8,0.7,11.8l0,0
			c-0.1,0.4-0.3,0.7-0.5,1c0.4-0.3,0.7-0.6,1.1-1h0.1c6.5-6.8,10.6-23,2.5-31.9c-7.6-7.4-20.6-5.4-20,4.1c3-4.4,12.9-1.3,8.6,6.4
			c-4.8,7.4-16.9,4.6-17.7-5.8C-0.3,242.4,37.1,244.9,39.6,268.5L39.6,268.5z"/>
		<path class="st1" d="M-181.2,263.7c-0.8,10.4-12.9,13.2-17.7,5.8c-4.3-7.7,5.6-10.9,8.6-6.4c0.6-9.6-12.3-11.6-20-4.1
			c-8.1,8.9-4,25.1,2.5,31.9l0,0c0.3,0.4,0.7,0.7,1.1,1c-0.2-0.3-0.4-0.6-0.5-1l0,0c-1.2-3-1.5-8.1,0.7-11.8
			c0.9,4.8,3.1,8.7,6.3,11.8h0.1c1,1,2.1,1.9,3.3,2.7c-0.6-1-0.9-1.9-1-2.7l0,0c-0.6-5.1,7.5-7,11.7,0l0,0c0.1,0.1,0.2,0.3,0.2,0.4
			c4.5,8.2,10.5,9.2,16.4,7.7c1.9-1.4,4-2.8,6.1-4c-6.2,0.4-9.2-1.4-10.8-4.2l0,0c-2.4-4.5-1.1-11.2-3.3-14c14.2-1.1,17,5.6,17.5,14
			c0,0.8,0.1,1.6,0.1,2.4c1.8-0.9,3.7-1.7,5.7-2.4h0.2c13.2-4.7,28.3-5.1,40.8,0h0.1c7.5,3.1,14.1,8.2,18.7,15.6
			c-14.4-13.4-36-18-52.5-5.1c14.4-9.4,33.5-8.2,43.6,1.9c-12.7-7.3-28.4-8.3-37,2.4c-10.5,16.7-28,1.5-15.9-7.8
			c-11.8,5.8-13.2,16.9-11,24.9c-2.5-0.8-4.5-2-5.6-4.1c-3.1,15.9,11.3,15.1,12.5,22.6c-7.4,1.9-13.4,0.7-17.9-3.6
			c6.7,15,31.5,13.9,29.5-6.2c-3.5,4.1-10.8-0.1-8.9-5.8c2.6-7.1,12.9-6.4,15.8,1.2c9,28.4-47.8,33.1-43.9-2.6c0.7-4,2-7.7,3.8-11.1
			c-3.4,2.2-7.8,3.2-13.3,2.3c-7-1-11.1,0.4-14.8,2.1c-1.2-5.2-0.5-10,3.6-14.2c-3.5,2-7.6,3.4-13.2,3.3c0-3.6,1.2-6.8,3.8-9.5
			c-9.8,4.3-18.1,1.1-25.5-6.3h-0.1l-0.1-0.1c7.7,0,13-8.7,23.6-4.3c-5.2-5.6-7.8-13-6.6-23c1.1,2,2.5,3.7,4.3,5.1
			C-217.6,244.9-180.2,242.4-181.2,263.7L-181.2,263.7z"/>
		<path class="st1" d="M33.7,290.9L33.7,290.9c-12.1,10.7-25.6,13.6-39.8,12.4c0.6,0.6,1.2,1.2,1.7,1.8c7.4,0.1,15.6,1.8,22.2,4.7
			c-1.9-1.9-4.1-3.6-7-4.7c8.6-2.5,16.8-6,23.1-14.2H34c0.2-0.2,0.3-0.5,0.5-0.7C34.3,290.4,34,290.6,33.7,290.9L33.7,290.9z"/>
		<path class="st1" d="M-214.5,290.9L-214.5,290.9c6.4,8.2,14.5,11.7,23.2,14.2c-2.9,1.1-5.2,2.8-7,4.7c6.6-2.9,14.8-4.6,22.2-4.7
			c0.6-0.6,1.1-1.2,1.7-1.8c-14.2,1.3-27.7-1.7-39.7-12.4h-0.1c-0.2-0.2-0.5-0.5-0.8-0.7C-214.8,290.4-214.7,290.6-214.5,290.9
			L-214.5,290.9z"/>
		<path class="st1" d="M-42.8,317.8c-20,16.4-29.9-1.3-46.5-6.7c6.2-3.7,13.6-2.1,21.5,1.7c-2.2-1.9-5-3.8-9.6-5.3
			C-61.9,299.6-51.4,315.3-42.8,317.8L-42.8,317.8z"/>
		<path class="st1" d="M-103.1,307.6c-4.6,1.5-7.4,3.3-9.6,5.3c7.9-3.8,15.2-5.4,21.5-1.7c-16.5,5.4-26.4,23.1-46.5,6.7
			C-129.1,315.3-118.6,299.6-103.1,307.6L-103.1,307.6z"/>
		<path class="st1" d="M-70.7,325.3c10.1-0.7,14.5,2.8,16.3,8.2c-2.7-1.1-5.9-1.6-9.3-1.7c9.1,2.8,15.1,8.4,18.4,16.6
			c3.8,8.4,10.1,12.3,17.5,14.6c-18.2,5.9-39,1.3-47.3-16.5c0.2,3.6,1.2,7.3,2.8,10.9c-9-3.2-12.3-8.2-12.9-14.2
			c-1.3-7.3-1.1-14.2-3.2-17.8c5,5.4,11.6,10.3,18.8,15c11.1,6.6,13.6,15.8,20.5,15.8c-7.5-3.5-11-13.1-19.3-17.8
			c5.6,1.8,9.2,4.1,12.3,6.4c-1.8-3.8-7-7.1-13.5-9.1c-12-4.9-18.4-10.9-17.8-14.4C-85.4,324.1-80.5,325.8-70.7,325.3L-70.7,325.3z"
			/>
		<path class="st1" d="M-110.7,335.7c-6.5,2-11.7,5.2-13.5,9.1c3.2-2.3,6.8-4.6,12.3-6.4c-8.3,4.7-11.7,14.3-19.3,17.8
			c6.9,0,9.4-9.1,20.5-15.8c7.2-4.6,13.7-9.5,18.7-15c-2.1,3.6-2,10.4-3.2,17.8c-0.6,6-4,11-12.9,14.2c1.5-3.6,2.6-7.3,2.8-10.9
			c-8.4,17.9-29.1,22.4-47.4,16.5c7.3-2.3,13.7-6.3,17.5-14.6c3.3-8.2,9.3-13.8,18.4-16.6c-3.5,0.1-6.7,0.6-9.3,1.7
			c1.8-5.3,6.2-8.9,16.3-8.2c9.7,0.4,14.7-1.2,17-4C-92.3,324.8-98.7,330.8-110.7,335.7L-110.7,335.7z"/>
		<path class="st1" d="M26.8,328.6c0,2.7-2.3,4.9-5.2,4.9c-2.9,0-5.2-2.2-5.2-4.9c0-2.7,2.3-4.9,5.2-4.9S26.8,325.9,26.8,328.6
			L26.8,328.6z"/>
		<path class="st1" d="M-196.9,328.6c0,2.7-2.3,4.9-5.2,4.9c-2.9,0-5.2-2.2-5.2-4.9c0-2.7,2.3-4.9,5.2-4.9
			C-199.3,323.7-196.9,325.9-196.9,328.6L-196.9,328.6z"/>
		<path class="st1" d="M-73.2,362c13.9,4.3,18.9,14.8,20.3,27.9c-17.3-0.7-28-10-29.7-27c2.4,2.3,5.3,4.5,9.2,6.3
			c4.7,2.1,7.8,5.1,9.4,8.8c-0.6-4-2.5-7.6-7.7-10.4c-9.9-5.4-13.2-10.8-14.8-16.1C-83.5,355.3-80.6,359.2-73.2,362L-73.2,362z"/>
		<path class="st1" d="M-108.8,367.6c-5.2,2.8-7.1,6.4-7.7,10.4c1.7-3.7,4.7-6.7,9.4-8.8c3.9-1.8,6.8-3.9,9.2-6.3
			c-1.8,17-12.4,26.3-29.7,27c1.5-13.1,6.4-23.7,20.3-27.9c7.5-2.8,10.3-6.7,13.3-10.6C-95.6,356.8-98.9,362.2-108.8,367.6
			L-108.8,367.6z"/>
		<path class="st1" d="M-81.7,379.2c4.8,11.1,0.1,21-8.5,30.5l0,0l0,0l0,0l0,0c-8.6-9.5-13.3-19.4-8.5-30.5
			c3.4-7.2,6.4-14.6,8.5-21.8l0,0C-88.1,364.6-85.1,371.9-81.7,379.2L-81.7,379.2z"/>
		<path class="st1" d="M-32.9,377.1c-4.6-0.2-13.9,8.1-15.6-5C-44.2,373.1-39.3,367.2-32.9,377.1L-32.9,377.1z"/>
		<path class="st1" d="M-132.1,372.1c-1.7,13.1-11,4.8-15.6,5c3.2-4.9,6.1-5.9,8.6-5.8C-136.4,371.4-134.2,372.6-132.1,372.1
			L-132.1,372.1z"/>
		<path class="st1" d="M-86,420.9c0,2.1-1.9,3.8-4.1,3.8h-0.3c-2.3,0-4.1-1.7-4.1-3.8c0-2.1,1.8-3.9,4.1-3.9h0.1h0.1
			C-87.9,417.1-86,418.8-86,420.9L-86,420.9z"/>
		<path class="st1" d="M-90,133.6c-12.4-9.6-3.1-19.6,0-28.7C-86.9,114-77.7,124-90,133.6L-90,133.6z"/>
		<path class="st1" d="M-59.8,150.7c-3.4-8.8,1-13.7,9-16.7C-52.8,138.6-49.2,149.4-59.8,150.7L-59.8,150.7z"/>
		<path class="st1" d="M-120.7,150.7c-10.6-1.3-7-12-9-16.7C-121.7,137-117.3,141.9-120.7,150.7L-120.7,150.7z"/>
		<path class="st1" d="M-73.3,144.4c-2.8-0.5-5.1-0.1-7.3,0.4c-0.4-2-1.2-3.9-2.9-5.6C-80.9,130.8-67.6,136.1-73.3,144.4
			L-73.3,144.4z"/>
		<path class="st1" d="M-97.1,139.1c-1.6,1.8-2.5,3.7-2.9,5.6c-2.2-0.5-4.5-0.9-7.3-0.4C-112.9,136.1-99.6,130.8-97.1,139.1
			L-97.1,139.1z"/>
		<path class="st1" d="M-83.6,148.7c-1.9-1-4.3-1.4-6.7-1.3c-2.4-0.1-4.7,0.4-6.7,1.3c-2.2-5.5,2.2-9.2,6.7-9.2
			C-85.8,139.6-81.4,143.2-83.6,148.7L-83.6,148.7z"/>
		<path class="st1" d="M-68.9,176.8c-8.7,1.7-13.9,8.2-16.2,17.4c1.2-14.6,10.1-23,23.3-27.9c-13.8,3.2-23.4,12.3-25.6,29.1
			c-0.1-16,4.4-30.2,22.2-35.9c10.7-3,16.3-7.7,18.3-14C-42,162.7-52.5,174.2-68.9,176.8L-68.9,176.8z"/>
		<path class="st1" d="M-115.3,159.6c17.8,5.7,22.3,19.9,22.2,35.9c-2.3-16.8-11.8-26-25.6-29.1c13.2,4.9,22.1,13.3,23.3,27.9
			c-2.2-9.2-7.5-15.7-16.2-17.4c-16.4-2.5-26.9-14-22-31.2C-131.6,151.8-126,156.6-115.3,159.6L-115.3,159.6z"/>
		<path class="st1" d="M-77.9,158c-0.1-2.9-1.2-5.6-3.6-8.3C-71.5,138.8-61.2,155.9-77.9,158L-77.9,158z"/>
		<path class="st1" d="M-99,149.7c-2.4,2.7-3.5,5.4-3.6,8.3C-119.3,155.9-109,138.8-99,149.7L-99,149.7z"/>
		<path class="st1" d="M-81.6,158.3c0,4.4-3.9,8.1-8.6,8.1h-0.2c-4.8,0-8.6-3.6-8.6-8.1c0-4.4,3.9-8.1,8.6-8.1c0,0,0,0,0.1,0h0.1
			C-85.4,150.3-81.6,153.9-81.6,158.3L-81.6,158.3z"/>
		<path class="st1" d="M-34.7,168.9c0,2.3-2,4.2-4.5,4.2s-4.5-1.9-4.5-4.2c0-2.3,2-4.2,4.5-4.2S-34.7,166.6-34.7,168.9L-34.7,168.9z
			"/>
		<path class="st1" d="M-136.8,168.9c0,2.3-2,4.2-4.5,4.2s-4.5-1.9-4.5-4.2c0-2.3,2-4.2,4.5-4.2S-136.8,166.6-136.8,168.9
			L-136.8,168.9z"/>
		<path class="st1" d="M-17.1,201.6c0,0.2,0.1,0.4,0.1,0.6c9.1,2.2,11.4,8.5,10.4,15.1c-0.8,3.5-0.7,6.2,1.4,9.9
			c-8.4-1.2-13-4.7-12.7-11.5c-5.9,15.8-28.7,19.9-35.2,5c-1.4-3.5-0.9-9.4,4.7-11.2c9.2-2.6,14.5,8.8,5,11.8
			c10.3,5.4,25.3-4.8,22.2-20.7c-2.2,4.8-6.3,7.6-10.4,7.7c3.9-9.3-2.6-17.5-16.7-20.1c7.7,4.7,1,15-10.4,12.2
			c-18-2.2-27.1,16-29.8,33.1C-96,181-28.3,161.8-17.1,201.6L-17.1,201.6z"/>
		<path class="st1" d="M-92.1,233.7c-2.7-17.1-11.8-35.3-29.8-33.1c-11.4,2.8-18.1-7.5-10.4-12.2c-14.1,2.6-20.5,10.7-16.7,20.1
			c-4.1-0.1-8.2-2.9-10.4-7.7c-3.1,15.9,11.9,26.1,22.2,20.7c-9.5-3-4.2-14.4,5-11.8c5.6,1.8,6.1,7.7,4.7,11.2
			c-6.7,15.3-30.7,10.6-35.7-6.5c1.3,7.8-3.4,11.7-12.2,13c2-3.7,2.2-6.4,1.4-9.9c-1-6.7,1.4-12.9,10.4-15.1c0-0.2,0.1-0.4,0.1-0.6
			C-152.3,161.8-84.5,181-92.1,233.7L-92.1,233.7z"/>
		<path class="st1" d="M-83.3,233.5c1.9-11.8,10.1-20.3,21.2-25.5C-67.9,217.7-71.7,228.8-83.3,233.5L-83.3,233.5z"/>
		<path class="st1" d="M-97.2,233.5c-11.6-4.7-15.5-15.8-21.2-25.5C-107.3,213.2-99.1,221.7-97.2,233.5L-97.2,233.5z"/>
		<path class="st1" d="M-168.3,218.2c1.9-1.8,3.5-3.8,4.6-5.9c-0.2-1.2-0.4-2.4-0.4-3.7C-165,211.4-166.4,214.5-168.3,218.2
			L-168.3,218.2z"/>
		<path class="st1" d="M-16.8,212.2c1.1,2.2,2.7,4.1,4.6,5.9c-1.9-3.6-3.3-6.8-4.2-9.6C-16.4,209.9-16.6,211.1-16.8,212.2
			L-16.8,212.2z"/>
		<path class="st1" d="M10.2,227.5c-12.9,5.5-10.1-6.2-12.7-9.8C9.9,217.7,7.1,224.6,10.2,227.5L10.2,227.5z"/>
		<path class="st1" d="M-178,217.7c-2.6,3.6,0.2,15.3-12.7,9.8C-187.6,224.6-190.4,217.7-178,217.7L-178,217.7z"/>
		<path class="st1" d="M-74.2,268.5c-7.1,4.7-10.7,9.7-12.4,14.8c-0.5-15.7,15.6-25.7,16.9-40.1c-4,13.9-14.3,19.4-17.1,29.5
			c-4.2-15.9-0.9-28,7.3-37.5c-1.4,4.6-1.2,9.3,0.1,14.1c0.7-8.7,6.2-16.5,16.7-23.2C-56.5,246.3-61.5,260.5-74.2,268.5L-74.2,268.5
			z"/>
		<path class="st1" d="M-101.2,249.3c1.2-4.8,1.5-9.5,0.1-14.1c8.3,9.5,11.5,21.6,7.3,37.5c-2.8-10.1-13.1-15.6-17.1-29.5
			c1.3,14.3,17.4,24.3,16.9,40.1c-1.7-5.1-5.3-10.1-12.4-14.8c-12.7-8.1-17.7-22.2-11.6-42.5C-107.4,232.8-101.9,240.6-101.2,249.3
			L-101.2,249.3z"/>
		<path class="st1" d="M-44.5,236.2c0,2-1.8,3.7-4,3.7s-4-1.7-4-3.7s1.8-3.7,4-3.7C-46.2,232.5-44.5,234.1-44.5,236.2L-44.5,236.2z"
			/>
		<path class="st1" d="M-128.1,236.2c0,2-1.8,3.7-4,3.7s-4-1.7-4-3.7s1.8-3.7,4-3.7C-129.9,232.5-128.1,234.1-128.1,236.2
			L-128.1,236.2z"/>
		<path class="st1" d="M9.4,240.1c-10.5,0.7-18.8,6-22.9,16.3c-4.1,8.7-11.7,14.9-25.9,16.6c3.1,1.5,7,2.5,13.5,1.6
			c-7.3,6.4-16.7,10.7-32.5,10.3c-7.3-0.3-14.1,1.8-20,6h-0.1c-3.3,2.3-6.2,5.3-8.8,8.9c1.2-3.2,2.9-6.1,5-8.9l0,0
			c7.6-10.1,20.3-17.5,34.1-21.6c20-5.6,25-19.1,32.4-26c-9.1,5.9-16.2,19.2-32.7,24.2c-15.5,4.3-27.8,13.1-35.5,23.4l0,0
			c-1.4,1.9-2.6,3.7-3.7,5.7c0.3-1.7,0.8-3.6,1.6-5.7l0,0c2.7-6.7,8.4-14.7,19.1-20.8c12.5-6.3,22.6-19.3,27.7-33.3
			c1.1,3.2,1.8,6.6,1.6,10.6C-26.3,233-8.4,227.8,9.4,240.1L9.4,240.1z"/>
		<path class="st1" d="M-142.9,247.3c-0.2-4,0.5-7.4,1.6-10.6c5.1,14,15.3,26.9,27.8,33.3c10.6,6.1,16.4,14.2,19.1,20.8l0,0
			c0.8,2.1,1.3,4,1.6,5.7c-1.1-1.9-2.3-3.8-3.6-5.7l0,0c-7.7-10.3-20-19.1-35.5-23.4c-16.5-5-23.6-18.4-32.7-24.2
			c7.4,6.9,12.4,20.4,32.4,26c13.7,4.1,26.5,11.5,34.1,21.6h0.1c2.1,2.8,3.8,5.8,5,8.9c-2.6-3.6-5.6-6.6-8.8-8.9h-0.1
			c-5.9-4.2-12.8-6.3-20-6c-15.8,0.4-25.2-3.9-32.5-10.3c6.5,0.9,10.4-0.1,13.5-1.6c-14.1-1.7-21.7-7.9-25.9-16.6
			c-4-10.2-12.4-15.6-22.9-16.3C-172.1,227.8-154.2,233-142.9,247.3L-142.9,247.3z"/>
		<path class="st1" d="M39.6,268.5c1.9-1.4,3.3-3.1,4.3-5.1c1.2,10-1.4,17.4-6.6,23c10.7-4.4,15.9,4.3,23.6,4.3l-0.1,0.1h-0.1
			c-7.4,7.4-15.7,10.6-25.5,6.3c2.6,2.7,3.9,5.8,3.8,9.5c-5.7,0.1-9.7-1.3-13.3-3.3c4.1,4.2,4.8,9,3.6,14.2c-3.7-1.7-7.7-3-14.8-2.1
			c-5.4,0.9-9.8-0.1-13.3-2.3c1.8,3.4,3.1,7.1,3.8,11.1c3.9,35.7-52.9,31-43.9,2.6c2.9-7.6,13.2-8.3,15.8-1.2
			c1.9,5.7-5.4,9.9-8.9,5.8c-2.1,20.1,22.8,21.2,29.5,6.2c-4.5,4.3-10.5,5.5-17.9,3.6c1.2-7.5,15.6-6.7,12.5-22.6
			c-1.1,2.1-3.2,3.3-5.6,4.1c2.2-8,0.8-19.1-11-24.9c12.2,9.3-5.4,24.5-15.8,7.8c-8.6-10.8-24.4-9.8-37-2.4
			c10.2-10.1,29.3-11.2,43.6-1.9c-16.6-12.9-38.2-8.3-52.5,5.1c4.6-7.4,11.2-12.5,18.7-15.6h0.1c12.5-5.1,27.6-4.7,40.8,0h0.2
			c1.9,0.7,3.8,1.5,5.7,2.4c0-0.8,0-1.6,0.1-2.4l0,0c0.5-8.4,3.4-15.1,17.5-14c-2.2,2.8-0.9,9.5-3.3,14l0,0
			c-1.5,2.7-4.5,4.6-10.8,4.2c2.1,1.2,4.2,2.5,6.1,4c5.9,1.5,11.8,0.4,16.3-7.7c0.1-0.1,0.2-0.3,0.2-0.4l0,0c4.3-7,12.4-5.1,11.7,0
			l0,0c-0.1,0.8-0.4,1.7-1,2.7c1.2-0.8,2.3-1.7,3.3-2.7h0.1c3.2-3.1,5.4-6.9,6.3-11.8c2.2,3.7,1.9,8.8,0.7,11.8l0,0
			c-0.1,0.4-0.3,0.7-0.5,1c0.4-0.3,0.7-0.6,1.1-1h0.1c6.5-6.8,10.6-23,2.5-31.9c-7.6-7.4-20.6-5.4-20,4.1c3-4.4,12.9-1.3,8.6,6.4
			c-4.8,7.4-16.9,4.6-17.7-5.8C-0.3,242.4,37.1,244.9,39.6,268.5L39.6,268.5z"/>
		<path class="st1" d="M-181.2,263.7c-0.8,10.4-12.9,13.2-17.7,5.8c-4.3-7.7,5.6-10.9,8.6-6.4c0.6-9.6-12.3-11.6-20-4.1
			c-8.1,8.9-4,25.1,2.5,31.9l0,0c0.3,0.4,0.7,0.7,1.1,1c-0.2-0.3-0.4-0.6-0.5-1l0,0c-1.2-3-1.5-8.1,0.7-11.8
			c0.9,4.8,3.1,8.7,6.3,11.8h0.1c1,1,2.1,1.9,3.3,2.7c-0.6-1-0.9-1.9-1-2.7l0,0c-0.6-5.1,7.5-7,11.7,0l0,0c0.1,0.1,0.2,0.3,0.2,0.4
			c4.5,8.2,10.5,9.2,16.4,7.7c1.9-1.4,4-2.8,6.1-4c-6.2,0.4-9.2-1.4-10.8-4.2l0,0c-2.4-4.5-1.1-11.2-3.3-14c14.2-1.1,17,5.6,17.5,14
			c0,0.8,0.1,1.6,0.1,2.4c1.8-0.9,3.7-1.7,5.7-2.4h0.2c13.2-4.7,28.3-5.1,40.8,0h0.1c7.5,3.1,14.1,8.2,18.7,15.6
			c-14.4-13.4-36-18-52.5-5.1c14.4-9.4,33.5-8.2,43.6,1.9c-12.7-7.3-28.4-8.3-37,2.4c-10.5,16.7-28,1.5-15.9-7.8
			c-11.8,5.8-13.2,16.9-11,24.9c-2.5-0.8-4.5-2-5.6-4.1c-3.1,15.9,11.3,15.1,12.5,22.6c-7.4,1.9-13.4,0.7-17.9-3.6
			c6.7,15,31.5,13.9,29.5-6.2c-3.5,4.1-10.8-0.1-8.9-5.8c2.6-7.1,12.9-6.4,15.8,1.2c9,28.4-47.8,33.1-43.9-2.6c0.7-4,2-7.7,3.8-11.1
			c-3.4,2.2-7.8,3.2-13.3,2.3c-7-1-11.1,0.4-14.8,2.1c-1.2-5.2-0.5-10,3.6-14.2c-3.5,2-7.6,3.4-13.2,3.3c0-3.6,1.2-6.8,3.8-9.5
			c-9.8,4.3-18.1,1.1-25.5-6.3h-0.1l-0.1-0.1c7.7,0,13-8.7,23.6-4.3c-5.2-5.6-7.8-13-6.6-23c1.1,2,2.5,3.7,4.3,5.1
			C-217.6,244.9-180.2,242.4-181.2,263.7L-181.2,263.7z"/>
		<path class="st1" d="M33.7,290.9L33.7,290.9c-12.1,10.7-25.6,13.6-39.8,12.4c0.6,0.6,1.2,1.2,1.7,1.8c7.4,0.1,15.6,1.8,22.2,4.7
			c-1.9-1.9-4.1-3.6-7-4.7c8.6-2.5,16.8-6,23.1-14.2H34c0.2-0.2,0.3-0.5,0.5-0.7C34.3,290.4,34,290.6,33.7,290.9L33.7,290.9z"/>
		<path class="st1" d="M-214.5,290.9L-214.5,290.9c6.4,8.2,14.5,11.7,23.2,14.2c-2.9,1.1-5.2,2.8-7,4.7c6.6-2.9,14.8-4.6,22.2-4.7
			c0.6-0.6,1.1-1.2,1.7-1.8c-14.2,1.3-27.7-1.7-39.7-12.4h-0.1c-0.2-0.2-0.5-0.5-0.8-0.7C-214.8,290.4-214.7,290.6-214.5,290.9
			L-214.5,290.9z"/>
		<path class="st1" d="M-42.8,317.8c-20,16.4-29.9-1.3-46.5-6.7c6.2-3.7,13.6-2.1,21.5,1.7c-2.2-1.9-5-3.8-9.6-5.3
			C-61.9,299.6-51.4,315.3-42.8,317.8L-42.8,317.8z"/>
		<path class="st1" d="M-103.1,307.6c-4.6,1.5-7.4,3.3-9.6,5.3c7.9-3.8,15.2-5.4,21.5-1.7c-16.5,5.4-26.4,23.1-46.5,6.7
			C-129.1,315.3-118.6,299.6-103.1,307.6L-103.1,307.6z"/>
		<path class="st1" d="M-70.7,325.3c10.1-0.7,14.5,2.8,16.3,8.2c-2.7-1.1-5.9-1.6-9.3-1.7c9.1,2.8,15.1,8.4,18.4,16.6
			c3.8,8.4,10.1,12.3,17.5,14.6c-18.2,5.9-39,1.3-47.3-16.5c0.2,3.6,1.2,7.3,2.8,10.9c-9-3.2-12.3-8.2-12.9-14.2
			c-1.3-7.3-1.1-14.2-3.2-17.8c5,5.4,11.6,10.3,18.8,15c11.1,6.6,13.6,15.8,20.5,15.8c-7.5-3.5-11-13.1-19.3-17.8
			c5.6,1.8,9.2,4.1,12.3,6.4c-1.8-3.8-7-7.1-13.5-9.1c-12-4.9-18.4-10.9-17.8-14.4C-85.4,324.1-80.5,325.8-70.7,325.3L-70.7,325.3z"
			/>
		<path class="st1" d="M-110.7,335.7c-6.5,2-11.7,5.2-13.5,9.1c3.2-2.3,6.8-4.6,12.3-6.4c-8.3,4.7-11.7,14.3-19.3,17.8
			c6.9,0,9.4-9.1,20.5-15.8c7.2-4.6,13.7-9.5,18.7-15c-2.1,3.6-2,10.4-3.2,17.8c-0.6,6-4,11-12.9,14.2c1.5-3.6,2.6-7.3,2.8-10.9
			c-8.4,17.9-29.1,22.4-47.4,16.5c7.3-2.3,13.7-6.3,17.5-14.6c3.3-8.2,9.3-13.8,18.4-16.6c-3.5,0.1-6.7,0.6-9.3,1.7
			c1.8-5.3,6.2-8.9,16.3-8.2c9.7,0.4,14.7-1.2,17-4C-92.3,324.8-98.7,330.8-110.7,335.7L-110.7,335.7z"/>
		<path class="st1" d="M26.8,328.6c0,2.7-2.3,4.9-5.2,4.9c-2.9,0-5.2-2.2-5.2-4.9c0-2.7,2.3-4.9,5.2-4.9S26.8,325.9,26.8,328.6
			L26.8,328.6z"/>
		<path class="st1" d="M-196.9,328.6c0,2.7-2.3,4.9-5.2,4.9c-2.9,0-5.2-2.2-5.2-4.9c0-2.7,2.3-4.9,5.2-4.9
			C-199.3,323.7-196.9,325.9-196.9,328.6L-196.9,328.6z"/>
		<path class="st1" d="M-73.2,362c13.9,4.3,18.9,14.8,20.3,27.9c-17.3-0.7-28-10-29.7-27c2.4,2.3,5.3,4.5,9.2,6.3
			c4.7,2.1,7.8,5.1,9.4,8.8c-0.6-4-2.5-7.6-7.7-10.4c-9.9-5.4-13.2-10.8-14.8-16.1C-83.5,355.3-80.6,359.2-73.2,362L-73.2,362z"/>
		<path class="st1" d="M-108.8,367.6c-5.2,2.8-7.1,6.4-7.7,10.4c1.7-3.7,4.7-6.7,9.4-8.8c3.9-1.8,6.8-3.9,9.2-6.3
			c-1.8,17-12.4,26.3-29.7,27c1.5-13.1,6.4-23.7,20.3-27.9c7.5-2.8,10.3-6.7,13.3-10.6C-95.6,356.8-98.9,362.2-108.8,367.6
			L-108.8,367.6z"/>
		<path class="st1" d="M-81.7,379.2c4.8,11.1,0.1,21-8.5,30.5l0,0l0,0l0,0l0,0c-8.6-9.5-13.3-19.4-8.5-30.5
			c3.4-7.2,6.4-14.6,8.5-21.8l0,0C-88.1,364.6-85.1,371.9-81.7,379.2L-81.7,379.2z"/>
		<path class="st1" d="M-32.9,377.1c-4.6-0.2-13.9,8.1-15.6-5C-44.2,373.1-39.3,367.2-32.9,377.1L-32.9,377.1z"/>
		<path class="st1" d="M-132.1,372.1c-1.7,13.1-11,4.8-15.6,5c3.2-4.9,6.1-5.9,8.6-5.8C-136.4,371.4-134.2,372.6-132.1,372.1
			L-132.1,372.1z"/>
		<path class="st1" d="M-86,420.9c0,2.1-1.9,3.8-4.1,3.8h-0.3c-2.3,0-4.1-1.7-4.1-3.8c0-2.1,1.8-3.9,4.1-3.9h0.1h0.1
			C-87.9,417.1-86,418.8-86,420.9L-86,420.9z"/>
	</g>
</g>
</svg>
