<?xml version="1.0" encoding="utf-8"?>
<!-- Generator: Adobe Illustrator 19.0.1, SVG Export Plug-In . SVG Version: 6.00 Build 0)  -->
<svg version="1.1" id="facebook" xmlns="http://www.w3.org/2000/svg" xmlns:xlink="http://www.w3.org/1999/xlink" x="0px" y="0px"
	 viewBox="-272 395.9 50 50" style="enable-background:new -272 395.9 50 50;" xml:space="preserve">
<style type="text/css">
	.st0{fill:#3B5998;}
</style>
<path class="st0" d="M-225,395.9h-44c-1.7,0-3,1.3-3,3v44c0,1.7,1.3,3,3,3h44c1.7,0,3-1.3,3-3v-44C-222,397.2-223.3,395.9-225,395.9
	z M-240,415.7l-0.3,4.5h-4.7v15.7h-5.9v-15.6h-3.1v-4.5h0.1h3.1v-1.4V413v-0.2c0-1.3,0-3.4,1-4.7c1-1.4,2.4-2.3,4.8-2.3
	c3.9,0,5.6,0.6,5.6,0.6l-0.8,4.6c0,0-1.3-0.4-2.5-0.4s-2.3,0.4-2.3,1.6v0.5v1.6v1.4H-240z"/>
</svg>
