<?xml version="1.0" encoding="utf-8"?>
<!-- Generator: Adobe Illustrator 19.0.1, SVG Export Plug-In . SVG Version: 6.00 Build 0)  -->
<svg version="1.1" id="google" xmlns="http://www.w3.org/2000/svg" xmlns:xlink="http://www.w3.org/1999/xlink" x="0px" y="0px"
	 viewBox="-272 395.9 50 50" style="enable-background:new -272 395.9 50 50;" xml:space="preserve">
<style type="text/css">
	.st0{fill:#7F7F7F;}
</style>
<g id="_x31_">
	<g>
		<path class="st0" d="M-255,425.3c-3.9,0-7.3,2.3-7.3,5.2c0,3,2.8,5.4,6.6,5.4c5.4,0,7.3-2.3,7.3-5.3c0-0.3,0-0.7-0.1-1
			c-0.4-1.6-1.9-2.4-4-3.9C-253.3,425.5-254.1,425.3-255,425.3z"/>
		<path class="st0" d="M-256.2,406.6c-2.6-0.1-4.3,2.5-3.9,5.9c0.5,3.4,2.9,6.2,5.5,6.3c2.5,0.1,4.3-2.6,3.9-6
			C-251.2,409.4-253.6,406.7-256.2,406.6z"/>
		<path class="st0" d="M-225,395.9h-44c-1.7,0-3,1.3-3,3v44c0,1.7,1.3,3,3,3h44c1.7,0,3-1.3,3-3v-44
			C-222,397.2-223.3,395.9-225,395.9z M-247.2,412.6c0,2.1-1.1,3.9-2.8,5.2c-1.6,1.3-1.9,1.8-1.9,2.9c0,0.9,1.7,2.5,2.6,3.1
			c2.6,1.9,3.5,3.6,3.6,6.6c0,3.6-3.5,7.2-9.8,7.2c-5.6,0-10.3-2.3-10.3-5.9c0-3.7,4.2-7.2,9.8-7.2c0.6,0,1.1,0,1.7,0
			c-0.8-0.8-1.4-1.7-1.4-2.8c0-0.7,0.2-1.3,0.5-1.9c-0.3,0-0.6,0-0.9,0c-4.5,0-7.6-3.3-7.6-7.3c0-3.9,4.2-7.3,8.7-7.3
			c2.5,0,10,0,10,0l-2.2,1.6h-3.2C-248.3,407.6-247.2,410.1-247.2,412.6z M-227.6,413.3h-6.5v6.5h-1.6v-6.5h-6.5v-1.6h6.5v-6.5h1.6
			v6.5h6.5V413.3z"/>
	</g>
</g>
</svg>
