<?xml version="1.0" encoding="utf-8"?>
<!-- Generator: Adobe Illustrator 19.0.1, SVG Export Plug-In . SVG Version: 6.00 Build 0)  -->
<svg version="1.1" id="twitter" xmlns="http://www.w3.org/2000/svg" xmlns:xlink="http://www.w3.org/1999/xlink" x="0px" y="0px"
	 viewBox="-272 395.9 50 50" style="enable-background:new -272 395.9 50 50;" xml:space="preserve">
<style type="text/css">
	.st0{fill:#7F7F7F;}
</style>
<path class="st0" d="M-225,395.9h-44c-1.7,0-3,1.3-3,3v44c0,1.7,1.3,3,3,3h44c1.7,0,3-1.3,3-3v-44C-222,397.2-223.3,395.9-225,395.9
	z M-233.6,414.9c0,0.2,0,0.5,0,0.8c0,8.6-6.5,18.6-18.6,18.6c-3.7,0-7.1-1-10-2.9c0.5,0.1,1.1,0.1,1.6,0.1c3,0,5.9-1,8.1-2.8
	c-2.8-0.1-5.3-2-6.1-4.6c0.4,0.1,0.8,0.1,1.2,0.1c0.6,0,1.2-0.1,1.7-0.2c-3-0.6-5.3-3.2-5.3-6.4v-0.1c0.9,0.5,1.9,0.8,3,0.8
	c-1.7-1.2-2.9-3.2-2.9-5.5c0-1.2,0.3-2.3,0.9-3.3c3.2,3.9,8,6.6,13.4,6.9c-0.1-0.5-0.2-1-0.2-1.5c0-3.7,3-6.6,6.6-6.6
	c1.9,0,3.6,0.8,4.8,2.1c1.5-0.3,2.9-0.8,4.2-1.6c-0.5,1.5-1.5,2.8-2.9,3.6c1.4-0.1,2.6-0.5,3.8-1
	C-231.2,412.7-232.3,413.8-233.6,414.9z"/>
</svg>
