<?xml version="1.0" encoding="utf-8"?>
<!-- Generator: Adobe Illustrator 19.0.1, SVG Export Plug-In . SVG Version: 6.00 Build 0)  -->
<svg version="1.1" id="vk" xmlns="http://www.w3.org/2000/svg" xmlns:xlink="http://www.w3.org/1999/xlink" x="0px" y="0px"
	 viewBox="-272 395.9 50 50" style="enable-background:new -272 395.9 50 50;" xml:space="preserve">
<style type="text/css">
	.st0{fill:#7F7F7F;}
</style>
<g>
	<path class="st0" d="M-250.6,422v6.6c3.3,0,7.5,0.6,7.6-3.3C-242.9,421.3-247.3,422-250.6,422z"/>
	<path class="st0" d="M-225,395.9h-44c-1.7,0-3,1.3-3,3v44c0,1.7,1.3,3,3,3h44c1.7,0,3-1.4,3-3v-44
		C-222,397.2-223.3,395.9-225,395.9z M-245.9,433.4h-11.2v-26.1h11.9c3.9,0,7.2,1.9,7.2,5.8c0,3.2-1.2,4.5-3.6,5.9
		c0.2,0.2,1.6,0.6,2,0.8c0.7,0.4,1.2,0.7,1.7,1.2c1.4,1.4,1.6,2.7,1.6,4.8C-236.3,430.8-241.2,433.4-245.9,433.4z"/>
	<path class="st0" d="M-244.7,414.7c0-3.1-3.2-2.6-5.9-2.6v2.1v3.4C-247.5,417.6-244.7,418-244.7,414.7z"/>
</g>
</svg>
