<?xml version="1.0" encoding="utf-8"?>
<!-- Generator: Adobe Illustrator 19.0.1, SVG Export Plug-In . SVG Version: 6.00 Build 0)  -->
<svg version="1.1" id="Слой_1" xmlns="http://www.w3.org/2000/svg" xmlns:xlink="http://www.w3.org/1999/xlink" x="0px" y="0px"
	 viewBox="-949 531 20 20" style="enable-background:new -949 531 20 20;" xml:space="preserve">
<style type="text/css">
	.st0{fill:#C9C8C8;}
</style>
<path class="st0" d="M-948,535c0-1.1,0.9-2,2-2h14c1.1,0,2,0.9,2,2v14c0,1.1-0.9,2-2,2h-14c-1.1,0-2-0.9-2-2V535z M-946,537v12h14
	v-12H-946z M-944,531h2v2h-2V531z M-936,531h2v2h-2V531z M-944,540h2v2h-2V540z M-944,544h2v2h-2V544z M-940,540h2v2h-2V540z
	 M-940,544h2v2h-2V544z M-936,540h2v2h-2V540z M-936,544h2v2h-2V544z"/>
</svg>
