<?xml version="1.0" encoding="utf-8"?>
<!-- Generator: Adobe Illustrator 19.0.1, SVG Export Plug-In . SVG Version: 6.00 Build 0)  -->
<svg version="1.1" id="Слой_2" xmlns="http://www.w3.org/2000/svg" xmlns:xlink="http://www.w3.org/1999/xlink" x="0px" y="0px"
	 viewBox="0 0 33.8 33.8" style="enable-background:new 0 0 33.8 33.8;" xml:space="preserve">
<style type="text/css">
	.st0{fill:#E22431;}
</style>
<g>
	<path class="st0" d="M33.8,27.2c0,0.8-0.3,1.4-0.8,1.9L29.1,33c-0.5,0.5-1.2,0.8-1.9,0.8c-0.8,0-1.4-0.3-1.9-0.8l-8.4-8.4L8.5,33
		c-0.5,0.5-1.2,0.8-1.9,0.8S5.2,33.5,4.7,33l-3.9-3.9C0.3,28.6,0,28,0,27.2c0-0.8,0.3-1.4,0.8-1.9l8.4-8.4L0.8,8.5
		C0.3,8,0,7.4,0,6.6s0.3-1.4,0.8-1.9l3.9-3.9C5.2,0.3,5.8,0,6.6,0S8,0.3,8.5,0.8l8.4,8.4l8.4-8.4C25.8,0.3,26.4,0,27.2,0
		c0.8,0,1.4,0.3,1.9,0.8L33,4.7c0.5,0.5,0.8,1.2,0.8,1.9S33.5,8,33,8.5l-8.4,8.4l8.4,8.4C33.5,25.8,33.8,26.4,33.8,27.2z"/>
</g>
</svg>
