<?xml version="1.0" encoding="utf-8"?>
<!-- Generator: Adobe Illustrator 19.0.1, SVG Export Plug-In . SVG Version: 6.00 Build 0)  -->
<svg version="1.1" id="Слой_1" xmlns="http://www.w3.org/2000/svg" xmlns:xlink="http://www.w3.org/1999/xlink" x="0px" y="0px"
	 viewBox="0 0 44 44" style="enable-background:new 0 0 44 44;" xml:space="preserve">
<style type="text/css">
	.st0{fill:#FFFFFF;}
</style>
<g id="g_x2B__1_">
	<path class="st0" d="M26.3,8.6h-7.3c-1.9,0-4.3,0.3-6.3,1.9c-1.5,1.3-2.3,3.1-2.3,4.7c0,2.8,2.1,5.5,5.9,5.5c0.4,0,0.7,0,1.1-0.1
		c-0.2,0.4-0.4,0.8-0.4,1.4c0,1.1,0.6,1.8,1.1,2.4c-1.6,0.1-4.6,0.3-6.7,1.6c-2.1,1.2-2.7,3-2.7,4.3c0,2.6,2.5,5,7.6,5
		c6.1,0,9.3-3.4,9.3-6.7c0-2.4-1.4-3.6-3-4.9l-1.3-1c-0.4-0.3-0.9-0.7-0.9-1.5c0-0.8,0.5-1.3,1-1.7c1.5-1.2,3-2.4,3-5
		c0-2.7-1.7-4.1-2.5-4.8h2.2L26.3,8.6z M23.2,30.2c0,2.2-1.8,3.8-5.2,3.8c-3.8,0-6.2-1.8-6.2-4.3c0-2.5,2.3-3.4,3-3.6
		c1.5-0.5,3.4-0.6,3.7-0.6c0.4,0,0.5,0,0.8,0C22.1,27.4,23.2,28.4,23.2,30.2z M20.4,18.8c-0.6,0.6-1.5,1-2.4,1c-3,0-4.4-3.9-4.4-6.3
		c0-0.9,0.2-1.9,0.8-2.6c0.6-0.7,1.6-1.2,2.5-1.2c2.9,0,4.4,4,4.4,6.5C21.3,16.8,21.2,18,20.4,18.8z"/>
	<polygon class="st0" points="35.3,20.4 31.8,20.4 31.8,17 29.9,17 29.9,20.4 26.5,20.4 26.5,22.3 29.9,22.3 29.9,25.7 31.8,25.7 
		31.8,22.3 35.3,22.3 	"/>
</g>
</svg>
