<?xml version="1.0" encoding="utf-8"?>
<!-- Generator: Adobe Illustrator 19.0.1, SVG Export Plug-In . SVG Version: 6.00 Build 0)  -->
<svg version="1.1" id="Слой_1" xmlns="http://www.w3.org/2000/svg" xmlns:xlink="http://www.w3.org/1999/xlink" x="0px" y="0px"
	 viewBox="0 0 41.9 32.2" style="enable-background:new 0 0 41.9 32.2;" xml:space="preserve">
<style type="text/css">
	.st0{clip-path:url(#SVGID_2_);}
	.st1{fill:#BCBEC0;}
</style>
<g>
	<defs>
		<path id="SVGID_1_" d="M38.9,32.2H3c-1.7,0-3-1.4-3-3V3c0-1.7,1.3-3,3-3h35.9c1.7,0,3,1.3,3,3v26.2C41.9,30.9,40.6,32.2,38.9,32.2
			z"/>
	</defs>
	<clipPath id="SVGID_2_">
		<use xlink:href="#SVGID_1_"  style="overflow:visible;"/>
	</clipPath>
	<g class="st0">
		<path class="st1" d="M6.3,0c-1,0-2,0.3-2.9,0.7L21,14.2L38.5,0.7C37.6,0.3,36.7,0,35.6,0H6.3z"/>
		<path class="st1" d="M21,18.1l-4.2-3.2L2.9,31.3c1,0.6,2.2,1,3.4,1h29.3c1.3,0,2.4-0.4,3.4-1L25.1,14.9L21,18.1z"/>
		<path class="st1" d="M1,2.7C0.4,3.7,0,4.8,0,6v20.2c0,1,0.3,1.9,0.7,2.8l13.6-16L1,2.7z"/>
		<path class="st1" d="M41.2,29c0.5-0.8,0.7-1.8,0.7-2.8V6c0-1.2-0.4-2.4-1-3.3L27.6,13L41.2,29z"/>
	</g>
</g>
</svg>
