<?xml version="1.0" encoding="utf-8"?>
<!-- Generator: Adobe Illustrator 19.0.1, SVG Export Plug-In . SVG Version: 6.00 Build 0)  -->
<svg version="1.1" id="Слой_3" xmlns="http://www.w3.org/2000/svg" xmlns:xlink="http://www.w3.org/1999/xlink" x="0px" y="0px"
	 viewBox="-240 364.6 113.3 113.3" style="enable-background:new -240 364.6 113.3 113.3;" xml:space="preserve">
<style type="text/css">
	.st0{clip-path:url(#SVGID_2_);fill:#B9BCC1;}
	.st1{clip-path:url(#SVGID_2_);fill:#A2A5AB;}
	.st2{opacity:0.6;clip-path:url(#SVGID_2_);fill:#CFD2D6;}
	.st3{opacity:0.6;clip-path:url(#SVGID_2_);}
	.st4{fill:#A2A5AB;}
	.st5{clip-path:url(#SVGID_2_);}
	.st6{fill:#FFFFFF;}
</style>
<g>
	<defs>
		<circle id="SVGID_1_" cx="-183.4" cy="421.2" r="56.6"/>
	</defs>
	<clipPath id="SVGID_2_">
		<use xlink:href="#SVGID_1_"  style="overflow:visible;"/>
	</clipPath>
	<circle class="st0" cx="-183.4" cy="421.2" r="56.6"/>
	<path class="st1" d="M-239.3,430.1c7.8,23.9,30,40.3,54.9,40.8c25.7,0.4,48.9-16.1,56.9-40.8c3.4,4.8,6.7,9.6,10.1,14.4l-30.7,31
		l-40,16l-69.7-9l2-35L-239.3,430.1z"/>
	<path class="st2" d="M-249.4,422.6l9.4-1.4c13.6,9.8,24.7,11.6,32.3,11.4c20.7-0.7,29.7-16.7,51.7-17.7c12.3-0.6,22.5,3.8,29.3,7.7
		c8.5-6.3,16.9-12.7,25.4-19l-22.7-51.7l-87.3-12.7l-38,35V422.6z"/>
	<g class="st3">
		<path class="st4" d="M-150.1,404.7c3.4,5.9,5.2,12.4,5.2,19.4s-1.7,13.5-5.2,19.4c-3.4,5.9-8.1,10.6-14,14
			c-5.9,3.4-12.4,5.2-19.4,5.2c-7,0-13.5-1.7-19.4-5.2c-5.9-3.4-10.6-8.1-14-14c-3.4-5.9-5.2-12.4-5.2-19.4s1.7-13.5,5.2-19.4
			c3.4-5.9,8.1-10.6,14-14c5.9-3.4,12.4-5.2,19.4-5.2c7,0,13.5,1.7,19.4,5.2C-158.2,394.1-153.6,398.8-150.1,404.7z M-153.9,436.6
			c1.7-4,2.6-8.1,2.6-12.5s-0.9-8.5-2.6-12.5c-1.7-4-4-7.4-6.9-10.2c-2.9-2.9-6.3-5.1-10.2-6.9c-4-1.7-8.1-2.6-12.5-2.6
			c-4.4,0-8.5,0.9-12.5,2.6c-4,1.7-7.4,4-10.2,6.9c-2.9,2.9-5.1,6.3-6.9,10.2c-1.7,4-2.6,8.1-2.6,12.5s0.9,8.5,2.6,12.5
			c1.7,4,4,7.4,6.9,10.2c2.9,2.9,6.3,5.1,10.2,6.9c4,1.7,8.1,2.6,12.5,2.6c4.4,0,8.5-0.9,12.5-2.6c4-1.7,7.4-4,10.2-6.9
			C-157.9,443.9-155.6,440.5-153.9,436.6z M-191.8,406.7c1.3,1.3,1.9,2.8,1.9,4.5c0,1.8-0.6,3.3-1.9,4.5c-1.3,1.3-2.8,1.9-4.5,1.9
			c-1.8,0-3.3-0.6-4.5-1.9c-1.3-1.3-1.9-2.8-1.9-4.5c0-1.8,0.6-3.3,1.9-4.5c1.3-1.3,2.8-1.9,4.5-1.9
			C-194.6,404.8-193.1,405.4-191.8,406.7z M-165.2,431.5c0.6,0.6,1,1.4,1,2.3c0,0.9-0.3,1.6-1,2.3c-0.6,0.6-1.4,1-2.3,1h-32.1
			c-0.9,0-1.6-0.3-2.3-1c-0.6-0.6-1-1.4-1-2.3c0-0.9,0.3-1.6,1-2.3c0.6-0.6,1.4-1,2.3-1h32.1C-166.6,430.5-165.8,430.8-165.2,431.5z
			 M-166.1,406.7c1.3,1.3,1.9,2.8,1.9,4.5c0,1.8-0.6,3.3-1.9,4.5c-1.3,1.3-2.8,1.9-4.5,1.9c-1.8,0-3.3-0.6-4.5-1.9
			c-1.3-1.3-1.9-2.8-1.9-4.5c0-1.8,0.6-3.3,1.9-4.5c1.3-1.3,2.8-1.9,4.5-1.9C-168.9,404.8-167.4,405.4-166.1,406.7z"/>
	</g>
	<g class="st5">
		<path class="st6" d="M-150.1,401.7c3.4,5.9,5.2,12.4,5.2,19.4c0,7-1.7,13.5-5.2,19.4c-3.4,5.9-8.1,10.6-14,14
			c-5.9,3.4-12.4,5.2-19.4,5.2c-7,0-13.5-1.7-19.4-5.2c-5.9-3.4-10.6-8.1-14-14c-3.4-5.9-5.2-12.4-5.2-19.4c0-7,1.7-13.5,5.2-19.4
			c3.4-5.9,8.1-10.6,14-14c5.9-3.4,12.4-5.2,19.4-5.2c7,0,13.5,1.7,19.4,5.2C-158.2,391.1-153.6,395.8-150.1,401.7z M-153.9,433.6
			c1.7-4,2.6-8.1,2.6-12.5s-0.9-8.5-2.6-12.5c-1.7-4-4-7.4-6.9-10.2c-2.9-2.9-6.3-5.1-10.2-6.9c-4-1.7-8.1-2.6-12.5-2.6
			c-4.4,0-8.5,0.9-12.5,2.6c-4,1.7-7.4,4-10.2,6.9c-2.9,2.9-5.1,6.3-6.9,10.2c-1.7,4-2.6,8.1-2.6,12.5s0.9,8.5,2.6,12.5
			c1.7,4,4,7.4,6.9,10.2c2.9,2.9,6.3,5.1,10.2,6.9c4,1.7,8.1,2.6,12.5,2.6c4.4,0,8.5-0.9,12.5-2.6c4-1.7,7.4-4,10.2-6.9
			C-157.9,440.9-155.6,437.5-153.9,433.6z M-191.8,403.7c1.3,1.3,1.9,2.8,1.9,4.5c0,1.8-0.6,3.3-1.9,4.5c-1.3,1.3-2.8,1.9-4.5,1.9
			c-1.8,0-3.3-0.6-4.5-1.9c-1.3-1.3-1.9-2.8-1.9-4.5c0-1.8,0.6-3.3,1.9-4.5c1.3-1.3,2.8-1.9,4.5-1.9
			C-194.6,401.8-193.1,402.4-191.8,403.7z M-165.2,428.5c0.6,0.6,1,1.4,1,2.3c0,0.9-0.3,1.6-1,2.3c-0.6,0.6-1.4,1-2.3,1h-32.1
			c-0.9,0-1.6-0.3-2.3-1c-0.6-0.6-1-1.4-1-2.3c0-0.9,0.3-1.6,1-2.3c0.6-0.6,1.4-1,2.3-1h32.1C-166.6,427.5-165.8,427.8-165.2,428.5z
			 M-166.1,403.7c1.3,1.3,1.9,2.8,1.9,4.5c0,1.8-0.6,3.3-1.9,4.5c-1.3,1.3-2.8,1.9-4.5,1.9c-1.8,0-3.3-0.6-4.5-1.9
			c-1.3-1.3-1.9-2.8-1.9-4.5c0-1.8,0.6-3.3,1.9-4.5c1.3-1.3,2.8-1.9,4.5-1.9C-168.9,401.8-167.4,402.4-166.1,403.7z"/>
	</g>
</g>
</svg>
