<?xml version="1.0" encoding="utf-8"?>
<!-- Generator: Adobe Illustrator 19.0.1, SVG Export Plug-In . SVG Version: 6.00 Build 0)  -->
<svg version="1.1" id="Слой_1" xmlns="http://www.w3.org/2000/svg" xmlns:xlink="http://www.w3.org/1999/xlink" x="0px" y="0px"
	 viewBox="0 0 44 44" style="enable-background:new 0 0 44 44;" xml:space="preserve">
<style type="text/css">
	.st0{fill:#FFFFFF;}
</style>
<g id="ok_2_">
	<path class="st0" d="M22,22.5c4,0,7.2-3.2,7.2-7.2c0-4-3.2-7.2-7.2-7.2c-4,0-7.2,3.3-7.2,7.2C14.8,19.2,18,22.5,22,22.5z M22,12.2
		c1.7,0,3,1.3,3,3c0,1.7-1.3,3-3,3c-1.7,0-3-1.3-3-3C19,13.6,20.3,12.2,22,12.2z"/>
	<path class="st0" d="M24.9,28.4c1.5-0.3,2.9-0.9,4.2-1.7c1-0.6,1.3-1.9,0.7-2.9c-0.6-1-1.9-1.3-2.9-0.7c-3,1.9-6.8,1.9-9.8,0
		c-1-0.6-2.3-0.3-2.9,0.7c-0.6,1-0.3,2.3,0.7,2.9c1.3,0.8,2.7,1.4,4.2,1.7L15,32.4c-0.8,0.8-0.8,2.2,0,3c0.4,0.4,1,0.6,1.5,0.6
		c0.5,0,1.1-0.2,1.5-0.6l4-4l4,4c0.8,0.8,2.2,0.8,3,0c0.8-0.8,0.8-2.2,0-3L24.9,28.4z"/>
</g>
</svg>
