<?xml version="1.0" encoding="utf-8"?>
<!-- Generator: Adobe Illustrator 19.0.1, SVG Export Plug-In . SVG Version: 6.00 Build 0)  -->
<svg version="1.1" id="Слой_1" xmlns="http://www.w3.org/2000/svg" xmlns:xlink="http://www.w3.org/1999/xlink" x="0px" y="0px"
	 viewBox="0 0 113.3 113.3" style="enable-background:new 0 0 113.3 113.3;" xml:space="preserve">
<style type="text/css">
	.st0{clip-path:url(#SVGID_2_);fill:#A4B50C;}
	.st1{clip-path:url(#SVGID_2_);fill:#878E1E;}
	.st2{opacity:0.6;clip-path:url(#SVGID_2_);fill:#C9D200;}
	.st3{clip-path:url(#SVGID_2_);}
	.st4{fill:#878E1E;}
	.st5{fill:#FFFFFF;}
</style>
<g>
	<defs>
		<circle id="SVGID_1_" cx="56.6" cy="56.6" r="56.6"/>
	</defs>
	<clipPath id="SVGID_2_">
		<use xlink:href="#SVGID_1_"  style="overflow:visible;"/>
	</clipPath>
	<circle class="st0" cx="56.6" cy="56.6" r="56.6"/>
	<path class="st1" d="M52,127l-69.7-9l2-35L0.7,65.6c7.8,23.9,30,40.3,54.9,40.8c25.7,0.4,48.9-16.1,56.9-40.8
		c3.4,4.8,6.7,9.6,10.1,14.4L92,111L52,127"/>
	<path class="st2" d="M28.6-25.3l-38,35V58L0,56.6C13.6,66.4,24.7,68.2,32.3,68C53,67.3,62,51.3,84,50.3c12.3-0.6,22.5,3.8,29.3,7.7
		c8.5-6.3,16.9-12.7,25.4-19L116-12.7"/>
	<g class="st3">
		<path class="st4" d="M94.4,45.3c0,1.3-0.5,2.5-1.4,3.4L56.6,85.1l-6.8,6.8c-0.9,0.9-2.1,1.4-3.4,1.4c-1.3,0-2.5-0.5-3.4-1.4
			l-6.8-6.8L18,66.9c-0.9-0.9-1.4-2.1-1.4-3.4c0-1.3,0.5-2.5,1.4-3.4l6.8-6.8c0.9-0.9,2.1-1.4,3.4-1.4c1.3,0,2.5,0.5,3.4,1.4
			L46.4,68l32.9-33c0.9-0.9,2.1-1.4,3.4-1.4c1.3,0,2.5,0.5,3.4,1.4l6.8,6.8C93.9,42.8,94.4,44,94.4,45.3z"/>
	</g>
	<g class="st3">
		<path class="st5" d="M96.4,38.4c0,1.3-0.5,2.5-1.4,3.4L58.6,78.2L51.8,85c-0.9,0.9-2.1,1.4-3.4,1.4c-1.3,0-2.5-0.5-3.4-1.4
			l-6.8-6.8L20,60c-0.9-0.9-1.4-2.1-1.4-3.4c0-1.3,0.5-2.5,1.4-3.4l6.8-6.8c0.9-0.9,2.1-1.4,3.4-1.4c1.3,0,2.5,0.5,3.4,1.4
			l14.8,14.8l32.9-33c0.9-0.9,2.1-1.4,3.4-1.4c1.3,0,2.5,0.5,3.4,1.4L95,35C95.9,35.9,96.4,37,96.4,38.4z"/>
	</g>
</g>
</svg>
