<?xml version="1.0" encoding="utf-8"?>
<!-- Generator: Adobe Illustrator 19.0.1, SVG Export Plug-In . SVG Version: 6.00 Build 0)  -->
<svg version="1.1" id="Слой_1" xmlns="http://www.w3.org/2000/svg" xmlns:xlink="http://www.w3.org/1999/xlink" x="0px" y="0px"
	 viewBox="0 0 25.9 25.9" style="enable-background:new 0 0 25.9 25.9;" xml:space="preserve">
<style type="text/css">
	.st0{fill:#FFFFFF;}
</style>
<g>
	<path class="st0" d="M25.9,24.7c0,0.3-0.1,0.6-0.3,0.9c-0.2,0.2-0.5,0.4-0.8,0.4h-2.6c-0.3,0-0.6-0.1-0.8-0.3
		c-0.2-0.2-0.3-0.5-0.4-0.8c-0.1-2.6-0.8-5.1-1.9-7.5s-2.5-4.4-4.3-6.2S11,7.9,8.6,6.9S3.7,5.1,1.1,5C0.8,5,0.5,4.8,0.3,4.6
		S0,4.1,0,3.8V1.2c0-0.3,0.1-0.6,0.4-0.8C0.6,0.1,0.9,0,1.2,0h0.1c3.2,0.2,6.3,0.9,9.2,2.2c2.9,1.3,5.6,3.1,7.8,5.4
		c2.3,2.3,4.1,4.9,5.4,7.8C25,18.4,25.8,21.5,25.9,24.7z M16.5,24.7c0,0.3-0.1,0.6-0.3,0.9c-0.2,0.3-0.5,0.4-0.9,0.4h-2.5
		c-0.3,0-0.6-0.1-0.8-0.3c-0.2-0.2-0.3-0.5-0.4-0.8c-0.3-2.8-1.4-5.2-3.4-7.2c-2-2-4.4-3.1-7.2-3.4c-0.3,0-0.6-0.1-0.8-0.4
		C0.1,13.7,0,13.4,0,13.1v-2.5c0-0.4,0.1-0.6,0.4-0.9c0.2-0.2,0.5-0.3,0.8-0.3h0.1c2,0.2,3.8,0.7,5.6,1.5s3.4,1.9,4.8,3.3
		c1.4,1.4,2.5,3,3.3,4.8S16.3,22.7,16.5,24.7z M6,19.9c0.7,0.7,1,1.5,1,2.5c0,1-0.3,1.8-1,2.5s-1.5,1-2.5,1c-1,0-1.8-0.3-2.5-1
		s-1-1.5-1-2.5c0-1,0.3-1.8,1-2.5s1.5-1,2.5-1C4.5,18.9,5.4,19.2,6,19.9z"/>
</g>
</svg>
