<?xml version="1.0" encoding="utf-8"?>
<!-- Generator: Adobe Illustrator 19.0.1, SVG Export Plug-In . SVG Version: 6.00 Build 0)  -->
<svg version="1.1" id="Слой_1" xmlns="http://www.w3.org/2000/svg" xmlns:xlink="http://www.w3.org/1999/xlink" x="0px" y="0px"
	 viewBox="0 0 114 26" style="enable-background:new 0 0 114 26;" xml:space="preserve">
<style type="text/css">
	.st0{fill:#FFFFFF;}
</style>
<path class="st0" d="M0,0v26h114V0H0z M22.9,11L21,12.7l-2,1.8l-1.3,1.2l1.3,5.6l0.3,1.3c0,0.1,0,0.3-0.1,0.4C19.1,23,19.1,23,19,23
	c0,0,0,0,0,0c-0.1,0-0.1,0-0.2-0.1L17,21.8l-2-1.3l-2-1.3h0l-2,1.3l-2,1.3l-1.8,1.2C7.2,23,7.1,23,7,23c0,0,0,0,0,0
	c-0.1,0-0.1,0-0.2-0.1c-0.1-0.1-0.2-0.2-0.1-0.4L7,21.3l1.3-5.6L7,14.5l-2-1.8L3.1,11C3,10.9,3,10.8,3,10.6c0-0.1,0.2-0.2,0.3-0.3
	L5,10.2l2-0.1l2-0.1l1.2-0.1L11,7.7l1.7-4.5C12.7,3.1,12.9,3,13,3c0,0,0,0,0,0s0,0,0,0c0.1,0,0.3,0.1,0.3,0.2L15,7.7l0.8,2.2L17,9.9
	l2,0.1l2,0.1l1.7,0.1c0.1,0,0.3,0.1,0.3,0.3C23,10.8,23,10.9,22.9,11z M44.9,11L43,12.7l-2,1.8l-1.3,1.2l1.3,5.6l0.3,1.3
	c0,0.1,0,0.3-0.1,0.4C41.1,23,41.1,23,41,23c0,0,0,0,0,0c-0.1,0-0.1,0-0.2-0.1L39,21.8l-2-1.3l-2-1.3h0l-2,1.3l-2,1.3l-1.8,1.2
	C29.2,23,29.1,23,29,23c0,0,0,0,0,0c-0.1,0-0.1,0-0.2-0.1c-0.1-0.1-0.2-0.2-0.1-0.4l0.3-1.3l1.3-5.6L29,14.5l-2-1.8L25.1,11
	C25,10.9,25,10.8,25,10.6c0-0.1,0.2-0.2,0.3-0.3l1.7-0.1l2-0.1l2-0.1l1.2-0.1L33,7.7l1.7-4.5C34.7,3.1,34.9,3,35,3c0,0,0,0,0,0
	s0,0,0,0c0.1,0,0.3,0.1,0.3,0.2L37,7.7l0.8,2.2L39,9.9l2,0.1l2,0.1l1.7,0.1c0.1,0,0.3,0.1,0.3,0.3C45,10.8,45,10.9,44.9,11z
	 M66.9,11L65,12.7l-2,1.8l-1.3,1.2l1.3,5.6l0.3,1.3c0,0.1,0,0.3-0.1,0.4C63.1,23,63.1,23,63,23c0,0,0,0,0,0c-0.1,0-0.1,0-0.2-0.1
	L61,21.8l-2-1.3l-2-1.3h0l-2,1.3l-2,1.3l-1.8,1.2C51.2,23,51.1,23,51,23c0,0,0,0,0,0c-0.1,0-0.1,0-0.2-0.1c-0.1-0.1-0.2-0.2-0.1-0.4
	l0.3-1.3l1.3-5.6L51,14.5l-2-1.8L47.1,11C47,10.9,47,10.8,47,10.6c0-0.1,0.2-0.2,0.3-0.3l1.7-0.1l2-0.1l2-0.1l1.2-0.1L55,7.7
	l1.7-4.5C56.7,3.1,56.9,3,57,3c0,0,0,0,0,0c0,0,0,0,0,0c0.1,0,0.3,0.1,0.3,0.2L59,7.7l0.8,2.2L61,9.9l2,0.1l2,0.1l1.7,0.1
	c0.1,0,0.3,0.1,0.3,0.3C67,10.8,67,10.9,66.9,11z M88.9,11L87,12.7l-2,1.8l-1.3,1.2l1.3,5.6l0.3,1.3c0,0.1,0,0.3-0.1,0.4
	C85.1,23,85.1,23,85,23c0,0,0,0,0,0c-0.1,0-0.1,0-0.2-0.1L83,21.8l-2-1.3l-2-1.3h0l-2,1.3l-2,1.3l-1.8,1.2C73.2,23,73.1,23,73,23
	c0,0,0,0,0,0c-0.1,0-0.1,0-0.2-0.1c-0.1-0.1-0.2-0.2-0.1-0.4l0.3-1.3l1.3-5.6L73,14.5l-2-1.8L69.1,11C69,10.9,69,10.8,69,10.6
	c0-0.1,0.2-0.2,0.3-0.3l1.7-0.1l2-0.1l2-0.1l1.2-0.1L77,7.7l1.7-4.5C78.7,3.1,78.9,3,79,3c0,0,0,0,0,0c0,0,0,0,0,0
	c0.1,0,0.3,0.1,0.3,0.2L81,7.7l0.8,2.2L83,9.9l2,0.1l2,0.1l1.7,0.1c0.1,0,0.3,0.1,0.3,0.3C89,10.8,89,10.9,88.9,11z M110.9,11
	l-1.9,1.7l-2,1.8l-1.3,1.2l1.3,5.6l0.3,1.3c0,0.1,0,0.3-0.1,0.4c-0.1,0-0.1,0.1-0.2,0.1c0,0,0,0,0,0c-0.1,0-0.1,0-0.2-0.1l-1.8-1.2
	l-2-1.3l-2-1.3h0l-2,1.3l-2,1.3l-1.8,1.2C95.2,23,95.1,23,95,23c0,0,0,0,0,0c-0.1,0-0.1,0-0.2-0.1c-0.1-0.1-0.2-0.2-0.1-0.4l0.3-1.3
	l1.3-5.6L95,14.5l-2-1.8L91.1,11C91,10.9,91,10.8,91,10.6c0-0.1,0.2-0.2,0.3-0.3l1.7-0.1l2-0.1l2-0.1l1.2-0.1L99,7.7l1.7-4.5
	c0.1-0.1,0.2-0.2,0.3-0.2c0,0,0,0,0,0c0,0,0,0,0,0c0.1,0,0.3,0.1,0.3,0.2l1.7,4.5l0.8,2.2l1.2,0.1l2,0.1l2,0.1l1.7,0.1
	c0.1,0,0.3,0.1,0.3,0.3C111,10.8,111,10.9,110.9,11z"/>
</svg>
