<?xml version="1.0" encoding="utf-8"?>
<!-- Generator: Adobe Illustrator 19.0.1, SVG Export Plug-In . SVG Version: 6.00 Build 0)  -->
<svg version="1.1" id="Слой_1" xmlns="http://www.w3.org/2000/svg" xmlns:xlink="http://www.w3.org/1999/xlink" x="0px" y="0px"
	 viewBox="0 0 44 44" style="enable-background:new 0 0 44 44;" xml:space="preserve">
<style type="text/css">
	.st0{fill:#FFFFFF;}
</style>
<path id="twitter_2_" class="st0" d="M36.2,13.2c-1,0.5-2.2,0.8-3.3,0.9c1.2-0.7,2.1-1.9,2.6-3.2c-1.1,0.7-2.4,1.2-3.7,1.4
	c-1.1-1.1-2.6-1.8-4.2-1.8c-3.2,0-5.8,2.6-5.8,5.8c0,0.5,0.1,0.9,0.2,1.3c-4.8-0.2-9.1-2.6-12-6.1C9.3,12.4,9,13.4,9,14.5
	c0,2,1,3.8,2.6,4.8c-1,0-1.9-0.3-2.6-0.7c0,0,0,0,0,0.1c0,2.8,2,5.2,4.7,5.7c-0.5,0.1-1,0.2-1.5,0.2c-0.4,0-0.7,0-1.1-0.1
	c0.7,2.3,2.9,4,5.4,4c-2,1.6-4.5,2.5-7.2,2.5c-0.5,0-0.9,0-1.4-0.1c2.6,1.7,5.6,2.6,8.9,2.6c10.7,0,16.5-8.9,16.5-16.5
	c0-0.3,0-0.5,0-0.8C34.4,15.4,35.4,14.4,36.2,13.2z"/>
</svg>
